NewtSerifDemi.ufo
<glyph name="exclam" format="1">
  <advance width="252"/>
  <unicode hex="0021"/>
  <outline>
    <contour>
      <point x="82" y="561" type="curve" smooth="yes"/>
      <point x="82" y="584"/>
      <point x="89" y="590"/>
      <point x="104" y="594" type="curve" smooth="yes"/>
      <point x="132" y="603"/>
      <point x="159" y="604"/>
      <point x="179" y="604" type="curve" smooth="yes"/>
      <point x="196" y="604"/>
      <point x="204" y="608"/>
      <point x="204" y="585" type="curve" smooth="yes"/>
      <point x="204" y="561"/>
      <point x="178" y="442"/>
      <point x="175" y="426" type="curve"/>
      <point x="168" y="361"/>
      <point x="157" y="247"/>
      <point x="155" y="202" type="curve"/>
      <point x="153" y="181"/>
      <point x="150" y="177"/>
      <point x="136" y="172" type="curve" smooth="yes"/>
      <point x="125" y="168"/>
      <point x="119" y="180"/>
      <point x="120" y="204" type="curve"/>
      <point x="120" y="237"/>
      <point x="113" y="352"/>
      <point x="107" y="418" type="curve"/>
      <point x="104" y="437"/>
      <point x="82" y="546"/>
    </contour>
    <contour>
      <point x="136" y="94" type="curve" smooth="yes"/>
      <point x="167" y="94"/>
      <point x="194" y="79"/>
      <point x="194" y="53" type="curve" smooth="yes"/>
      <point x="194" y="12"/>
      <point x="156" y="-7"/>
      <point x="125" y="-7" type="curve" smooth="yes"/>
      <point x="76" y="-7"/>
      <point x="67" y="19"/>
      <point x="67" y="41" type="curve" smooth="yes"/>
      <point x="67" y="77"/>
      <point x="112" y="94"/>
    </contour>
  </outline>
</glyph>
<glyph name="quotedbl" format="1">
  <advance width="285"/>
  <unicode hex="0022"/>
  <outline>
    <contour>
      <point x="98" y="598" type="curve" smooth="yes"/>
      <point x="118" y="598"/>
      <point x="124" y="586"/>
      <point x="118" y="566" type="curve" smooth="yes"/>
      <point x="104" y="517"/>
      <point x="91" y="459"/>
      <point x="87" y="405" type="curve" smooth="yes"/>
      <point x="85" y="386"/>
      <point x="77" y="376"/>
      <point x="67" y="376" type="curve" smooth="yes"/>
      <point x="58" y="376"/>
      <point x="50" y="384"/>
      <point x="49" y="405" type="curve" smooth="yes"/>
      <point x="45" y="448"/>
      <point x="28" y="515"/>
      <point x="15" y="561" type="curve" smooth="yes"/>
      <point x="8" y="589"/>
      <point x="21" y="590"/>
      <point x="35" y="593" type="curve" smooth="yes"/>
      <point x="51" y="597"/>
      <point x="88" y="598"/>
    </contour>
    <contour>
      <point x="250" y="598" type="curve" smooth="yes"/>
      <point x="269" y="598"/>
      <point x="275" y="586"/>
      <point x="269" y="566" type="curve" smooth="yes"/>
      <point x="256" y="517"/>
      <point x="242" y="459"/>
      <point x="238" y="405" type="curve" smooth="yes"/>
      <point x="237" y="386"/>
      <point x="229" y="376"/>
      <point x="219" y="376" type="curve" smooth="yes"/>
      <point x="210" y="376"/>
      <point x="201" y="384"/>
      <point x="200" y="405" type="curve" smooth="yes"/>
      <point x="196" y="448"/>
      <point x="179" y="515"/>
      <point x="167" y="561" type="curve" smooth="yes"/>
      <point x="159" y="589"/>
      <point x="173" y="590"/>
      <point x="187" y="593" type="curve" smooth="yes"/>
      <point x="202" y="597"/>
      <point x="239" y="598"/>
    </contour>
  </outline>
</glyph>
<glyph name="numbersign" format="1">
  <advance width="428"/>
  <unicode hex="0023"/>
  <outline>
    <contour>
      <point x="24" y="428" type="curve" smooth="yes"/>
      <point x="30" y="443"/>
      <point x="44" y="449"/>
      <point x="65" y="449" type="curve" smooth="yes"/>
      <point x="104" y="449" type="line" smooth="yes"/>
      <point x="117" y="449"/>
      <point x="114" y="456"/>
      <point x="115" y="469" type="curve" smooth="yes"/>
      <point x="117" y="515"/>
      <point x="117" y="558"/>
      <point x="118" y="584" type="curve" smooth="yes"/>
      <point x="118" y="603"/>
      <point x="126" y="608"/>
      <point x="141" y="610" type="curve"/>
      <point x="148" y="612"/>
      <point x="161" y="610"/>
      <point x="161" y="586" type="curve" smooth="yes"/>
      <point x="161" y="582"/>
      <point x="160" y="537"/>
      <point x="160" y="475" type="curve" smooth="yes"/>
      <point x="160" y="455"/>
      <point x="157" y="450"/>
      <point x="178" y="450" type="curve" smooth="yes"/>
      <point x="214" y="451"/>
      <point x="237" y="453"/>
      <point x="266" y="455" type="curve" smooth="yes"/>
      <point x="279" y="456"/>
      <point x="280" y="460"/>
      <point x="280" y="478" type="curve" smooth="yes"/>
      <point x="283" y="584" type="line" smooth="yes"/>
      <point x="283" y="603"/>
      <point x="290" y="608"/>
      <point x="305" y="610" type="curve"/>
      <point x="312" y="612"/>
      <point x="324" y="610"/>
      <point x="324" y="586" type="curve" smooth="yes"/>
      <point x="324" y="582"/>
      <point x="324" y="540"/>
      <point x="323" y="479" type="curve" smooth="yes"/>
      <point x="323" y="462"/>
      <point x="321" y="461"/>
      <point x="338" y="461" type="curve"/>
      <point x="346" y="462"/>
      <point x="356" y="462"/>
      <point x="364" y="464" type="curve" smooth="yes"/>
      <point x="390" y="468"/>
      <point x="409" y="473"/>
      <point x="409" y="454" type="curve" smooth="yes"/>
      <point x="409" y="446"/>
      <point x="397" y="423"/>
      <point x="380" y="414" type="curve"/>
      <point x="370" y="407"/>
      <point x="356" y="407"/>
      <point x="343" y="407" type="curve" smooth="yes"/>
      <point x="324" y="407"/>
      <point x="323" y="407"/>
      <point x="323" y="386" type="curve" smooth="yes"/>
      <point x="321" y="226" type="line" smooth="yes"/>
      <point x="321" y="211"/>
      <point x="318" y="210"/>
      <point x="335" y="210" type="curve" smooth="yes"/>
      <point x="345" y="210"/>
      <point x="354" y="211"/>
      <point x="364" y="212" type="curve" smooth="yes"/>
      <point x="390" y="216"/>
      <point x="409" y="221"/>
      <point x="409" y="203" type="curve" smooth="yes"/>
      <point x="409" y="194"/>
      <point x="397" y="175"/>
      <point x="380" y="167" type="curve"/>
      <point x="370" y="160"/>
      <point x="356" y="157"/>
      <point x="343" y="157" type="curve" smooth="yes"/>
      <point x="325" y="157"/>
      <point x="321" y="152"/>
      <point x="321" y="130" type="curve" smooth="yes"/>
      <point x="322" y="94"/>
      <point x="322" y="68"/>
      <point x="321" y="51" type="curve"/>
      <point x="321" y="24"/>
      <point x="321" y="12"/>
      <point x="311" y="3" type="curve" smooth="yes"/>
      <point x="300" y="-8"/>
      <point x="281" y="-13"/>
      <point x="270" y="-14" type="curve" smooth="yes"/>
      <point x="253" y="-17"/>
      <point x="259" y="6"/>
      <point x="260" y="10" type="curve" smooth="yes"/>
      <point x="265" y="33"/>
      <point x="268" y="66"/>
      <point x="270" y="88" type="curve"/>
      <point x="270" y="100"/>
      <point x="271" y="122"/>
      <point x="270" y="141" type="curve" smooth="yes"/>
      <point x="270" y="152"/>
      <point x="270" y="156"/>
      <point x="253" y="156" type="curve" smooth="yes"/>
      <point x="176" y="154" type="line"/>
      <point x="162" y="152"/>
      <point x="157" y="152"/>
      <point x="158" y="134" type="curve"/>
      <point x="158" y="51" type="line"/>
      <point x="157" y="26"/>
      <point x="152" y="12"/>
      <point x="144" y="3" type="curve"/>
      <point x="132" y="-8"/>
      <point x="116" y="-13"/>
      <point x="104" y="-14" type="curve"/>
      <point x="88" y="-17"/>
      <point x="94" y="6"/>
      <point x="95" y="10" type="curve" smooth="yes"/>
      <point x="100" y="33"/>
      <point x="103" y="66"/>
      <point x="104" y="88" type="curve" smooth="yes"/>
      <point x="105" y="100"/>
      <point x="107" y="117"/>
      <point x="105" y="136" type="curve" smooth="yes"/>
      <point x="105" y="141"/>
      <point x="107" y="152"/>
      <point x="94" y="154" type="curve" smooth="yes"/>
      <point x="82" y="155"/>
      <point x="69" y="155"/>
      <point x="48" y="154" type="curve" smooth="yes"/>
      <point x="26" y="152"/>
      <point x="18" y="167"/>
      <point x="24" y="179" type="curve"/>
      <point x="30" y="194"/>
      <point x="44" y="198"/>
      <point x="65" y="198" type="curve" smooth="yes"/>
      <point x="90" y="198" type="line" smooth="yes"/>
      <point x="109" y="198"/>
      <point x="108" y="208"/>
      <point x="109" y="215" type="curve" smooth="yes"/>
      <point x="112" y="267"/>
      <point x="110" y="325"/>
      <point x="113" y="388" type="curve" smooth="yes"/>
      <point x="113" y="392"/>
      <point x="110" y="403"/>
      <point x="100" y="404" type="curve" smooth="yes"/>
      <point x="84" y="405"/>
      <point x="67" y="405"/>
      <point x="47" y="404" type="curve" smooth="yes"/>
      <point x="27" y="403"/>
      <point x="16" y="410"/>
    </contour>
    <contour>
      <point x="160" y="388" type="curve" smooth="yes"/>
      <point x="158" y="328"/>
      <point x="158" y="269"/>
      <point x="158" y="213" type="curve" smooth="yes"/>
      <point x="158" y="198"/>
      <point x="158" y="199"/>
      <point x="173" y="199" type="curve" smooth="yes"/>
      <point x="207" y="200"/>
      <point x="228" y="201"/>
      <point x="258" y="203" type="curve" smooth="yes"/>
      <point x="274" y="205"/>
      <point x="274" y="206"/>
      <point x="274" y="222" type="curve" smooth="yes"/>
      <point x="275" y="274"/>
      <point x="276" y="327"/>
      <point x="278" y="386" type="curve" smooth="yes"/>
      <point x="278" y="403"/>
      <point x="276" y="407"/>
      <point x="263" y="407" type="curve" smooth="yes"/>
      <point x="233" y="407"/>
      <point x="210" y="405"/>
      <point x="177" y="404" type="curve" smooth="yes"/>
      <point x="162" y="404"/>
      <point x="160" y="400"/>
    </contour>
  </outline>
</glyph>
<glyph name="dollar" format="1">
  <advance width="359"/>
  <unicode hex="0024"/>
  <outline>
    <contour>
      <point x="162" y="538" type="curve"/>
      <point x="165" y="554"/>
      <point x="166" y="572"/>
      <point x="168" y="582" type="curve"/>
      <point x="168" y="590"/>
      <point x="169" y="592"/>
      <point x="178" y="596" type="curve"/>
      <point x="185" y="598"/>
      <point x="195" y="600"/>
      <point x="200" y="600" type="curve" smooth="yes"/>
      <point x="207" y="600"/>
      <point x="208" y="596"/>
      <point x="208" y="587" type="curve" smooth="yes"/>
      <point x="209" y="572"/>
      <point x="209" y="553"/>
      <point x="209" y="540" type="curve" smooth="yes"/>
      <point x="209" y="530"/>
      <point x="215" y="524"/>
      <point x="223" y="524" type="curve" smooth="yes"/>
      <point x="269" y="519"/>
      <point x="298" y="503"/>
      <point x="301" y="472" type="curve"/>
      <point x="301" y="449"/>
      <point x="283" y="429"/>
      <point x="261" y="411" type="curve"/>
      <point x="246" y="397"/>
      <point x="226" y="406"/>
      <point x="231" y="424" type="curve" smooth="yes"/>
      <point x="240" y="458"/>
      <point x="226" y="483"/>
      <point x="191" y="483" type="curve" smooth="yes"/>
      <point x="137" y="483"/>
      <point x="111" y="454"/>
      <point x="112" y="425" type="curve" smooth="yes"/>
      <point x="113" y="399"/>
      <point x="130" y="389"/>
      <point x="163" y="372" type="curve" smooth="yes"/>
      <point x="175" y="366"/>
      <point x="214" y="353"/>
      <point x="231" y="346" type="curve" smooth="yes"/>
      <point x="288" y="324"/>
      <point x="322" y="279"/>
      <point x="322" y="231" type="curve" smooth="yes"/>
      <point x="322" y="154"/>
      <point x="268" y="93"/>
      <point x="217" y="83" type="curve" smooth="yes"/>
      <point x="206" y="81"/>
      <point x="203" y="77"/>
      <point x="201" y="66" type="curve"/>
      <point x="201" y="50"/>
      <point x="200" y="24"/>
      <point x="199" y="14" type="curve" smooth="yes"/>
      <point x="198" y="7"/>
      <point x="195" y="4"/>
      <point x="185" y="0" type="curve" smooth="yes"/>
      <point x="180" y="-3"/>
      <point x="168" y="-4"/>
      <point x="163" y="-4" type="curve" smooth="yes"/>
      <point x="157" y="-4"/>
      <point x="155" y="1"/>
      <point x="155" y="10" type="curve" smooth="yes"/>
      <point x="155" y="24"/>
      <point x="154" y="43"/>
      <point x="153" y="57" type="curve" smooth="yes"/>
      <point x="152" y="68"/>
      <point x="145" y="73"/>
      <point x="134" y="74" type="curve" smooth="yes"/>
      <point x="42" y="79"/>
      <point x="25" y="103"/>
      <point x="25" y="141" type="curve" smooth="yes"/>
      <point x="25" y="172"/>
      <point x="54" y="207"/>
      <point x="83" y="221" type="curve" smooth="yes"/>
      <point x="97" y="228"/>
      <point x="106" y="226"/>
      <point x="110" y="223" type="curve" smooth="yes"/>
      <point x="119" y="216"/>
      <point x="119" y="203"/>
      <point x="115" y="199" type="curve" smooth="yes"/>
      <point x="103" y="187"/>
      <point x="100" y="173"/>
      <point x="100" y="160" type="curve" smooth="yes"/>
      <point x="100" y="129"/>
      <point x="127" y="114"/>
      <point x="162" y="114" type="curve" smooth="yes"/>
      <point x="200" y="114"/>
      <point x="260" y="128"/>
      <point x="260" y="187" type="curve" smooth="yes"/>
      <point x="260" y="220"/>
      <point x="238" y="236"/>
      <point x="204" y="252" type="curve"/>
      <point x="173" y="268"/>
      <point x="143" y="282"/>
      <point x="121" y="290" type="curve" smooth="yes"/>
      <point x="74" y="309"/>
      <point x="47" y="345"/>
      <point x="47" y="393" type="curve" smooth="yes"/>
      <point x="46" y="467"/>
      <point x="112" y="510"/>
      <point x="146" y="517" type="curve" smooth="yes"/>
      <point x="156" y="519"/>
      <point x="161" y="525"/>
    </contour>
  </outline>
</glyph>
<glyph name="percent" format="1">
  <advance width="895"/>
  <unicode hex="0025"/>
  <outline>
    <contour>
      <point x="201" y="256" type="curve" smooth="yes"/>
      <point x="99" y="256"/>
      <point x="42" y="318"/>
      <point x="42" y="422" type="curve" smooth="yes"/>
      <point x="42" y="499"/>
      <point x="109" y="607"/>
      <point x="241" y="607" type="curve" smooth="yes"/>
      <point x="336" y="607"/>
      <point x="395" y="543"/>
      <point x="395" y="465" type="curve" smooth="yes"/>
      <point x="395" y="321"/>
      <point x="297" y="256"/>
    </contour>
    <contour>
      <point x="226" y="563" type="curve" smooth="yes"/>
      <point x="157" y="563"/>
      <point x="131" y="508"/>
      <point x="131" y="435" type="curve" smooth="yes"/>
      <point x="131" y="355"/>
      <point x="154" y="301"/>
      <point x="215" y="301" type="curve" smooth="yes"/>
      <point x="267" y="301"/>
      <point x="304" y="332"/>
      <point x="304" y="454" type="curve" smooth="yes"/>
      <point x="304" y="524"/>
      <point x="282" y="563"/>
    </contour>
    <contour>
      <point x="664" y="-13" type="curve" smooth="yes"/>
      <point x="562" y="-13"/>
      <point x="505" y="49"/>
      <point x="505" y="152" type="curve" smooth="yes"/>
      <point x="505" y="230"/>
      <point x="572" y="338"/>
      <point x="704" y="338" type="curve" smooth="yes"/>
      <point x="799" y="338"/>
      <point x="858" y="274"/>
      <point x="858" y="195" type="curve" smooth="yes"/>
      <point x="858" y="51"/>
      <point x="760" y="-13"/>
    </contour>
    <contour>
      <point x="689" y="294" type="curve" smooth="yes"/>
      <point x="620" y="294"/>
      <point x="593" y="239"/>
      <point x="593" y="166" type="curve" smooth="yes"/>
      <point x="593" y="86"/>
      <point x="617" y="31"/>
      <point x="678" y="31" type="curve" smooth="yes"/>
      <point x="730" y="31"/>
      <point x="768" y="62"/>
      <point x="768" y="184" type="curve" smooth="yes"/>
      <point x="768" y="255"/>
      <point x="745" y="294"/>
    </contour>
    <contour>
      <point x="252" y="-35" type="curve"/>
      <point x="231" y="-31"/>
      <point x="239" y="-15"/>
      <point x="268" y="29" type="curve"/>
      <point x="315" y="106"/>
      <point x="508" y="450"/>
      <point x="548" y="527" type="curve"/>
      <point x="560" y="546"/>
      <point x="569" y="582"/>
      <point x="577" y="603" type="curve" smooth="yes"/>
      <point x="582" y="617"/>
      <point x="604" y="615"/>
      <point x="610" y="606" type="curve"/>
      <point x="618" y="597"/>
      <point x="612" y="562"/>
      <point x="609" y="541" type="curve" smooth="yes"/>
      <point x="604" y="514"/>
      <point x="598" y="502"/>
      <point x="584" y="480" type="curve" smooth="yes"/>
      <point x="551" y="428"/>
      <point x="364" y="102"/>
      <point x="305" y="6" type="curve"/>
      <point x="281" y="-31"/>
      <point x="263" y="-36"/>
    </contour>
  </outline>
</glyph>
<glyph name="ampersand" format="1">
  <advance width="747"/>
  <unicode hex="0026"/>
  <outline>
    <contour>
      <point x="47" y="140" type="curve" smooth="yes"/>
      <point x="47" y="231"/>
      <point x="107" y="285"/>
      <point x="186" y="327" type="curve" smooth="yes"/>
      <point x="195" y="332"/>
      <point x="205" y="338"/>
      <point x="195" y="358" type="curve"/>
      <point x="186" y="383"/>
      <point x="178" y="418"/>
      <point x="178" y="442" type="curve" smooth="yes"/>
      <point x="178" y="545"/>
      <point x="276" y="605"/>
      <point x="343" y="605" type="curve" smooth="yes"/>
      <point x="418" y="605"/>
      <point x="481" y="584"/>
      <point x="481" y="507" type="curve" smooth="yes"/>
      <point x="481" y="455"/>
      <point x="435" y="410"/>
      <point x="382" y="380" type="curve"/>
      <point x="362" y="370"/>
      <point x="349" y="371"/>
      <point x="343" y="376" type="curve" smooth="yes"/>
      <point x="331" y="386"/>
      <point x="356" y="410"/>
      <point x="362" y="416" type="curve" smooth="yes"/>
      <point x="381" y="435"/>
      <point x="386" y="460"/>
      <point x="386" y="501" type="curve" smooth="yes"/>
      <point x="386" y="531"/>
      <point x="363" y="558"/>
      <point x="337" y="558" type="curve" smooth="yes"/>
      <point x="275" y="558"/>
      <point x="271" y="502"/>
      <point x="271" y="467" type="curve" smooth="yes"/>
      <point x="272" y="339"/>
      <point x="403" y="225"/>
      <point x="455" y="176" type="curve"/>
      <point x="468" y="162"/>
      <point x="477" y="162"/>
      <point x="492" y="177" type="curve"/>
      <point x="527" y="216"/>
      <point x="561" y="291"/>
      <point x="531" y="321" type="curve" smooth="yes"/>
      <point x="519" y="332"/>
      <point x="490" y="329"/>
      <point x="474" y="321" type="curve" smooth="yes"/>
      <point x="460" y="313"/>
      <point x="456" y="315"/>
      <point x="448" y="323" type="curve" smooth="yes"/>
      <point x="442" y="329"/>
      <point x="442" y="338"/>
      <point x="453" y="348" type="curve"/>
      <point x="475" y="372"/>
      <point x="519" y="399"/>
      <point x="550" y="399" type="curve" smooth="yes"/>
      <point x="601" y="399"/>
      <point x="626" y="354"/>
      <point x="626" y="322" type="curve" smooth="yes"/>
      <point x="626" y="254"/>
      <point x="539" y="167"/>
      <point x="516" y="146" type="curve" smooth="yes"/>
      <point x="507" y="137"/>
      <point x="519" y="125"/>
      <point x="539" y="113" type="curve" smooth="yes"/>
      <point x="569" y="94"/>
      <point x="604" y="73"/>
      <point x="661" y="73" type="curve" smooth="yes"/>
      <point x="691" y="73"/>
      <point x="700" y="82"/>
      <point x="712" y="91" type="curve" smooth="yes"/>
      <point x="722" y="99"/>
      <point x="738" y="102"/>
      <point x="745" y="98" type="curve" smooth="yes"/>
      <point x="758" y="89"/>
      <point x="749" y="73"/>
      <point x="745" y="67" type="curve" smooth="yes"/>
      <point x="715" y="27"/>
      <point x="695" y="-12"/>
      <point x="622" y="-12" type="curve" smooth="yes"/>
      <point x="575" y="-12"/>
      <point x="498" y="17"/>
      <point x="462" y="42" type="curve" smooth="yes"/>
      <point x="449" y="51"/>
      <point x="436" y="53"/>
      <point x="426" y="45" type="curve" smooth="yes"/>
      <point x="389" y="16"/>
      <point x="319" y="-13"/>
      <point x="238" y="-13" type="curve" smooth="yes"/>
      <point x="72" y="-13"/>
      <point x="47" y="85"/>
    </contour>
    <contour>
      <point x="197" y="286" type="curve" smooth="yes"/>
      <point x="158" y="263"/>
      <point x="146" y="210"/>
      <point x="146" y="159" type="curve" smooth="yes"/>
      <point x="146" y="93"/>
      <point x="195" y="40"/>
      <point x="282" y="40" type="curve" smooth="yes"/>
      <point x="326" y="40"/>
      <point x="361" y="48"/>
      <point x="391" y="73" type="curve"/>
      <point x="405" y="83"/>
      <point x="402" y="92"/>
      <point x="396" y="97" type="curve" smooth="yes"/>
      <point x="336" y="146"/>
      <point x="272" y="220"/>
      <point x="236" y="280" type="curve" smooth="yes"/>
      <point x="226" y="295"/>
      <point x="216" y="298"/>
    </contour>
  </outline>
</glyph>
<glyph name="quotesingle" format="1">
  <advance width="133"/>
  <unicode hex="0027"/>
  <outline>
    <contour>
      <point x="98" y="598" type="curve" smooth="yes"/>
      <point x="118" y="598"/>
      <point x="124" y="586"/>
      <point x="118" y="566" type="curve" smooth="yes"/>
      <point x="104" y="517"/>
      <point x="91" y="459"/>
      <point x="87" y="405" type="curve" smooth="yes"/>
      <point x="85" y="386"/>
      <point x="77" y="376"/>
      <point x="67" y="376" type="curve" smooth="yes"/>
      <point x="58" y="376"/>
      <point x="50" y="384"/>
      <point x="49" y="405" type="curve" smooth="yes"/>
      <point x="45" y="448"/>
      <point x="28" y="515"/>
      <point x="15" y="561" type="curve" smooth="yes"/>
      <point x="8" y="589"/>
      <point x="21" y="590"/>
      <point x="35" y="593" type="curve" smooth="yes"/>
      <point x="51" y="597"/>
      <point x="88" y="598"/>
    </contour>
  </outline>
</glyph>
<glyph name="parenleft" format="1">
  <advance width="286"/>
  <unicode hex="0028"/>
  <outline>
    <contour>
      <point x="221" y="628" type="curve" smooth="yes"/>
      <point x="227" y="620"/>
      <point x="221" y="599"/>
      <point x="208" y="578" type="curve"/>
      <point x="176" y="531"/>
      <point x="130" y="417"/>
      <point x="130" y="289" type="curve" smooth="yes"/>
      <point x="130" y="163"/>
      <point x="164" y="52"/>
      <point x="219" y="-26" type="curve" smooth="yes"/>
      <point x="225" y="-36"/>
      <point x="231" y="-56"/>
      <point x="223" y="-64" type="curve" smooth="yes"/>
      <point x="214" y="-73"/>
      <point x="198" y="-65"/>
      <point x="180" y="-51" type="curve" smooth="yes"/>
      <point x="105" y="8"/>
      <point x="42" y="115"/>
      <point x="42" y="289" type="curve" smooth="yes"/>
      <point x="42" y="423"/>
      <point x="130" y="568"/>
      <point x="181" y="617" type="curve" smooth="yes"/>
      <point x="194" y="630"/>
      <point x="210" y="641"/>
    </contour>
  </outline>
</glyph>
<glyph name="parenright" format="1">
  <advance width="290"/>
  <unicode hex="0029"/>
  <outline>
    <contour>
      <point x="62" y="-61" type="curve"/>
      <point x="56" y="-52"/>
      <point x="63" y="-32"/>
      <point x="76" y="-11" type="curve"/>
      <point x="108" y="36"/>
      <point x="153" y="151"/>
      <point x="153" y="279" type="curve" smooth="yes"/>
      <point x="153" y="404"/>
      <point x="120" y="515"/>
      <point x="65" y="593" type="curve"/>
      <point x="59" y="604"/>
      <point x="52" y="624"/>
      <point x="61" y="631" type="curve"/>
      <point x="70" y="641"/>
      <point x="86" y="632"/>
      <point x="104" y="619" type="curve"/>
      <point x="178" y="560"/>
      <point x="242" y="452"/>
      <point x="242" y="279" type="curve" smooth="yes"/>
      <point x="242" y="144"/>
      <point x="154" y="-1"/>
      <point x="103" y="-50" type="curve"/>
      <point x="89" y="-62"/>
      <point x="74" y="-74"/>
    </contour>
  </outline>
</glyph>
<glyph name="asterisk" format="1">
  <advance width="421"/>
  <unicode hex="002A"/>
  <outline>
    <contour>
      <point x="233" y="534" type="curve" smooth="yes"/>
      <point x="231" y="519"/>
      <point x="223" y="495"/>
      <point x="221" y="471" type="curve" smooth="yes"/>
      <point x="219" y="458"/>
      <point x="226" y="455"/>
      <point x="237" y="460" type="curve" smooth="yes"/>
      <point x="270" y="473"/>
      <point x="314" y="497"/>
      <point x="338" y="516" type="curve" smooth="yes"/>
      <point x="371" y="542"/>
      <point x="378" y="512"/>
      <point x="375" y="483" type="curve"/>
      <point x="371" y="456"/>
      <point x="354" y="439"/>
      <point x="320" y="431" type="curve" smooth="yes"/>
      <point x="305" y="427"/>
      <point x="280" y="422"/>
      <point x="255" y="415" type="curve" smooth="yes"/>
      <point x="247" y="412"/>
      <point x="242" y="406"/>
      <point x="249" y="396" type="curve" smooth="yes"/>
      <point x="272" y="366"/>
      <point x="308" y="332"/>
      <point x="332" y="314" type="curve" smooth="yes"/>
      <point x="366" y="290"/>
      <point x="337" y="274"/>
      <point x="310" y="270" type="curve"/>
      <point x="284" y="265"/>
      <point x="260" y="280"/>
      <point x="241" y="308" type="curve" smooth="yes"/>
      <point x="231" y="321"/>
      <point x="215" y="348"/>
      <point x="203" y="370" type="curve" smooth="yes"/>
      <point x="196" y="381"/>
      <point x="189" y="377"/>
      <point x="181" y="371" type="curve" smooth="yes"/>
      <point x="155" y="348"/>
      <point x="118" y="305"/>
      <point x="99" y="276" type="curve"/>
      <point x="77" y="240"/>
      <point x="57" y="263"/>
      <point x="51" y="291" type="curve" smooth="yes"/>
      <point x="44" y="319"/>
      <point x="52" y="337"/>
      <point x="80" y="358" type="curve" smooth="yes"/>
      <point x="93" y="368"/>
      <point x="120" y="385"/>
      <point x="143" y="399" type="curve"/>
      <point x="154" y="407"/>
      <point x="148" y="416"/>
      <point x="141" y="419" type="curve" smooth="yes"/>
      <point x="107" y="436"/>
      <point x="64" y="447"/>
      <point x="28" y="452" type="curve" smooth="yes"/>
      <point x="-13" y="457"/>
      <point x="4" y="479"/>
      <point x="25" y="496" type="curve" smooth="yes"/>
      <point x="47" y="513"/>
      <point x="67" y="519"/>
      <point x="98" y="503" type="curve" smooth="yes"/>
      <point x="112" y="496"/>
      <point x="134" y="480"/>
      <point x="155" y="463" type="curve"/>
      <point x="163" y="458"/>
      <point x="174" y="463"/>
      <point x="174" y="477" type="curve" smooth="yes"/>
      <point x="174" y="513"/>
      <point x="166" y="556"/>
      <point x="158" y="584" type="curve" smooth="yes"/>
      <point x="146" y="624"/>
      <point x="181" y="615"/>
      <point x="206" y="602" type="curve" smooth="yes"/>
      <point x="231" y="588"/>
      <point x="236" y="569"/>
    </contour>
  </outline>
</glyph>
<glyph name="plus" format="1">
  <advance width="421"/>
  <unicode hex="002B"/>
  <outline>
    <contour>
      <point x="48" y="253" type="line" smooth="yes"/>
      <point x="27" y="253"/>
      <point x="15" y="261"/>
      <point x="24" y="276" type="curve" smooth="yes"/>
      <point x="33" y="290"/>
      <point x="44" y="298"/>
      <point x="65" y="298" type="curve" smooth="yes"/>
      <point x="172" y="301" type="line" smooth="yes"/>
      <point x="186" y="301"/>
      <point x="189" y="305"/>
      <point x="189" y="320" type="curve" smooth="yes"/>
      <point x="192" y="422" type="line" smooth="yes"/>
      <point x="192" y="443"/>
      <point x="198" y="457"/>
      <point x="212" y="462" type="curve" smooth="yes"/>
      <point x="232" y="470"/>
      <point x="240" y="459"/>
      <point x="240" y="439" type="curve" smooth="yes"/>
      <point x="240" y="418"/>
      <point x="239" y="375"/>
      <point x="239" y="325" type="curve" smooth="yes"/>
      <point x="239" y="306"/>
      <point x="242" y="302"/>
      <point x="255" y="304" type="curve"/>
      <point x="286" y="306"/>
      <point x="310" y="309"/>
      <point x="347" y="312" type="curve" smooth="yes"/>
      <point x="372" y="315"/>
      <point x="391" y="322"/>
      <point x="391" y="302" type="curve" smooth="yes"/>
      <point x="391" y="296"/>
      <point x="380" y="271"/>
      <point x="363" y="262" type="curve"/>
      <point x="353" y="255"/>
      <point x="339" y="255"/>
      <point x="327" y="255" type="curve" smooth="yes"/>
      <point x="311" y="254"/>
      <point x="293" y="254"/>
      <point x="260" y="253" type="curve" smooth="yes"/>
      <point x="242" y="253"/>
      <point x="238" y="250"/>
      <point x="238" y="233" type="curve" smooth="yes"/>
      <point x="238" y="197"/>
      <point x="237" y="167"/>
      <point x="237" y="152" type="curve" smooth="yes"/>
      <point x="237" y="138"/>
      <point x="237" y="125"/>
      <point x="231" y="114" type="curve" smooth="yes"/>
      <point x="222" y="98"/>
      <point x="194" y="86"/>
      <point x="186" y="86" type="curve" smooth="yes"/>
      <point x="168" y="86"/>
      <point x="175" y="105"/>
      <point x="178" y="130" type="curve"/>
      <point x="181" y="169"/>
      <point x="184" y="201"/>
      <point x="186" y="236" type="curve"/>
      <point x="188" y="252"/>
      <point x="184" y="253"/>
      <point x="168" y="253" type="curve" smooth="yes"/>
    </contour>
  </outline>
</glyph>
<glyph name="comma" format="1">
  <advance width="218"/>
  <unicode hex="002C"/>
  <outline>
    <contour>
      <point x="67" y="-148" type="curve" smooth="yes"/>
      <point x="63" y="-145"/>
      <point x="58" y="-129"/>
      <point x="72" y="-110" type="curve" smooth="yes"/>
      <point x="98" y="-75"/>
      <point x="114" y="-20"/>
      <point x="102" y="-4" type="curve" smooth="yes"/>
      <point x="91" y="10"/>
      <point x="74" y="12"/>
      <point x="62" y="3" type="curve" smooth="yes"/>
      <point x="51" y="-6"/>
      <point x="40" y="-5"/>
      <point x="35" y="2" type="curve" smooth="yes"/>
      <point x="27" y="11"/>
      <point x="37" y="25"/>
      <point x="46" y="45" type="curve" smooth="yes"/>
      <point x="61" y="77"/>
      <point x="93" y="99"/>
      <point x="124" y="99" type="curve" smooth="yes"/>
      <point x="154" y="99"/>
      <point x="178" y="67"/>
      <point x="178" y="22" type="curve" smooth="yes"/>
      <point x="178" y="-22"/>
      <point x="150" y="-88"/>
      <point x="115" y="-128" type="curve"/>
      <point x="92" y="-156"/>
      <point x="75" y="-155"/>
    </contour>
  </outline>
</glyph>
<glyph name="hyphen" format="1">
  <advance width="348"/>
  <unicode hex="002D"/>
  <outline>
    <contour>
      <point x="79" y="296" type="curve"/>
      <point x="100" y="301"/>
      <point x="200" y="301"/>
      <point x="242" y="316" type="curve"/>
      <point x="283" y="332"/>
      <point x="276" y="303"/>
      <point x="264" y="277" type="curve" smooth="yes"/>
      <point x="252" y="249"/>
      <point x="231" y="239"/>
      <point x="194" y="238" type="curve" smooth="yes"/>
      <point x="166" y="237"/>
      <point x="97" y="237"/>
      <point x="71" y="237" type="curve" smooth="yes"/>
      <point x="47" y="237"/>
      <point x="40" y="245"/>
      <point x="46" y="265" type="curve" smooth="yes"/>
      <point x="51" y="281"/>
      <point x="63" y="291"/>
    </contour>
  </outline>
</glyph>
<glyph name="period" format="1">
  <advance width="227"/>
  <unicode hex="002E"/>
  <outline>
    <contour>
      <point x="119" y="94" type="curve" smooth="yes"/>
      <point x="150" y="94"/>
      <point x="177" y="79"/>
      <point x="177" y="53" type="curve" smooth="yes"/>
      <point x="177" y="12"/>
      <point x="139" y="-7"/>
      <point x="109" y="-7" type="curve" smooth="yes"/>
      <point x="59" y="-7"/>
      <point x="51" y="19"/>
      <point x="51" y="41" type="curve" smooth="yes"/>
      <point x="51" y="77"/>
      <point x="95" y="94"/>
    </contour>
  </outline>
</glyph>
<glyph name="slash" format="1">
  <advance width="449"/>
  <unicode hex="002F"/>
  <outline>
    <contour>
      <point x="49" y="-35" type="curve"/>
      <point x="28" y="-31"/>
      <point x="36" y="-15"/>
      <point x="65" y="29" type="curve"/>
      <point x="112" y="106"/>
      <point x="305" y="450"/>
      <point x="345" y="527" type="curve"/>
      <point x="357" y="546"/>
      <point x="366" y="582"/>
      <point x="374" y="603" type="curve" smooth="yes"/>
      <point x="380" y="617"/>
      <point x="402" y="615"/>
      <point x="407" y="606" type="curve"/>
      <point x="415" y="597"/>
      <point x="409" y="562"/>
      <point x="406" y="541" type="curve" smooth="yes"/>
      <point x="401" y="514"/>
      <point x="396" y="502"/>
      <point x="381" y="480" type="curve" smooth="yes"/>
      <point x="348" y="428"/>
      <point x="161" y="102"/>
      <point x="102" y="6" type="curve"/>
      <point x="78" y="-31"/>
      <point x="60" y="-36"/>
    </contour>
  </outline>
</glyph>
<glyph name="zero" format="1">
  <advance width="500"/>
  <unicode hex="0030"/>
  <outline>
    <contour>
      <point x="266" y="611" type="curve" smooth="yes"/>
      <point x="421" y="611"/>
      <point x="455" y="479"/>
      <point x="458" y="368" type="curve" smooth="yes"/>
      <point x="462" y="152"/>
      <point x="385" y="-19"/>
      <point x="239" y="-19" type="curve" smooth="yes"/>
      <point x="120" y="-19"/>
      <point x="45" y="83"/>
      <point x="44" y="234" type="curve" smooth="yes"/>
      <point x="43" y="523"/>
      <point x="182" y="611"/>
    </contour>
    <contour>
      <point x="145" y="291" type="curve"/>
      <point x="147" y="104"/>
      <point x="184" y="36"/>
      <point x="258" y="36" type="curve" smooth="yes"/>
      <point x="322" y="36"/>
      <point x="362" y="106"/>
      <point x="357" y="326" type="curve" smooth="yes"/>
      <point x="354" y="485"/>
      <point x="319" y="554"/>
      <point x="249" y="554" type="curve" smooth="yes"/>
      <point x="184" y="554"/>
      <point x="141" y="467"/>
    </contour>
  </outline>
</glyph>
<glyph name="one" format="1">
  <advance width="403"/>
  <unicode hex="0031"/>
  <outline>
    <contour>
      <point x="52" y="-3" type="curve" smooth="yes"/>
      <point x="37" y="-4"/>
      <point x="34" y="8"/>
      <point x="34" y="16" type="curve" smooth="yes"/>
      <point x="34" y="24"/>
      <point x="47" y="33"/>
      <point x="55" y="35" type="curve"/>
      <point x="135" y="41"/>
      <point x="160" y="53"/>
      <point x="164" y="139" type="curve" smooth="yes"/>
      <point x="167" y="189"/>
      <point x="170" y="366"/>
      <point x="168" y="469" type="curve" smooth="yes"/>
      <point x="167" y="484"/>
      <point x="162" y="490"/>
      <point x="145" y="481" type="curve" smooth="yes"/>
      <point x="120" y="467"/>
      <point x="108" y="459"/>
      <point x="88" y="444" type="curve" smooth="yes"/>
      <point x="69" y="430"/>
      <point x="55" y="434"/>
      <point x="47" y="443" type="curve"/>
      <point x="41" y="448"/>
      <point x="49" y="469"/>
      <point x="62" y="478" type="curve" smooth="yes"/>
      <point x="102" y="506"/>
      <point x="185" y="562"/>
      <point x="210" y="586" type="curve" smooth="yes"/>
      <point x="238" y="614"/>
      <point x="277" y="612"/>
      <point x="274" y="572" type="curve" smooth="yes"/>
      <point x="265" y="406"/>
      <point x="264" y="282"/>
      <point x="267" y="129" type="curve" smooth="yes"/>
      <point x="268" y="66"/>
      <point x="265" y="46"/>
      <point x="349" y="38" type="curve" smooth="yes"/>
      <point x="360" y="37"/>
      <point x="370" y="26"/>
      <point x="370" y="18" type="curve" smooth="yes"/>
      <point x="370" y="8"/>
      <point x="364" y="-4"/>
      <point x="343" y="-2" type="curve" smooth="yes"/>
      <point x="270" y="5"/>
      <point x="92" y="0"/>
    </contour>
  </outline>
</glyph>
<glyph name="two" format="1">
  <advance width="514"/>
  <unicode hex="0032"/>
  <outline>
    <contour>
      <point x="54" y="48" type="curve" smooth="yes"/>
      <point x="136" y="125"/>
      <point x="220" y="195"/>
      <point x="301" y="304" type="curve" smooth="yes"/>
      <point x="332" y="346"/>
      <point x="351" y="380"/>
      <point x="351" y="432" type="curve" smooth="yes"/>
      <point x="351" y="504"/>
      <point x="306" y="500"/>
      <point x="273" y="500" type="curve" smooth="yes"/>
      <point x="262" y="500"/>
      <point x="227" y="492"/>
      <point x="208" y="486" type="curve" smooth="yes"/>
      <point x="189" y="479"/>
      <point x="166" y="473"/>
      <point x="137" y="473" type="curve" smooth="yes"/>
      <point x="98" y="473"/>
      <point x="76" y="504"/>
      <point x="81" y="537" type="curve"/>
      <point x="82" y="556"/>
      <point x="90" y="586"/>
      <point x="100" y="604" type="curve" smooth="yes"/>
      <point x="106" y="614"/>
      <point x="115" y="621"/>
      <point x="123" y="621" type="curve" smooth="yes"/>
      <point x="132" y="621"/>
      <point x="139" y="613"/>
      <point x="145" y="599" type="curve" smooth="yes"/>
      <point x="148" y="590"/>
      <point x="167" y="583"/>
      <point x="189" y="583" type="curve" smooth="yes"/>
      <point x="233" y="583"/>
      <point x="235" y="601"/>
      <point x="311" y="601" type="curve" smooth="yes"/>
      <point x="384" y="601"/>
      <point x="426" y="577"/>
      <point x="427" y="492" type="curve" smooth="yes"/>
      <point x="428" y="424"/>
      <point x="405" y="370"/>
      <point x="377" y="328" type="curve" smooth="yes"/>
      <point x="336" y="267"/>
      <point x="262" y="196"/>
      <point x="193" y="123" type="curve" smooth="yes"/>
      <point x="176" y="104"/>
      <point x="181" y="98"/>
      <point x="194" y="97" type="curve" smooth="yes"/>
      <point x="228" y="93"/>
      <point x="343" y="94"/>
      <point x="364" y="97" type="curve" smooth="yes"/>
      <point x="403" y="102"/>
      <point x="432" y="126"/>
      <point x="438" y="168" type="curve" smooth="yes"/>
      <point x="439" y="178"/>
      <point x="447" y="189"/>
      <point x="455" y="189" type="curve" smooth="yes"/>
      <point x="461" y="189"/>
      <point x="472" y="179"/>
      <point x="472" y="164" type="curve" smooth="yes"/>
      <point x="472" y="114"/>
      <point x="454" y="49"/>
      <point x="426" y="19" type="curve" smooth="yes"/>
      <point x="420" y="13"/>
      <point x="398" y="-6"/>
      <point x="374" y="-4" type="curve" smooth="yes"/>
      <point x="289" y="5"/>
      <point x="146" y="3"/>
      <point x="53" y="-3" type="curve"/>
      <point x="34" y="-3"/>
      <point x="42" y="37"/>
    </contour>
  </outline>
</glyph>
<glyph name="three" format="1">
  <advance width="441"/>
  <unicode hex="0033"/>
  <outline>
    <contour>
      <point x="110" y="624" type="curve" smooth="yes"/>
      <point x="120" y="624"/>
      <point x="126" y="617"/>
      <point x="130" y="609" type="curve" smooth="yes"/>
      <point x="137" y="593"/>
      <point x="149" y="584"/>
      <point x="173" y="586" type="curve"/>
      <point x="218" y="586"/>
      <point x="240" y="601"/>
      <point x="280" y="600" type="curve" smooth="yes"/>
      <point x="316" y="599"/>
      <point x="370" y="588"/>
      <point x="370" y="529" type="curve" smooth="yes"/>
      <point x="370" y="461"/>
      <point x="325" y="421"/>
      <point x="278" y="389" type="curve" smooth="yes"/>
      <point x="259" y="376"/>
      <point x="263" y="366"/>
      <point x="279" y="364" type="curve" smooth="yes"/>
      <point x="322" y="358"/>
      <point x="407" y="323"/>
      <point x="407" y="193" type="curve" smooth="yes"/>
      <point x="407" y="118"/>
      <point x="343" y="-12"/>
      <point x="187" y="-12" type="curve" smooth="yes"/>
      <point x="128" y="-12"/>
      <point x="39" y="-4"/>
      <point x="39" y="72" type="curve" smooth="yes"/>
      <point x="39" y="112"/>
      <point x="94" y="149"/>
      <point x="128" y="162" type="curve" smooth="yes"/>
      <point x="137" y="165"/>
      <point x="146" y="164"/>
      <point x="151" y="154" type="curve" smooth="yes"/>
      <point x="155" y="146"/>
      <point x="146" y="134"/>
      <point x="141" y="128" type="curve" smooth="yes"/>
      <point x="109" y="91"/>
      <point x="136" y="41"/>
      <point x="216" y="41" type="curve" smooth="yes"/>
      <point x="281" y="41"/>
      <point x="326" y="90"/>
      <point x="326" y="161" type="curve" smooth="yes"/>
      <point x="326" y="276"/>
      <point x="212" y="301"/>
      <point x="153" y="301" type="curve" smooth="yes"/>
      <point x="139" y="301"/>
      <point x="124" y="311"/>
      <point x="124" y="322" type="curve" smooth="yes"/>
      <point x="124" y="333"/>
      <point x="135" y="340"/>
      <point x="148" y="346" type="curve"/>
      <point x="193" y="362"/>
      <point x="279" y="418"/>
      <point x="279" y="471" type="curve" smooth="yes"/>
      <point x="279" y="530"/>
      <point x="197" y="501"/>
      <point x="172" y="493" type="curve" smooth="yes"/>
      <point x="98" y="472"/>
      <point x="63" y="503"/>
      <point x="69" y="556" type="curve" smooth="yes"/>
      <point x="71" y="570"/>
      <point x="79" y="592"/>
      <point x="86" y="604" type="curve" smooth="yes"/>
      <point x="92" y="615"/>
      <point x="103" y="624"/>
    </contour>
  </outline>
</glyph>
<glyph name="four" format="1">
  <advance width="516"/>
  <unicode hex="0034"/>
  <outline>
    <contour>
      <point x="54" y="183" type="curve" smooth="yes"/>
      <point x="37" y="183"/>
      <point x="31" y="186"/>
      <point x="33" y="200" type="curve"/>
      <point x="36" y="213"/>
      <point x="48" y="237"/>
      <point x="55" y="245" type="curve" smooth="yes"/>
      <point x="148" y="350"/>
      <point x="189" y="412"/>
      <point x="258" y="508" type="curve" smooth="yes"/>
      <point x="274" y="529"/>
      <point x="284" y="549"/>
      <point x="286" y="570" type="curve" smooth="yes"/>
      <point x="288" y="587"/>
      <point x="301" y="593"/>
      <point x="314" y="595" type="curve" smooth="yes"/>
      <point x="336" y="600"/>
      <point x="356" y="599"/>
      <point x="374" y="598" type="curve" smooth="yes"/>
      <point x="383" y="598"/>
      <point x="384" y="585"/>
      <point x="383" y="575" type="curve"/>
      <point x="383" y="596"/>
      <point x="374" y="318"/>
      <point x="374" y="270" type="curve" smooth="yes"/>
      <point x="374" y="263"/>
      <point x="374" y="255"/>
      <point x="392" y="255" type="curve" smooth="yes"/>
      <point x="418" y="255"/>
      <point x="428" y="265"/>
      <point x="437" y="274" type="curve" smooth="yes"/>
      <point x="447" y="285"/>
      <point x="459" y="286"/>
      <point x="464" y="283" type="curve"/>
      <point x="468" y="279"/>
      <point x="476" y="273"/>
      <point x="471" y="263" type="curve"/>
      <point x="458" y="242"/>
      <point x="440" y="210"/>
      <point x="428" y="197" type="curve" smooth="yes"/>
      <point x="420" y="189"/>
      <point x="411" y="181"/>
      <point x="384" y="181" type="curve" smooth="yes"/>
      <point x="374" y="181"/>
      <point x="370" y="162"/>
      <point x="370" y="142" type="curve" smooth="yes"/>
      <point x="370" y="122"/>
      <point x="370" y="107"/>
      <point x="374" y="82" type="curve" smooth="yes"/>
      <point x="376" y="66"/>
      <point x="376" y="61"/>
      <point x="383" y="33" type="curve" smooth="yes"/>
      <point x="388" y="14"/>
      <point x="378" y="7"/>
      <point x="374" y="4" type="curve" smooth="yes"/>
      <point x="348" y="-19"/>
      <point x="313" y="-31"/>
      <point x="290" y="-35" type="curve" smooth="yes"/>
      <point x="268" y="-38"/>
      <point x="267" y="-23"/>
      <point x="267" y="4" type="curve" smooth="yes"/>
      <point x="267" y="16"/>
      <point x="274" y="48"/>
      <point x="276" y="65" type="curve" smooth="yes"/>
      <point x="280" y="109"/>
      <point x="279" y="120"/>
      <point x="279" y="162" type="curve" smooth="yes"/>
      <point x="279" y="185"/>
      <point x="271" y="189"/>
      <point x="259" y="189" type="curve" smooth="yes"/>
      <point x="217" y="189"/>
      <point x="146" y="183"/>
    </contour>
    <contour>
      <point x="269" y="257" type="curve" smooth="yes"/>
      <point x="278" y="259"/>
      <point x="284" y="263"/>
      <point x="285" y="279" type="curve" smooth="yes"/>
      <point x="288" y="349"/>
      <point x="290" y="381"/>
      <point x="287" y="431" type="curve" smooth="yes"/>
      <point x="286" y="444"/>
      <point x="286" y="453"/>
      <point x="277" y="453" type="curve" smooth="yes"/>
      <point x="270" y="453"/>
      <point x="265" y="448"/>
      <point x="256" y="435" type="curve" smooth="yes"/>
      <point x="204" y="368"/>
      <point x="178" y="335"/>
      <point x="138" y="281" type="curve" smooth="yes"/>
      <point x="125" y="265"/>
      <point x="125" y="254"/>
      <point x="149" y="254" type="curve" smooth="yes"/>
      <point x="165" y="254"/>
      <point x="247" y="251"/>
    </contour>
  </outline>
</glyph>
<glyph name="five" format="1">
  <advance width="453"/>
  <unicode hex="0035"/>
  <outline>
    <contour>
      <point x="407" y="604" type="curve" smooth="yes"/>
      <point x="401" y="576"/>
      <point x="386" y="536"/>
      <point x="369" y="513" type="curve"/>
      <point x="354" y="496"/>
      <point x="329" y="489"/>
      <point x="322" y="489" type="curve" smooth="yes"/>
      <point x="254" y="489"/>
      <point x="232" y="511"/>
      <point x="173" y="509" type="curve" smooth="yes"/>
      <point x="164" y="509"/>
      <point x="157" y="504"/>
      <point x="148" y="490" type="curve"/>
      <point x="145" y="483"/>
      <point x="136" y="467"/>
      <point x="134" y="454" type="curve" smooth="yes"/>
      <point x="130" y="434"/>
      <point x="127" y="423"/>
      <point x="142" y="420" type="curve" smooth="yes"/>
      <point x="191" y="412"/>
      <point x="237" y="401"/>
      <point x="273" y="390" type="curve" smooth="yes"/>
      <point x="352" y="365"/>
      <point x="409" y="320"/>
      <point x="411" y="212" type="curve"/>
      <point x="411" y="94"/>
      <point x="323" y="-8"/>
      <point x="176" y="-8" type="curve" smooth="yes"/>
      <point x="68" y="-8"/>
      <point x="42" y="39"/>
      <point x="42" y="77" type="curve" smooth="yes"/>
      <point x="42" y="126"/>
      <point x="89" y="163"/>
      <point x="104" y="171" type="curve" smooth="yes"/>
      <point x="117" y="178"/>
      <point x="143" y="185"/>
      <point x="152" y="177" type="curve"/>
      <point x="161" y="171"/>
      <point x="162" y="155"/>
      <point x="152" y="148" type="curve" smooth="yes"/>
      <point x="136" y="135"/>
      <point x="132" y="114"/>
      <point x="132" y="94" type="curve" smooth="yes"/>
      <point x="132" y="65"/>
      <point x="155" y="46"/>
      <point x="215" y="46" type="curve" smooth="yes"/>
      <point x="285" y="46"/>
      <point x="332" y="94"/>
      <point x="332" y="165" type="curve" smooth="yes"/>
      <point x="332" y="232"/>
      <point x="312" y="263"/>
      <point x="273" y="282" type="curve" smooth="yes"/>
      <point x="221" y="307"/>
      <point x="154" y="328"/>
      <point x="73" y="338" type="curve" smooth="yes"/>
      <point x="61" y="339"/>
      <point x="46" y="341"/>
      <point x="57" y="370" type="curve"/>
      <point x="86" y="439"/>
      <point x="113" y="518"/>
      <point x="133" y="581" type="curve" smooth="yes"/>
      <point x="140" y="600"/>
      <point x="146" y="601"/>
      <point x="162" y="600" type="curve"/>
      <point x="208" y="593"/>
      <point x="289" y="589"/>
      <point x="316" y="589" type="curve" smooth="yes"/>
      <point x="333" y="589"/>
      <point x="359" y="593"/>
      <point x="372" y="609" type="curve" smooth="yes"/>
      <point x="391" y="633"/>
      <point x="412" y="624"/>
    </contour>
  </outline>
</glyph>
<glyph name="six" format="1">
  <advance width="481"/>
  <unicode hex="0036"/>
  <outline>
    <contour>
      <point x="191" y="333" type="curve"/>
      <point x="191" y="342"/>
      <point x="194" y="347"/>
      <point x="210" y="356" type="curve" smooth="yes"/>
      <point x="233" y="370"/>
      <point x="267" y="385"/>
      <point x="304" y="385" type="curve" smooth="yes"/>
      <point x="380" y="385"/>
      <point x="439" y="330"/>
      <point x="439" y="238" type="curve"/>
      <point x="436" y="83"/>
      <point x="335" y="-15"/>
      <point x="221" y="-15" type="curve" smooth="yes"/>
      <point x="92" y="-15"/>
      <point x="42" y="82"/>
      <point x="42" y="177" type="curve" smooth="yes"/>
      <point x="42" y="366"/>
      <point x="141" y="514"/>
      <point x="263" y="607" type="curve" smooth="yes"/>
      <point x="274" y="615"/>
      <point x="293" y="622"/>
      <point x="301" y="612" type="curve" smooth="yes"/>
      <point x="307" y="604"/>
      <point x="303" y="587"/>
      <point x="290" y="577" type="curve"/>
      <point x="203" y="498"/>
      <point x="141" y="380"/>
      <point x="141" y="209" type="curve" smooth="yes"/>
      <point x="141" y="111"/>
      <point x="163" y="33"/>
      <point x="243" y="33" type="curve" smooth="yes"/>
      <point x="290" y="33"/>
      <point x="339" y="88"/>
      <point x="339" y="205" type="curve" smooth="yes"/>
      <point x="339" y="306"/>
      <point x="315" y="332"/>
      <point x="267" y="332" type="curve" smooth="yes"/>
      <point x="256" y="332"/>
      <point x="233" y="329"/>
      <point x="216" y="322" type="curve"/>
      <point x="202" y="315"/>
      <point x="195" y="322"/>
    </contour>
  </outline>
</glyph>
<glyph name="seven" format="1">
  <advance width="411"/>
  <unicode hex="0037"/>
  <outline>
    <contour>
      <point x="83" y="620" type="curve" smooth="yes"/>
      <point x="94" y="620"/>
      <point x="96" y="614"/>
      <point x="98" y="604" type="curve" smooth="yes"/>
      <point x="102" y="577"/>
      <point x="123" y="574"/>
      <point x="152" y="574" type="curve" smooth="yes"/>
      <point x="207" y="574"/>
      <point x="291" y="582"/>
      <point x="347" y="596" type="curve" smooth="yes"/>
      <point x="367" y="601"/>
      <point x="382" y="607"/>
      <point x="393" y="604" type="curve" smooth="yes"/>
      <point x="400" y="603"/>
      <point x="409" y="589"/>
      <point x="401" y="579" type="curve"/>
      <point x="381" y="558"/>
      <point x="375" y="549"/>
      <point x="355" y="514" type="curve" smooth="yes"/>
      <point x="331" y="471"/>
      <point x="211" y="240"/>
      <point x="208" y="114" type="curve" smooth="yes"/>
      <point x="208" y="111"/>
      <point x="209" y="68"/>
      <point x="213" y="44" type="curve" smooth="yes"/>
      <point x="215" y="35"/>
      <point x="215" y="13"/>
      <point x="210" y="6" type="curve" smooth="yes"/>
      <point x="197" y="-10"/>
      <point x="147" y="-27"/>
      <point x="124" y="-29" type="curve" smooth="yes"/>
      <point x="98" y="-32"/>
      <point x="86" y="-21"/>
      <point x="86" y="2" type="curve" smooth="yes"/>
      <point x="85" y="82"/>
      <point x="207" y="338"/>
      <point x="293" y="479" type="curve" smooth="yes"/>
      <point x="305" y="497"/>
      <point x="308" y="514"/>
      <point x="285" y="507" type="curve" smooth="yes"/>
      <point x="253" y="497"/>
      <point x="197" y="470"/>
      <point x="125" y="470" type="curve" smooth="yes"/>
      <point x="64" y="470"/>
      <point x="33" y="494"/>
      <point x="37" y="524" type="curve"/>
      <point x="42" y="551"/>
      <point x="54" y="588"/>
      <point x="64" y="604" type="curve" smooth="yes"/>
      <point x="72" y="617"/>
      <point x="77" y="620"/>
    </contour>
  </outline>
</glyph>
<glyph name="eight" format="1">
  <advance width="507"/>
  <unicode hex="0038"/>
  <outline>
    <contour>
      <point x="236" y="-17" type="curve" smooth="yes"/>
      <point x="111" y="-17"/>
      <point x="42" y="35"/>
      <point x="42" y="117" type="curve" smooth="yes"/>
      <point x="42" y="208"/>
      <point x="95" y="257"/>
      <point x="158" y="301" type="curve" smooth="yes"/>
      <point x="173" y="311"/>
      <point x="171" y="324"/>
      <point x="160" y="330" type="curve" smooth="yes"/>
      <point x="115" y="356"/>
      <point x="70" y="391"/>
      <point x="70" y="453" type="curve" smooth="yes"/>
      <point x="70" y="535"/>
      <point x="167" y="606"/>
      <point x="259" y="606" type="curve" smooth="yes"/>
      <point x="380" y="606"/>
      <point x="422" y="561"/>
      <point x="422" y="491" type="curve" smooth="yes"/>
      <point x="422" y="439"/>
      <point x="399" y="406"/>
      <point x="354" y="375" type="curve" smooth="yes"/>
      <point x="335" y="362"/>
      <point x="345" y="352"/>
      <point x="356" y="347" type="curve" smooth="yes"/>
      <point x="405" y="326"/>
      <point x="465" y="285"/>
      <point x="465" y="188" type="curve" smooth="yes"/>
      <point x="465" y="94"/>
      <point x="384" y="-17"/>
    </contour>
    <contour>
      <point x="231" y="285" type="curve" smooth="yes"/>
      <point x="213" y="290"/>
      <point x="202" y="285"/>
      <point x="190" y="274" type="curve" smooth="yes"/>
      <point x="155" y="242"/>
      <point x="140" y="205"/>
      <point x="140" y="148" type="curve" smooth="yes"/>
      <point x="140" y="82"/>
      <point x="171" y="38"/>
      <point x="259" y="38" type="curve" smooth="yes"/>
      <point x="343" y="38"/>
      <point x="391" y="84"/>
      <point x="391" y="142" type="curve" smooth="yes"/>
      <point x="391" y="216"/>
      <point x="311" y="265"/>
    </contour>
    <contour>
      <point x="313" y="389" type="curve"/>
      <point x="332" y="407"/>
      <point x="342" y="442"/>
      <point x="342" y="467" type="curve" smooth="yes"/>
      <point x="342" y="520"/>
      <point x="315" y="556"/>
      <point x="237" y="556" type="curve" smooth="yes"/>
      <point x="177" y="556"/>
      <point x="150" y="514"/>
      <point x="150" y="483" type="curve"/>
      <point x="152" y="434"/>
      <point x="198" y="406"/>
      <point x="272" y="377" type="curve" smooth="yes"/>
      <point x="287" y="372"/>
      <point x="301" y="376"/>
    </contour>
  </outline>
</glyph>
<glyph name="nine" format="1">
  <advance width="461"/>
  <unicode hex="0039"/>
  <outline>
    <contour>
      <point x="286" y="263" type="curve" smooth="yes"/>
      <point x="286" y="254"/>
      <point x="283" y="246"/>
      <point x="268" y="237" type="curve" smooth="yes"/>
      <point x="244" y="222"/>
      <point x="213" y="208"/>
      <point x="176" y="208" type="curve" smooth="yes"/>
      <point x="99" y="208"/>
      <point x="41" y="263"/>
      <point x="41" y="354" type="curve"/>
      <point x="44" y="509"/>
      <point x="145" y="608"/>
      <point x="259" y="608" type="curve" smooth="yes"/>
      <point x="388" y="608"/>
      <point x="438" y="513"/>
      <point x="438" y="416" type="curve" smooth="yes"/>
      <point x="438" y="226"/>
      <point x="322" y="70"/>
      <point x="199" y="-14" type="curve"/>
      <point x="188" y="-23"/>
      <point x="169" y="-29"/>
      <point x="161" y="-19" type="curve" smooth="yes"/>
      <point x="155" y="-12"/>
      <point x="159" y="6"/>
      <point x="172" y="16" type="curve" smooth="yes"/>
      <point x="268" y="93"/>
      <point x="338" y="212"/>
      <point x="338" y="384" type="curve" smooth="yes"/>
      <point x="338" y="481"/>
      <point x="316" y="560"/>
      <point x="237" y="560" type="curve" smooth="yes"/>
      <point x="190" y="560"/>
      <point x="141" y="505"/>
      <point x="141" y="388" type="curve" smooth="yes"/>
      <point x="141" y="286"/>
      <point x="165" y="260"/>
      <point x="213" y="260" type="curve" smooth="yes"/>
      <point x="224" y="260"/>
      <point x="244" y="263"/>
      <point x="261" y="271" type="curve" smooth="yes"/>
      <point x="275" y="278"/>
      <point x="286" y="274"/>
    </contour>
  </outline>
</glyph>
<glyph name="colon" format="1">
  <advance width="227"/>
  <unicode hex="003A"/>
  <outline>
    <contour>
      <point x="119" y="94" type="curve" smooth="yes"/>
      <point x="150" y="94"/>
      <point x="177" y="79"/>
      <point x="177" y="53" type="curve" smooth="yes"/>
      <point x="177" y="12"/>
      <point x="139" y="-7"/>
      <point x="109" y="-7" type="curve" smooth="yes"/>
      <point x="59" y="-7"/>
      <point x="51" y="19"/>
      <point x="51" y="41" type="curve" smooth="yes"/>
      <point x="51" y="77"/>
      <point x="95" y="94"/>
    </contour>
    <contour>
      <point x="119" y="380" type="curve" smooth="yes"/>
      <point x="150" y="380"/>
      <point x="177" y="365"/>
      <point x="177" y="339" type="curve" smooth="yes"/>
      <point x="177" y="298"/>
      <point x="139" y="279"/>
      <point x="109" y="279" type="curve" smooth="yes"/>
      <point x="59" y="279"/>
      <point x="51" y="306"/>
      <point x="51" y="327" type="curve" smooth="yes"/>
      <point x="51" y="363"/>
      <point x="95" y="380"/>
    </contour>
  </outline>
</glyph>
<glyph name="semicolon" format="1">
  <advance width="218"/>
  <unicode hex="003B"/>
  <outline>
    <contour>
      <point x="67" y="-148" type="curve" smooth="yes"/>
      <point x="63" y="-145"/>
      <point x="58" y="-129"/>
      <point x="72" y="-110" type="curve" smooth="yes"/>
      <point x="98" y="-75"/>
      <point x="114" y="-20"/>
      <point x="102" y="-4" type="curve" smooth="yes"/>
      <point x="91" y="10"/>
      <point x="74" y="12"/>
      <point x="62" y="3" type="curve" smooth="yes"/>
      <point x="51" y="-6"/>
      <point x="40" y="-5"/>
      <point x="35" y="2" type="curve" smooth="yes"/>
      <point x="27" y="11"/>
      <point x="37" y="25"/>
      <point x="46" y="45" type="curve" smooth="yes"/>
      <point x="61" y="77"/>
      <point x="93" y="98"/>
      <point x="123" y="98" type="curve" smooth="yes"/>
      <point x="153" y="98"/>
      <point x="178" y="67"/>
      <point x="178" y="22" type="curve" smooth="yes"/>
      <point x="178" y="-22"/>
      <point x="146" y="-85"/>
      <point x="112" y="-125" type="curve" smooth="yes"/>
      <point x="88" y="-152"/>
      <point x="75" y="-155"/>
    </contour>
    <contour>
      <point x="114" y="380" type="curve" smooth="yes"/>
      <point x="146" y="380"/>
      <point x="173" y="365"/>
      <point x="173" y="339" type="curve" smooth="yes"/>
      <point x="173" y="298"/>
      <point x="135" y="279"/>
      <point x="104" y="279" type="curve" smooth="yes"/>
      <point x="55" y="279"/>
      <point x="46" y="306"/>
      <point x="46" y="327" type="curve" smooth="yes"/>
      <point x="46" y="363"/>
      <point x="91" y="380"/>
    </contour>
  </outline>
</glyph>
<glyph name="less" format="1">
  <advance width="354"/>
  <unicode hex="003C"/>
  <outline>
    <contour>
      <point x="66" y="243" type="curve" smooth="yes"/>
      <point x="111" y="270"/>
      <point x="218" y="334"/>
      <point x="249" y="355" type="curve" smooth="yes"/>
      <point x="255" y="359"/>
      <point x="276" y="380"/>
      <point x="284" y="387" type="curve"/>
      <point x="291" y="396"/>
      <point x="305" y="402"/>
      <point x="309" y="387" type="curve" smooth="yes"/>
      <point x="312" y="375"/>
      <point x="306" y="354"/>
      <point x="302" y="348" type="curve"/>
      <point x="298" y="338"/>
      <point x="288" y="325"/>
      <point x="265" y="313" type="curve" smooth="yes"/>
      <point x="220" y="290"/>
      <point x="149" y="248"/>
      <point x="113" y="226" type="curve" smooth="yes"/>
      <point x="109" y="223"/>
      <point x="103" y="216"/>
      <point x="113" y="209" type="curve"/>
      <point x="124" y="199"/>
      <point x="265" y="121"/>
      <point x="293" y="106" type="curve" smooth="yes"/>
      <point x="316" y="93"/>
      <point x="315" y="85"/>
      <point x="301" y="77" type="curve" smooth="yes"/>
      <point x="288" y="70"/>
      <point x="280" y="71"/>
      <point x="272" y="76" type="curve" smooth="yes"/>
      <point x="252" y="88"/>
      <point x="103" y="166"/>
      <point x="50" y="194" type="curve" smooth="yes"/>
      <point x="41" y="199"/>
      <point x="41" y="202"/>
      <point x="44" y="213" type="curve" smooth="yes"/>
      <point x="47" y="228"/>
      <point x="50" y="233"/>
    </contour>
  </outline>
</glyph>
<glyph name="equal" format="1">
  <advance width="477"/>
  <unicode hex="003D"/>
  <outline>
    <contour>
      <point x="71" y="279" type="curve" smooth="yes"/>
      <point x="50" y="279"/>
      <point x="41" y="290"/>
      <point x="47" y="302" type="curve" smooth="yes"/>
      <point x="54" y="316"/>
      <point x="66" y="323"/>
      <point x="88" y="323" type="curve" smooth="yes"/>
      <point x="215" y="325"/>
      <point x="274" y="329"/>
      <point x="370" y="338" type="curve" smooth="yes"/>
      <point x="395" y="340"/>
      <point x="413" y="347"/>
      <point x="413" y="328" type="curve" smooth="yes"/>
      <point x="413" y="321"/>
      <point x="402" y="298"/>
      <point x="386" y="290" type="curve"/>
      <point x="375" y="283"/>
      <point x="362" y="283"/>
      <point x="349" y="283" type="curve" smooth="yes"/>
      <point x="302" y="282"/>
      <point x="116" y="279"/>
    </contour>
    <contour>
      <point x="71" y="118" type="curve" smooth="yes"/>
      <point x="50" y="118"/>
      <point x="41" y="128"/>
      <point x="47" y="141" type="curve" smooth="yes"/>
      <point x="54" y="155"/>
      <point x="66" y="162"/>
      <point x="88" y="162" type="curve" smooth="yes"/>
      <point x="215" y="163"/>
      <point x="274" y="168"/>
      <point x="370" y="176" type="curve" smooth="yes"/>
      <point x="395" y="178"/>
      <point x="413" y="185"/>
      <point x="413" y="167" type="curve" smooth="yes"/>
      <point x="413" y="159"/>
      <point x="402" y="136"/>
      <point x="386" y="128" type="curve"/>
      <point x="375" y="121"/>
      <point x="362" y="121"/>
      <point x="349" y="121" type="curve" smooth="yes"/>
      <point x="302" y="120"/>
      <point x="116" y="118"/>
    </contour>
  </outline>
</glyph>
<glyph name="greater" format="1">
  <advance width="354"/>
  <unicode hex="003E"/>
  <outline>
    <contour>
      <point x="286" y="222" type="curve" smooth="yes"/>
      <point x="242" y="195"/>
      <point x="135" y="131"/>
      <point x="104" y="110" type="curve" smooth="yes"/>
      <point x="98" y="106"/>
      <point x="77" y="86"/>
      <point x="69" y="78" type="curve" smooth="yes"/>
      <point x="61" y="70"/>
      <point x="48" y="64"/>
      <point x="44" y="78" type="curve" smooth="yes"/>
      <point x="40" y="90"/>
      <point x="47" y="112"/>
      <point x="51" y="117" type="curve"/>
      <point x="55" y="127"/>
      <point x="65" y="141"/>
      <point x="88" y="152" type="curve"/>
      <point x="133" y="176"/>
      <point x="204" y="217"/>
      <point x="240" y="240" type="curve" smooth="yes"/>
      <point x="244" y="242"/>
      <point x="250" y="249"/>
      <point x="240" y="257" type="curve" smooth="yes"/>
      <point x="229" y="267"/>
      <point x="88" y="344"/>
      <point x="60" y="359" type="curve" smooth="yes"/>
      <point x="37" y="372"/>
      <point x="38" y="380"/>
      <point x="52" y="389" type="curve"/>
      <point x="65" y="396"/>
      <point x="72" y="395"/>
      <point x="81" y="390" type="curve" smooth="yes"/>
      <point x="101" y="377"/>
      <point x="250" y="300"/>
      <point x="303" y="271" type="curve" smooth="yes"/>
      <point x="311" y="267"/>
      <point x="311" y="263"/>
      <point x="309" y="253" type="curve" smooth="yes"/>
      <point x="306" y="237"/>
      <point x="303" y="232"/>
    </contour>
  </outline>
</glyph>
<glyph name="question" format="1">
  <advance width="418"/>
  <unicode hex="003F"/>
  <outline>
    <contour>
      <point x="184" y="167" type="curve" smooth="yes"/>
      <point x="168" y="163"/>
      <point x="163" y="184"/>
      <point x="163" y="192" type="curve" smooth="yes"/>
      <point x="163" y="230"/>
      <point x="176" y="276"/>
      <point x="200" y="305" type="curve"/>
      <point x="221" y="328"/>
      <point x="241" y="351"/>
      <point x="274" y="391" type="curve" smooth="yes"/>
      <point x="301" y="423"/>
      <point x="306" y="474"/>
      <point x="297" y="501" type="curve"/>
      <point x="289" y="529"/>
      <point x="268" y="568"/>
      <point x="207" y="568" type="curve" smooth="yes"/>
      <point x="178" y="568"/>
      <point x="125" y="547"/>
      <point x="125" y="486" type="curve" smooth="yes"/>
      <point x="125" y="444"/>
      <point x="153" y="429"/>
      <point x="180" y="436" type="curve" smooth="yes"/>
      <point x="198" y="440"/>
      <point x="202" y="441"/>
      <point x="209" y="433" type="curve"/>
      <point x="215" y="423"/>
      <point x="202" y="411"/>
      <point x="199" y="409" type="curve" smooth="yes"/>
      <point x="190" y="404"/>
      <point x="155" y="386"/>
      <point x="115" y="386" type="curve" smooth="yes"/>
      <point x="82" y="386"/>
      <point x="42" y="412"/>
      <point x="42" y="470" type="curve" smooth="yes"/>
      <point x="42" y="543"/>
      <point x="130" y="608"/>
      <point x="223" y="608" type="curve" smooth="yes"/>
      <point x="325" y="608"/>
      <point x="375" y="572"/>
      <point x="389" y="515" type="curve" smooth="yes"/>
      <point x="403" y="459"/>
      <point x="363" y="394"/>
      <point x="313" y="357" type="curve" smooth="yes"/>
      <point x="295" y="343"/>
      <point x="255" y="309"/>
      <point x="241" y="290" type="curve" smooth="yes"/>
      <point x="221" y="263"/>
      <point x="208" y="236"/>
      <point x="206" y="192" type="curve" smooth="yes"/>
      <point x="205" y="178"/>
      <point x="198" y="170"/>
    </contour>
    <contour>
      <point x="192" y="94" type="curve" smooth="yes"/>
      <point x="223" y="94"/>
      <point x="250" y="79"/>
      <point x="250" y="53" type="curve" smooth="yes"/>
      <point x="250" y="12"/>
      <point x="212" y="-7"/>
      <point x="182" y="-7" type="curve" smooth="yes"/>
      <point x="132" y="-7"/>
      <point x="124" y="19"/>
      <point x="124" y="41" type="curve" smooth="yes"/>
      <point x="124" y="77"/>
      <point x="168" y="94"/>
    </contour>
  </outline>
</glyph>
<glyph name="at" format="1">
  <advance width="774"/>
  <unicode hex="0040"/>
  <outline>
    <contour>
      <point x="450" y="-8" type="curve" smooth="yes"/>
      <point x="399" y="-8"/>
      <point x="404" y="45"/>
      <point x="428" y="121" type="curve"/>
      <point x="434" y="136"/>
      <point x="433" y="135"/>
      <point x="428" y="137" type="curve" smooth="yes"/>
      <point x="424" y="139"/>
      <point x="419" y="140"/>
      <point x="409" y="125" type="curve" smooth="yes"/>
      <point x="391" y="99"/>
      <point x="326" y="26"/>
      <point x="295" y="6" type="curve" smooth="yes"/>
      <point x="244" y="-27"/>
      <point x="210" y="-1"/>
      <point x="210" y="65" type="curve" smooth="yes"/>
      <point x="210" y="211"/>
      <point x="284" y="354"/>
      <point x="402" y="421" type="curve" smooth="yes"/>
      <point x="417" y="429"/>
      <point x="446" y="438"/>
      <point x="473" y="431" type="curve" smooth="yes"/>
      <point x="492" y="426"/>
      <point x="507" y="420"/>
      <point x="518" y="414" type="curve" smooth="yes"/>
      <point x="526" y="409"/>
      <point x="538" y="410"/>
      <point x="551" y="423" type="curve" smooth="yes"/>
      <point x="560" y="432"/>
      <point x="572" y="443"/>
      <point x="584" y="457" type="curve" smooth="yes"/>
      <point x="597" y="472"/>
      <point x="609" y="476"/>
      <point x="615" y="473" type="curve" smooth="yes"/>
      <point x="621" y="471"/>
      <point x="623" y="455"/>
      <point x="617" y="445" type="curve" smooth="yes"/>
      <point x="597" y="414"/>
      <point x="582" y="387"/>
      <point x="572" y="359" type="curve"/>
      <point x="546" y="296"/>
      <point x="531" y="237"/>
      <point x="511" y="150" type="curve" smooth="yes"/>
      <point x="495" y="84"/>
      <point x="518" y="84"/>
      <point x="547" y="105" type="curve" smooth="yes"/>
      <point x="627" y="165"/>
      <point x="694" y="290"/>
      <point x="694" y="405" type="curve" smooth="yes"/>
      <point x="694" y="549"/>
      <point x="606" y="598"/>
      <point x="504" y="598" type="curve" smooth="yes"/>
      <point x="306" y="598"/>
      <point x="130" y="389"/>
      <point x="125" y="150" type="curve" smooth="yes"/>
      <point x="120" y="-109"/>
      <point x="263" y="-162"/>
      <point x="375" y="-162" type="curve" smooth="yes"/>
      <point x="471" y="-162"/>
      <point x="558" y="-118"/>
      <point x="589" y="-83" type="curve"/>
      <point x="605" y="-67"/>
      <point x="615" y="-67"/>
      <point x="621" y="-73" type="curve" smooth="yes"/>
      <point x="628" y="-80"/>
      <point x="625" y="-93"/>
      <point x="615" y="-105" type="curve" smooth="yes"/>
      <point x="562" y="-170"/>
      <point x="466" y="-237"/>
      <point x="332" y="-237" type="curve" smooth="yes"/>
      <point x="190" y="-237"/>
      <point x="34" y="-141"/>
      <point x="34" y="104" type="curve" smooth="yes"/>
      <point x="34" y="382"/>
      <point x="263" y="640"/>
      <point x="513" y="640" type="curve" smooth="yes"/>
      <point x="633" y="640"/>
      <point x="741" y="580"/>
      <point x="741" y="417" type="curve" smooth="yes"/>
      <point x="741" y="251"/>
      <point x="657" y="121"/>
      <point x="510" y="12" type="curve" smooth="yes"/>
      <point x="492" y="-2"/>
      <point x="462" y="-8"/>
    </contour>
    <contour>
      <point x="345" y="108" type="curve" smooth="yes"/>
      <point x="384" y="143"/>
      <point x="398" y="162"/>
      <point x="433" y="219" type="curve" smooth="yes"/>
      <point x="450" y="247"/>
      <point x="468" y="292"/>
      <point x="479" y="332" type="curve" smooth="yes"/>
      <point x="485" y="354"/>
      <point x="481" y="362"/>
      <point x="469" y="370" type="curve" smooth="yes"/>
      <point x="460" y="376"/>
      <point x="446" y="381"/>
      <point x="432" y="384" type="curve" smooth="yes"/>
      <point x="411" y="387"/>
      <point x="387" y="370"/>
      <point x="370" y="346" type="curve" smooth="yes"/>
      <point x="336" y="296"/>
      <point x="302" y="189"/>
      <point x="302" y="136" type="curve" smooth="yes"/>
      <point x="302" y="101"/>
      <point x="314" y="80"/>
    </contour>
  </outline>
</glyph>
<glyph name="B" format="1">
  <advance width="599"/>
  <unicode hex="0042"/>
  <outline>
    <contour>
      <point x="23" y="9" type="curve" smooth="yes"/>
      <point x="19" y="27"/>
      <point x="47" y="38"/>
      <point x="61" y="40" type="curve" smooth="yes"/>
      <point x="110" y="48"/>
      <point x="107" y="75"/>
      <point x="112" y="106" type="curve"/>
      <point x="124" y="141"/>
      <point x="121" y="464"/>
      <point x="120" y="493" type="curve" smooth="yes"/>
      <point x="119" y="550"/>
      <point x="61" y="554"/>
      <point x="45" y="558" type="curve" smooth="yes"/>
      <point x="31" y="561"/>
      <point x="29" y="572"/>
      <point x="29" y="578" type="curve" smooth="yes"/>
      <point x="29" y="584"/>
      <point x="35" y="598"/>
      <point x="67" y="594" type="curve" smooth="yes"/>
      <point x="82" y="593"/>
      <point x="119" y="592"/>
      <point x="158" y="592" type="curve"/>
      <point x="318" y="597"/>
      <point x="300" y="596"/>
      <point x="343" y="596" type="curve" smooth="yes"/>
      <point x="477" y="597"/>
      <point x="513" y="567"/>
      <point x="513" y="499" type="curve" smooth="yes"/>
      <point x="513" y="439"/>
      <point x="456" y="396"/>
      <point x="417" y="383" type="curve"/>
      <point x="396" y="378"/>
      <point x="398" y="361"/>
      <point x="417" y="361" type="curve" smooth="yes"/>
      <point x="503" y="361"/>
      <point x="568" y="304"/>
      <point x="568" y="236" type="curve" smooth="yes"/>
      <point x="568" y="59"/>
      <point x="407" y="-1"/>
      <point x="295" y="-1" type="curve" smooth="yes"/>
      <point x="241" y="-1"/>
      <point x="196" y="2"/>
      <point x="172" y="2" type="curve" smooth="yes"/>
      <point x="115" y="2"/>
      <point x="57" y="-2"/>
      <point x="44" y="-3" type="curve" smooth="yes"/>
      <point x="34" y="-4"/>
      <point x="25" y="-2"/>
    </contour>
    <contour>
      <point x="220" y="82" type="curve" smooth="yes"/>
      <point x="221" y="37"/>
      <point x="259" y="37"/>
      <point x="292" y="37" type="curve" smooth="yes"/>
      <point x="402" y="37"/>
      <point x="459" y="111"/>
      <point x="459" y="216" type="curve" smooth="yes"/>
      <point x="459" y="275"/>
      <point x="431" y="336"/>
      <point x="352" y="336" type="curve" smooth="yes"/>
      <point x="327" y="336"/>
      <point x="279" y="332"/>
      <point x="276" y="346" type="curve" smooth="yes"/>
      <point x="272" y="361"/>
      <point x="279" y="365"/>
      <point x="305" y="370" type="curve" smooth="yes"/>
      <point x="383" y="383"/>
      <point x="408" y="423"/>
      <point x="408" y="487" type="curve" smooth="yes"/>
      <point x="408" y="531"/>
      <point x="389" y="551"/>
      <point x="332" y="556" type="curve" smooth="yes"/>
      <point x="296" y="559"/>
      <point x="274" y="556"/>
      <point x="253" y="556" type="curve"/>
      <point x="236" y="555"/>
      <point x="221" y="542"/>
      <point x="221" y="529" type="curve" smooth="yes"/>
      <point x="215" y="311"/>
      <point x="215" y="233"/>
    </contour>
  </outline>
</glyph>
<glyph name="D" format="1">
  <advance width="662"/>
  <unicode hex="0044"/>
  <outline>
    <contour>
      <point x="24" y="579" type="curve" smooth="yes"/>
      <point x="24" y="588"/>
      <point x="35" y="598"/>
      <point x="67" y="594" type="curve" smooth="yes"/>
      <point x="82" y="593"/>
      <point x="119" y="592"/>
      <point x="158" y="592" type="curve" smooth="yes"/>
      <point x="219" y="593"/>
      <point x="278" y="597"/>
      <point x="323" y="597" type="curve" smooth="yes"/>
      <point x="517" y="598"/>
      <point x="626" y="524"/>
      <point x="626" y="384" type="curve"/>
      <point x="624" y="129"/>
      <point x="444" y="0"/>
      <point x="273" y="0" type="curve"/>
      <point x="229" y="-1"/>
      <point x="193" y="2"/>
      <point x="172" y="2" type="curve" smooth="yes"/>
      <point x="115" y="2"/>
      <point x="57" y="-2"/>
      <point x="44" y="-3" type="curve" smooth="yes"/>
      <point x="34" y="-4"/>
      <point x="25" y="-1"/>
      <point x="23" y="10" type="curve" smooth="yes"/>
      <point x="19" y="28"/>
      <point x="47" y="35"/>
      <point x="61" y="38" type="curve"/>
      <point x="110" y="44"/>
      <point x="105" y="74"/>
      <point x="113" y="104" type="curve" smooth="yes"/>
      <point x="122" y="141"/>
      <point x="122" y="457"/>
      <point x="121" y="487" type="curve" smooth="yes"/>
      <point x="120" y="543"/>
      <point x="82" y="554"/>
      <point x="45" y="557" type="curve" smooth="yes"/>
      <point x="31" y="558"/>
      <point x="24" y="566"/>
    </contour>
    <contour>
      <point x="219" y="534" type="curve" smooth="yes"/>
      <point x="215" y="314"/>
      <point x="215" y="238"/>
      <point x="219" y="88" type="curve" smooth="yes"/>
      <point x="221" y="50"/>
      <point x="251" y="43"/>
      <point x="282" y="43" type="curve" smooth="yes"/>
      <point x="451" y="41"/>
      <point x="518" y="186"/>
      <point x="518" y="357" type="curve" smooth="yes"/>
      <point x="518" y="486"/>
      <point x="444" y="542"/>
      <point x="337" y="554" type="curve"/>
      <point x="310" y="556"/>
      <point x="279" y="556"/>
      <point x="253" y="554" type="curve" smooth="yes"/>
      <point x="235" y="553"/>
      <point x="219" y="545"/>
    </contour>
  </outline>
</glyph>
<glyph name="F" format="1">
  <advance width="545"/>
  <unicode hex="0046"/>
  <outline>
    <contour>
      <point x="25" y="580" type="curve" smooth="yes"/>
      <point x="25" y="586"/>
      <point x="33" y="599"/>
      <point x="65" y="596" type="curve" smooth="yes"/>
      <point x="104" y="592"/>
      <point x="134" y="589"/>
      <point x="172" y="589" type="curve" smooth="yes"/>
      <point x="252" y="589"/>
      <point x="473" y="601"/>
      <point x="497" y="601" type="curve" smooth="yes"/>
      <point x="531" y="601"/>
      <point x="537" y="593"/>
      <point x="540" y="585" type="curve" smooth="yes"/>
      <point x="549" y="558"/>
      <point x="542" y="483"/>
      <point x="522" y="453" type="curve" smooth="yes"/>
      <point x="517" y="445"/>
      <point x="508" y="436"/>
      <point x="495" y="442" type="curve" smooth="yes"/>
      <point x="491" y="444"/>
      <point x="487" y="453"/>
      <point x="488" y="463" type="curve" smooth="yes"/>
      <point x="499" y="520"/>
      <point x="475" y="556"/>
      <point x="412" y="556" type="curve" smooth="yes"/>
      <point x="359" y="556"/>
      <point x="251" y="553"/>
      <point x="237" y="550" type="curve"/>
      <point x="221" y="545"/>
      <point x="221" y="540"/>
      <point x="221" y="526" type="curve" smooth="yes"/>
      <point x="221" y="497"/>
      <point x="219" y="393"/>
      <point x="219" y="375" type="curve" smooth="yes"/>
      <point x="219" y="356"/>
      <point x="215" y="339"/>
      <point x="260" y="339" type="curve" smooth="yes"/>
      <point x="279" y="339"/>
      <point x="327" y="340"/>
      <point x="340" y="341" type="curve" smooth="yes"/>
      <point x="387" y="346"/>
      <point x="401" y="360"/>
      <point x="409" y="409" type="curve" smooth="yes"/>
      <point x="410" y="415"/>
      <point x="423" y="427"/>
      <point x="431" y="426" type="curve"/>
      <point x="443" y="426"/>
      <point x="446" y="406"/>
      <point x="444" y="393" type="curve" smooth="yes"/>
      <point x="437" y="335"/>
      <point x="433" y="306"/>
      <point x="433" y="249" type="curve" smooth="yes"/>
      <point x="433" y="238"/>
      <point x="423" y="228"/>
      <point x="412" y="227" type="curve" smooth="yes"/>
      <point x="407" y="227"/>
      <point x="398" y="236"/>
      <point x="396" y="248" type="curve" smooth="yes"/>
      <point x="392" y="278"/>
      <point x="375" y="296"/>
      <point x="344" y="300" type="curve"/>
      <point x="311" y="302"/>
      <point x="259" y="303"/>
      <point x="247" y="302" type="curve" smooth="yes"/>
      <point x="224" y="301"/>
      <point x="221" y="295"/>
      <point x="219" y="277" type="curve" smooth="yes"/>
      <point x="215" y="229"/>
      <point x="221" y="132"/>
      <point x="221" y="116" type="curve"/>
      <point x="224" y="80"/>
      <point x="227" y="62"/>
      <point x="261" y="50" type="curve" smooth="yes"/>
      <point x="289" y="40"/>
      <point x="317" y="26"/>
      <point x="317" y="14" type="curve" smooth="yes"/>
      <point x="317" y="3"/>
      <point x="304" y="-5"/>
      <point x="288" y="-4" type="curve"/>
      <point x="255" y="1"/>
      <point x="213" y="4"/>
      <point x="178" y="5" type="curve" smooth="yes"/>
      <point x="125" y="7"/>
      <point x="59" y="-2"/>
      <point x="44" y="-3" type="curve" smooth="yes"/>
      <point x="35" y="-4"/>
      <point x="25" y="1"/>
      <point x="24" y="12" type="curve"/>
      <point x="19" y="29"/>
      <point x="47" y="39"/>
      <point x="62" y="41" type="curve" smooth="yes"/>
      <point x="112" y="49"/>
      <point x="108" y="76"/>
      <point x="114" y="108" type="curve"/>
      <point x="125" y="143"/>
      <point x="120" y="459"/>
      <point x="119" y="488" type="curve" smooth="yes"/>
      <point x="117" y="545"/>
      <point x="59" y="556"/>
      <point x="41" y="559" type="curve" smooth="yes"/>
      <point x="28" y="562"/>
      <point x="25" y="573"/>
    </contour>
  </outline>
</glyph>
<glyph name="H" format="1">
  <advance width="753"/>
  <unicode hex="0048"/>
  <outline>
    <contour>
      <point x="547" y="492" type="curve" smooth="yes"/>
      <point x="545" y="548"/>
      <point x="482" y="558"/>
      <point x="465" y="562" type="curve" smooth="yes"/>
      <point x="453" y="565"/>
      <point x="451" y="573"/>
      <point x="451" y="579" type="curve" smooth="yes"/>
      <point x="451" y="586"/>
      <point x="457" y="596"/>
      <point x="489" y="594" type="curve" smooth="yes"/>
      <point x="537" y="592"/>
      <point x="625" y="584"/>
      <point x="699" y="594" type="curve" smooth="yes"/>
      <point x="718" y="597"/>
      <point x="729" y="590"/>
      <point x="729" y="576" type="curve"/>
      <point x="728" y="566"/>
      <point x="718" y="561"/>
      <point x="704" y="560" type="curve" smooth="yes"/>
      <point x="662" y="555"/>
      <point x="651" y="529"/>
      <point x="646" y="488" type="curve" smooth="yes"/>
      <point x="644" y="472"/>
      <point x="635" y="167"/>
      <point x="645" y="106" type="curve" smooth="yes"/>
      <point x="650" y="73"/>
      <point x="660" y="51"/>
      <point x="679" y="41" type="curve" smooth="yes"/>
      <point x="697" y="32"/>
      <point x="725" y="34"/>
      <point x="726" y="15" type="curve" smooth="yes"/>
      <point x="727" y="4"/>
      <point x="713" y="-4"/>
      <point x="689" y="-1" type="curve" smooth="yes"/>
      <point x="623" y="7"/>
      <point x="487" y="-2"/>
      <point x="465" y="-3" type="curve" smooth="yes"/>
      <point x="456" y="-4"/>
      <point x="447" y="-1"/>
      <point x="445" y="10" type="curve" smooth="yes"/>
      <point x="441" y="28"/>
      <point x="467" y="35"/>
      <point x="482" y="38" type="curve" smooth="yes"/>
      <point x="533" y="46"/>
      <point x="534" y="74"/>
      <point x="541" y="105" type="curve" smooth="yes"/>
      <point x="545" y="122"/>
      <point x="547" y="190"/>
      <point x="548" y="272" type="curve" smooth="yes"/>
      <point x="548" y="282"/>
      <point x="545" y="303"/>
      <point x="522" y="304" type="curve" smooth="yes"/>
      <point x="420" y="307"/>
      <point x="343" y="306"/>
      <point x="241" y="304" type="curve" smooth="yes"/>
      <point x="216" y="304"/>
      <point x="214" y="296"/>
      <point x="214" y="282" type="curve" smooth="yes"/>
      <point x="212" y="204"/>
      <point x="214" y="127"/>
      <point x="218" y="101" type="curve" smooth="yes"/>
      <point x="223" y="68"/>
      <point x="228" y="58"/>
      <point x="266" y="41" type="curve" smooth="yes"/>
      <point x="285" y="33"/>
      <point x="302" y="33"/>
      <point x="305" y="14" type="curve"/>
      <point x="305" y="3"/>
      <point x="291" y="-4"/>
      <point x="268" y="-1" type="curve" smooth="yes"/>
      <point x="202" y="7"/>
      <point x="66" y="-2"/>
      <point x="45" y="-3" type="curve" smooth="yes"/>
      <point x="35" y="-4"/>
      <point x="25" y="-2"/>
      <point x="24" y="9" type="curve"/>
      <point x="19" y="27"/>
      <point x="48" y="35"/>
      <point x="62" y="37" type="curve" smooth="yes"/>
      <point x="89" y="41"/>
      <point x="110" y="58"/>
      <point x="114" y="100" type="curve" smooth="yes"/>
      <point x="118" y="137"/>
      <point x="125" y="463"/>
      <point x="123" y="492" type="curve" smooth="yes"/>
      <point x="121" y="549"/>
      <point x="62" y="559"/>
      <point x="45" y="563" type="curve" smooth="yes"/>
      <point x="32" y="566"/>
      <point x="29" y="575"/>
      <point x="29" y="581" type="curve" smooth="yes"/>
      <point x="29" y="588"/>
      <point x="36" y="599"/>
      <point x="68" y="594" type="curve"/>
      <point x="98" y="592"/>
      <point x="223" y="592"/>
      <point x="278" y="594" type="curve"/>
      <point x="296" y="596"/>
      <point x="306" y="592"/>
      <point x="306" y="577" type="curve" smooth="yes"/>
      <point x="306" y="568"/>
      <point x="296" y="561"/>
      <point x="284" y="561" type="curve"/>
      <point x="221" y="549"/>
      <point x="225" y="530"/>
      <point x="219" y="489" type="curve" smooth="yes"/>
      <point x="218" y="482"/>
      <point x="215" y="436"/>
      <point x="215" y="364" type="curve" smooth="yes"/>
      <point x="215" y="358"/>
      <point x="219" y="345"/>
      <point x="244" y="343" type="curve"/>
      <point x="345" y="342"/>
      <point x="420" y="343"/>
      <point x="522" y="343" type="curve" smooth="yes"/>
      <point x="540" y="343"/>
      <point x="548" y="360"/>
      <point x="548" y="369" type="curve" smooth="yes"/>
      <point x="548" y="435"/>
      <point x="548" y="480"/>
    </contour>
  </outline>
</glyph>
<glyph name="J" format="1">
  <advance width="325"/>
  <unicode hex="004A"/>
  <outline>
    <contour>
      <point x="74" y="596" type="curve" smooth="yes"/>
      <point x="105" y="593"/>
      <point x="226" y="593"/>
      <point x="279" y="596" type="curve" smooth="yes"/>
      <point x="299" y="597"/>
      <point x="308" y="592"/>
      <point x="308" y="577" type="curve"/>
      <point x="307" y="567"/>
      <point x="299" y="561"/>
      <point x="285" y="558" type="curve" smooth="yes"/>
      <point x="241" y="550"/>
      <point x="231" y="529"/>
      <point x="225" y="487" type="curve" smooth="yes"/>
      <point x="223" y="475"/>
      <point x="218" y="285"/>
      <point x="221" y="171" type="curve"/>
      <point x="221" y="-124"/>
      <point x="72" y="-204"/>
      <point x="3" y="-204" type="curve" smooth="yes"/>
      <point x="-60" y="-204"/>
      <point x="-84" y="-173"/>
      <point x="-84" y="-136" type="curve" smooth="yes"/>
      <point x="-84" y="-103"/>
      <point x="-70" y="-77"/>
      <point x="-32" y="-49" type="curve" smooth="yes"/>
      <point x="-26" y="-45"/>
      <point x="-5" y="-32"/>
      <point x="3" y="-39" type="curve" smooth="yes"/>
      <point x="12" y="-46"/>
      <point x="6" y="-58"/>
      <point x="3" y="-66" type="curve" smooth="yes"/>
      <point x="-12" y="-112"/>
      <point x="-2" y="-145"/>
      <point x="26" y="-145" type="curve" smooth="yes"/>
      <point x="89" y="-145"/>
      <point x="120" y="-72"/>
      <point x="124" y="47" type="curve"/>
      <point x="130" y="292"/>
      <point x="124" y="467"/>
      <point x="122" y="491" type="curve"/>
      <point x="120" y="546"/>
      <point x="68" y="556"/>
      <point x="51" y="561" type="curve"/>
      <point x="39" y="563"/>
      <point x="36" y="575"/>
      <point x="36" y="581" type="curve" smooth="yes"/>
      <point x="36" y="588"/>
      <point x="43" y="599"/>
    </contour>
  </outline>
</glyph>
<glyph name="M" format="1">
  <advance width="950"/>
  <unicode hex="004D"/>
  <outline>
    <contour>
      <point x="71" y="582" type="curve" smooth="yes"/>
      <point x="71" y="593"/>
      <point x="82" y="598"/>
      <point x="95" y="598" type="curve" smooth="yes"/>
      <point x="95" y="598"/>
      <point x="206" y="599"/>
      <point x="240" y="593" type="curve" smooth="yes"/>
      <point x="283" y="586"/>
      <point x="301" y="561"/>
      <point x="321" y="526" type="curve"/>
      <point x="315" y="547"/>
      <point x="448" y="198"/>
      <point x="472" y="143" type="curve" smooth="yes"/>
      <point x="476" y="136"/>
      <point x="492" y="129"/>
      <point x="497" y="143" type="curve" smooth="yes"/>
      <point x="541" y="265"/>
      <point x="609" y="464"/>
      <point x="621" y="493" type="curve" smooth="yes"/>
      <point x="648" y="560"/>
      <point x="678" y="593"/>
      <point x="743" y="597" type="curve" smooth="yes"/>
      <point x="772" y="598"/>
      <point x="817" y="598"/>
      <point x="834" y="598" type="curve" smooth="yes"/>
      <point x="850" y="598"/>
      <point x="854" y="591"/>
      <point x="854" y="581" type="curve" smooth="yes"/>
      <point x="854" y="572"/>
      <point x="842" y="564"/>
      <point x="835" y="562" type="curve" smooth="yes"/>
      <point x="766" y="545"/>
      <point x="764" y="526"/>
      <point x="771" y="482" type="curve" smooth="yes"/>
      <point x="793" y="353"/>
      <point x="818" y="228"/>
      <point x="853" y="98" type="curve" smooth="yes"/>
      <point x="862" y="66"/>
      <point x="891" y="45"/>
      <point x="923" y="37" type="curve" smooth="yes"/>
      <point x="937" y="34"/>
      <point x="946" y="25"/>
      <point x="944" y="13" type="curve" smooth="yes"/>
      <point x="942" y="7"/>
      <point x="935" y="-4"/>
      <point x="925" y="-2" type="curve" smooth="yes"/>
      <point x="858" y="7"/>
      <point x="747" y="4"/>
      <point x="692" y="0" type="curve" smooth="yes"/>
      <point x="673" y="-2"/>
      <point x="658" y="-2"/>
      <point x="654" y="10" type="curve"/>
      <point x="652" y="20"/>
      <point x="656" y="29"/>
      <point x="673" y="34" type="curve" smooth="yes"/>
      <point x="696" y="41"/>
      <point x="740" y="62"/>
      <point x="733" y="111" type="curve" smooth="yes"/>
      <point x="715" y="232"/>
      <point x="700" y="316"/>
      <point x="672" y="435" type="curve"/>
      <point x="666" y="455"/>
      <point x="652" y="446"/>
      <point x="646" y="435" type="curve"/>
      <point x="634" y="407"/>
      <point x="550" y="182"/>
      <point x="519" y="62" type="curve"/>
      <point x="519" y="62"/>
      <point x="512" y="40"/>
      <point x="495" y="28" type="curve" smooth="yes"/>
      <point x="478" y="16"/>
      <point x="456" y="-1"/>
      <point x="423" y="-1" type="curve" smooth="yes"/>
      <point x="412" y="-1"/>
      <point x="405" y="1"/>
      <point x="399" y="19" type="curve" smooth="yes"/>
      <point x="395" y="28"/>
      <point x="388" y="51"/>
      <point x="385" y="65" type="curve" smooth="yes"/>
      <point x="363" y="152"/>
      <point x="304" y="316"/>
      <point x="248" y="430" type="curve" smooth="yes"/>
      <point x="242" y="442"/>
      <point x="234" y="460"/>
      <point x="223" y="430" type="curve"/>
      <point x="203" y="351"/>
      <point x="178" y="263"/>
      <point x="163" y="173" type="curve"/>
      <point x="156" y="116"/>
      <point x="152" y="51"/>
      <point x="221" y="37" type="curve" smooth="yes"/>
      <point x="235" y="35"/>
      <point x="242" y="26"/>
      <point x="242" y="16" type="curve"/>
      <point x="238" y="4"/>
      <point x="229" y="-3"/>
      <point x="210" y="-1" type="curve" smooth="yes"/>
      <point x="164" y="4"/>
      <point x="98" y="4"/>
      <point x="62" y="1" type="curve" smooth="yes"/>
      <point x="48" y="0"/>
      <point x="19" y="-4"/>
      <point x="15" y="13" type="curve" smooth="yes"/>
      <point x="13" y="23"/>
      <point x="27" y="35"/>
      <point x="37" y="41" type="curve"/>
      <point x="57" y="57"/>
      <point x="75" y="84"/>
      <point x="88" y="114" type="curve" smooth="yes"/>
      <point x="110" y="165"/>
      <point x="178" y="392"/>
      <point x="188" y="468" type="curve" smooth="yes"/>
      <point x="194" y="518"/>
      <point x="164" y="555"/>
      <point x="93" y="563" type="curve" smooth="yes"/>
      <point x="77" y="565"/>
      <point x="71" y="569"/>
    </contour>
  </outline>
</glyph>
<glyph name="P" format="1">
  <advance width="526"/>
  <unicode hex="0050"/>
  <outline>
    <contour>
      <point x="29" y="582" type="curve" smooth="yes"/>
      <point x="29" y="588"/>
      <point x="36" y="600"/>
      <point x="68" y="596" type="curve" smooth="yes"/>
      <point x="120" y="588"/>
      <point x="170" y="593"/>
      <point x="243" y="593" type="curve" smooth="yes"/>
      <point x="263" y="593"/>
      <point x="303" y="598"/>
      <point x="386" y="598" type="curve" smooth="yes"/>
      <point x="467" y="598"/>
      <point x="508" y="563"/>
      <point x="508" y="475" type="curve" smooth="yes"/>
      <point x="508" y="297"/>
      <point x="335" y="266"/>
      <point x="295" y="266" type="curve" smooth="yes"/>
      <point x="280" y="266"/>
      <point x="263" y="268"/>
      <point x="263" y="285" type="curve" smooth="yes"/>
      <point x="263" y="290"/>
      <point x="267" y="303"/>
      <point x="282" y="304" type="curve" smooth="yes"/>
      <point x="351" y="309"/>
      <point x="403" y="352"/>
      <point x="403" y="450" type="curve" smooth="yes"/>
      <point x="403" y="519"/>
      <point x="378" y="547"/>
      <point x="309" y="552" type="curve" smooth="yes"/>
      <point x="289" y="554"/>
      <point x="269" y="553"/>
      <point x="239" y="553" type="curve"/>
      <point x="216" y="551"/>
      <point x="215" y="542"/>
      <point x="214" y="523" type="curve" smooth="yes"/>
      <point x="210" y="434"/>
      <point x="201" y="177"/>
      <point x="214" y="101" type="curve"/>
      <point x="218" y="68"/>
      <point x="230" y="52"/>
      <point x="247" y="45" type="curve" smooth="yes"/>
      <point x="267" y="36"/>
      <point x="292" y="37"/>
      <point x="294" y="19" type="curve" smooth="yes"/>
      <point x="295" y="8"/>
      <point x="281" y="-4"/>
      <point x="257" y="-1" type="curve" smooth="yes"/>
      <point x="192" y="7"/>
      <point x="97" y="3"/>
      <point x="54" y="-3" type="curve"/>
      <point x="39" y="-4"/>
      <point x="25" y="-2"/>
      <point x="24" y="9" type="curve"/>
      <point x="19" y="27"/>
      <point x="45" y="35"/>
      <point x="60" y="37" type="curve" smooth="yes"/>
      <point x="97" y="42"/>
      <point x="104" y="72"/>
      <point x="109" y="103" type="curve"/>
      <point x="117" y="141"/>
      <point x="120" y="462"/>
      <point x="118" y="492" type="curve" smooth="yes"/>
      <point x="116" y="548"/>
      <point x="62" y="559"/>
      <point x="45" y="562" type="curve"/>
      <point x="32" y="566"/>
      <point x="29" y="576"/>
    </contour>
  </outline>
</glyph>
<glyph name="Q" format="1">
  <advance width="702"/>
  <unicode hex="0051"/>
  <outline>
    <contour>
      <point x="370" y="614" type="curve" smooth="yes"/>
      <point x="535" y="614"/>
      <point x="640" y="511"/>
      <point x="640" y="340" type="curve" smooth="yes"/>
      <point x="640" y="223"/>
      <point x="604" y="144"/>
      <point x="534" y="76" type="curve" smooth="yes"/>
      <point x="524" y="66"/>
      <point x="528" y="52"/>
      <point x="535" y="38" type="curve" smooth="yes"/>
      <point x="561" y="-8"/>
      <point x="606" y="-56"/>
      <point x="655" y="-56" type="curve" smooth="yes"/>
      <point x="684" y="-56"/>
      <point x="710" y="-48"/>
      <point x="724" y="-43" type="curve" smooth="yes"/>
      <point x="736" y="-38"/>
      <point x="741" y="-45"/>
      <point x="742" y="-49" type="curve"/>
      <point x="746" y="-56"/>
      <point x="742" y="-70"/>
      <point x="729" y="-78" type="curve" smooth="yes"/>
      <point x="689" y="-103"/>
      <point x="646" y="-126"/>
      <point x="585" y="-126" type="curve" smooth="yes"/>
      <point x="537" y="-126"/>
      <point x="482" y="-60"/>
      <point x="454" y="-5" type="curve" smooth="yes"/>
      <point x="447" y="8"/>
      <point x="441" y="10"/>
      <point x="428" y="5" type="curve" smooth="yes"/>
      <point x="389" y="-13"/>
      <point x="352" y="-19"/>
      <point x="315" y="-19" type="curve" smooth="yes"/>
      <point x="136" y="-19"/>
      <point x="38" y="109"/>
      <point x="38" y="277" type="curve" smooth="yes"/>
      <point x="38" y="402"/>
      <point x="145" y="614"/>
    </contour>
    <contour>
      <point x="536" y="319" type="curve" smooth="yes"/>
      <point x="536" y="465"/>
      <point x="473" y="562"/>
      <point x="338" y="561" type="curve" smooth="yes"/>
      <point x="242" y="561"/>
      <point x="144" y="487"/>
      <point x="144" y="285" type="curve" smooth="yes"/>
      <point x="144" y="253"/>
      <point x="146" y="226"/>
      <point x="154" y="200" type="curve" smooth="yes"/>
      <point x="157" y="189"/>
      <point x="162" y="173"/>
      <point x="173" y="190" type="curve"/>
      <point x="210" y="235"/>
      <point x="250" y="263"/>
      <point x="308" y="263" type="curve" smooth="yes"/>
      <point x="397" y="263"/>
      <point x="441" y="203"/>
      <point x="481" y="140" type="curve"/>
      <point x="491" y="128"/>
      <point x="500" y="149"/>
      <point x="504" y="156" type="curve" smooth="yes"/>
      <point x="524" y="199"/>
      <point x="536" y="244"/>
    </contour>
    <contour>
      <point x="414" y="79" type="curve"/>
      <point x="380" y="138"/>
      <point x="341" y="191"/>
      <point x="256" y="191" type="curve" smooth="yes"/>
      <point x="238" y="191"/>
      <point x="201" y="177"/>
      <point x="189" y="154" type="curve" smooth="yes"/>
      <point x="184" y="146"/>
      <point x="179" y="135"/>
      <point x="191" y="117" type="curve" smooth="yes"/>
      <point x="230" y="59"/>
      <point x="282" y="34"/>
      <point x="347" y="34" type="curve" smooth="yes"/>
      <point x="376" y="34"/>
      <point x="392" y="41"/>
      <point x="414" y="53" type="curve" smooth="yes"/>
      <point x="423" y="58"/>
      <point x="419" y="68"/>
    </contour>
  </outline>
</glyph>
<glyph name="V" format="1">
  <advance width="690"/>
  <unicode hex="0056"/>
  <outline>
    <contour>
      <point x="18" y="575" type="curve" smooth="yes"/>
      <point x="18" y="593"/>
      <point x="35" y="603"/>
      <point x="66" y="596" type="curve"/>
      <point x="110" y="590"/>
      <point x="210" y="591"/>
      <point x="257" y="596" type="curve"/>
      <point x="294" y="601"/>
      <point x="301" y="593"/>
      <point x="301" y="577" type="curve" smooth="yes"/>
      <point x="301" y="565"/>
      <point x="296" y="561"/>
      <point x="281" y="558" type="curve" smooth="yes"/>
      <point x="262" y="553"/>
      <point x="250" y="551"/>
      <point x="241" y="537" type="curve" smooth="yes"/>
      <point x="230" y="519"/>
      <point x="230" y="502"/>
      <point x="237" y="476" type="curve"/>
      <point x="274" y="359"/>
      <point x="304" y="264"/>
      <point x="353" y="157" type="curve" smooth="yes"/>
      <point x="357" y="149"/>
      <point x="363" y="132"/>
      <point x="372" y="132" type="curve" smooth="yes"/>
      <point x="384" y="132"/>
      <point x="389" y="146"/>
      <point x="391" y="153" type="curve"/>
      <point x="439" y="256"/>
      <point x="471" y="329"/>
      <point x="501" y="430" type="curve" smooth="yes"/>
      <point x="526" y="513"/>
      <point x="518" y="551"/>
      <point x="474" y="565" type="curve"/>
      <point x="459" y="571"/>
      <point x="454" y="577"/>
      <point x="454" y="587" type="curve" smooth="yes"/>
      <point x="454" y="594"/>
      <point x="470" y="601"/>
      <point x="487" y="601" type="curve"/>
      <point x="555" y="596"/>
      <point x="590" y="593"/>
      <point x="657" y="598" type="curve" smooth="yes"/>
      <point x="672" y="599"/>
      <point x="679" y="588"/>
      <point x="678" y="577" type="curve"/>
      <point x="675" y="572"/>
      <point x="668" y="561"/>
      <point x="654" y="551" type="curve" smooth="yes"/>
      <point x="620" y="524"/>
      <point x="591" y="487"/>
      <point x="569" y="441" type="curve" smooth="yes"/>
      <point x="551" y="403"/>
      <point x="452" y="200"/>
      <point x="430" y="126" type="curve"/>
      <point x="420" y="97"/>
      <point x="418" y="82"/>
      <point x="417" y="51" type="curve" smooth="yes"/>
      <point x="417" y="47"/>
      <point x="415" y="29"/>
      <point x="402" y="21" type="curve" smooth="yes"/>
      <point x="380" y="8"/>
      <point x="348" y="-6"/>
      <point x="322" y="-7" type="curve" smooth="yes"/>
      <point x="309" y="-7"/>
      <point x="302" y="-5"/>
      <point x="295" y="8" type="curve"/>
      <point x="275" y="66" type="line" smooth="yes"/>
      <point x="263" y="103"/>
      <point x="173" y="391"/>
      <point x="126" y="476" type="curve"/>
      <point x="101" y="527"/>
      <point x="74" y="549"/>
      <point x="50" y="551" type="curve" smooth="yes"/>
      <point x="33" y="553"/>
      <point x="18" y="565"/>
    </contour>
  </outline>
</glyph>
<glyph name="W" format="1">
  <advance width="994"/>
  <unicode hex="0057"/>
  <outline>
    <contour>
      <point x="319" y="573" type="curve" smooth="yes"/>
      <point x="319" y="593"/>
      <point x="336" y="603"/>
      <point x="368" y="594" type="curve"/>
      <point x="412" y="588"/>
      <point x="508" y="589"/>
      <point x="554" y="594" type="curve"/>
      <point x="591" y="600"/>
      <point x="598" y="592"/>
      <point x="598" y="575" type="curve" smooth="yes"/>
      <point x="598" y="564"/>
      <point x="593" y="558"/>
      <point x="579" y="555" type="curve" smooth="yes"/>
      <point x="560" y="550"/>
      <point x="548" y="548"/>
      <point x="540" y="535" type="curve"/>
      <point x="526" y="518"/>
      <point x="531" y="500"/>
      <point x="539" y="476" type="curve" smooth="yes"/>
      <point x="574" y="358"/>
      <point x="604" y="263"/>
      <point x="651" y="157" type="curve" smooth="yes"/>
      <point x="655" y="149"/>
      <point x="658" y="133"/>
      <point x="668" y="133" type="curve" smooth="yes"/>
      <point x="678" y="133"/>
      <point x="687" y="146"/>
      <point x="690" y="153" type="curve" smooth="yes"/>
      <point x="738" y="255"/>
      <point x="776" y="327"/>
      <point x="808" y="428" type="curve" smooth="yes"/>
      <point x="834" y="510"/>
      <point x="821" y="548"/>
      <point x="778" y="561" type="curve" smooth="yes"/>
      <point x="762" y="566"/>
      <point x="757" y="572"/>
      <point x="757" y="581" type="curve" smooth="yes"/>
      <point x="757" y="589"/>
      <point x="768" y="600"/>
      <point x="790" y="598" type="curve" smooth="yes"/>
      <point x="858" y="594"/>
      <point x="902" y="590"/>
      <point x="962" y="596" type="curve" smooth="yes"/>
      <point x="976" y="598"/>
      <point x="984" y="582"/>
      <point x="981" y="572" type="curve"/>
      <point x="981" y="567"/>
      <point x="976" y="556"/>
      <point x="962" y="546" type="curve" smooth="yes"/>
      <point x="927" y="519"/>
      <point x="896" y="486"/>
      <point x="872" y="439" type="curve" smooth="yes"/>
      <point x="854" y="402"/>
      <point x="756" y="200"/>
      <point x="731" y="127" type="curve" smooth="yes"/>
      <point x="722" y="98"/>
      <point x="710" y="74"/>
      <point x="710" y="53" type="curve" smooth="yes"/>
      <point x="710" y="49"/>
      <point x="704" y="24"/>
      <point x="692" y="17" type="curve" smooth="yes"/>
      <point x="670" y="3"/>
      <point x="643" y="-5"/>
      <point x="618" y="-6" type="curve" smooth="yes"/>
      <point x="604" y="-6"/>
      <point x="593" y="0"/>
      <point x="588" y="13" type="curve" smooth="yes"/>
      <point x="561" y="89"/>
      <point x="547" y="125"/>
      <point x="508" y="252" type="curve" smooth="yes"/>
      <point x="503" y="269"/>
      <point x="495" y="266"/>
      <point x="487" y="252" type="curve" smooth="yes"/>
      <point x="463" y="207"/>
      <point x="430" y="144"/>
      <point x="402" y="67" type="curve"/>
      <point x="397" y="57"/>
      <point x="396" y="27"/>
      <point x="384" y="19" type="curve" smooth="yes"/>
      <point x="363" y="3"/>
      <point x="330" y="-5"/>
      <point x="304" y="-6" type="curve" smooth="yes"/>
      <point x="291" y="-6"/>
      <point x="285" y="-4"/>
      <point x="279" y="9" type="curve"/>
      <point x="270" y="24"/>
      <point x="264" y="51"/>
      <point x="260" y="68" type="curve"/>
      <point x="248" y="104"/>
      <point x="163" y="390"/>
      <point x="120" y="476" type="curve" smooth="yes"/>
      <point x="101" y="513"/>
      <point x="74" y="547"/>
      <point x="49" y="555" type="curve" smooth="yes"/>
      <point x="32" y="560"/>
      <point x="18" y="566"/>
      <point x="18" y="575" type="curve" smooth="yes"/>
      <point x="18" y="590"/>
      <point x="34" y="603"/>
      <point x="66" y="594" type="curve"/>
      <point x="109" y="588"/>
      <point x="176" y="589"/>
      <point x="221" y="594" type="curve"/>
      <point x="259" y="600"/>
      <point x="267" y="588"/>
      <point x="267" y="576" type="curve" smooth="yes"/>
      <point x="267" y="565"/>
      <point x="258" y="559"/>
      <point x="244" y="556" type="curve" smooth="yes"/>
      <point x="213" y="548"/>
      <point x="219" y="503"/>
      <point x="228" y="476" type="curve" smooth="yes"/>
      <point x="270" y="359"/>
      <point x="299" y="263"/>
      <point x="348" y="157" type="curve"/>
      <point x="353" y="149"/>
      <point x="359" y="133"/>
      <point x="368" y="133" type="curve" smooth="yes"/>
      <point x="380" y="133"/>
      <point x="384" y="146"/>
      <point x="388" y="153" type="curve" smooth="yes"/>
      <point x="421" y="205"/>
      <point x="443" y="263"/>
      <point x="468" y="328" type="curve" smooth="yes"/>
      <point x="474" y="343"/>
      <point x="472" y="348"/>
      <point x="468" y="364" type="curve" smooth="yes"/>
      <point x="455" y="420"/>
      <point x="445" y="445"/>
      <point x="431" y="476" type="curve"/>
      <point x="403" y="528"/>
      <point x="383" y="546"/>
      <point x="350" y="554" type="curve" smooth="yes"/>
      <point x="334" y="557"/>
      <point x="319" y="564"/>
    </contour>
  </outline>
</glyph>
<glyph name="X" format="1">
  <advance width="724"/>
  <unicode hex="0058"/>
  <outline>
    <contour>
      <point x="81" y="576" type="curve" smooth="yes"/>
      <point x="81" y="586"/>
      <point x="88" y="598"/>
      <point x="98" y="597" type="curve" smooth="yes"/>
      <point x="124" y="594"/>
      <point x="226" y="589"/>
      <point x="290" y="594" type="curve"/>
      <point x="313" y="598"/>
      <point x="318" y="576"/>
      <point x="314" y="554" type="curve" smooth="yes"/>
      <point x="311" y="541"/>
      <point x="313" y="515"/>
      <point x="318" y="507" type="curve" smooth="yes"/>
      <point x="322" y="499"/>
      <point x="374" y="412"/>
      <point x="382" y="400" type="curve" smooth="yes"/>
      <point x="390" y="388"/>
      <point x="399" y="375"/>
      <point x="412" y="387" type="curve"/>
      <point x="441" y="417"/>
      <point x="470" y="472"/>
      <point x="480" y="503" type="curve" smooth="yes"/>
      <point x="487" y="524"/>
      <point x="488" y="547"/>
      <point x="483" y="556" type="curve" smooth="yes"/>
      <point x="478" y="566"/>
      <point x="474" y="572"/>
      <point x="476" y="582" type="curve" smooth="yes"/>
      <point x="477" y="588"/>
      <point x="496" y="597"/>
      <point x="505" y="594" type="curve"/>
      <point x="542" y="590"/>
      <point x="599" y="592"/>
      <point x="629" y="594" type="curve" smooth="yes"/>
      <point x="649" y="596"/>
      <point x="656" y="582"/>
      <point x="656" y="577" type="curve" smooth="yes"/>
      <point x="657" y="563"/>
      <point x="641" y="556"/>
      <point x="634" y="555" type="curve"/>
      <point x="602" y="545"/>
      <point x="558" y="510"/>
      <point x="545" y="496" type="curve"/>
      <point x="527" y="479"/>
      <point x="449" y="373"/>
      <point x="434" y="349" type="curve" smooth="yes"/>
      <point x="426" y="337"/>
      <point x="433" y="330"/>
      <point x="438" y="321" type="curve" smooth="yes"/>
      <point x="476" y="248"/>
      <point x="537" y="168"/>
      <point x="560" y="134" type="curve" smooth="yes"/>
      <point x="584" y="97"/>
      <point x="639" y="47"/>
      <point x="685" y="40" type="curve"/>
      <point x="708" y="35"/>
      <point x="715" y="30"/>
      <point x="715" y="16" type="curve" smooth="yes"/>
      <point x="715" y="8"/>
      <point x="708" y="-4"/>
      <point x="680" y="-2" type="curve" smooth="yes"/>
      <point x="628" y="3"/>
      <point x="561" y="5"/>
      <point x="501" y="1" type="curve" smooth="yes"/>
      <point x="479" y="-1"/>
      <point x="453" y="-3"/>
      <point x="451" y="13" type="curve" smooth="yes"/>
      <point x="449" y="23"/>
      <point x="453" y="30"/>
      <point x="456" y="39" type="curve"/>
      <point x="463" y="53"/>
      <point x="463" y="68"/>
      <point x="455" y="88" type="curve" smooth="yes"/>
      <point x="449" y="104"/>
      <point x="400" y="197"/>
      <point x="370" y="247" type="curve" smooth="yes"/>
      <point x="359" y="264"/>
      <point x="347" y="268"/>
      <point x="328" y="247" type="curve"/>
      <point x="305" y="218"/>
      <point x="242" y="133"/>
      <point x="221" y="81" type="curve"/>
      <point x="215" y="63"/>
      <point x="215" y="51"/>
      <point x="226" y="38" type="curve"/>
      <point x="241" y="24"/>
      <point x="241" y="24"/>
      <point x="242" y="13" type="curve" smooth="yes"/>
      <point x="242" y="3"/>
      <point x="230" y="-6"/>
      <point x="208" y="-2" type="curve"/>
      <point x="189" y="3"/>
      <point x="96" y="3"/>
      <point x="77" y="0" type="curve"/>
      <point x="45" y="-3"/>
      <point x="24" y="-1"/>
      <point x="24" y="13" type="curve" smooth="yes"/>
      <point x="24" y="28"/>
      <point x="40" y="38"/>
      <point x="54" y="40" type="curve"/>
      <point x="82" y="47"/>
      <point x="120" y="81"/>
      <point x="141" y="98" type="curve"/>
      <point x="194" y="145"/>
      <point x="274" y="237"/>
      <point x="305" y="279" type="curve" smooth="yes"/>
      <point x="321" y="301"/>
      <point x="319" y="318"/>
      <point x="314" y="327" type="curve"/>
      <point x="300" y="361"/>
      <point x="218" y="480"/>
      <point x="200" y="500" type="curve" smooth="yes"/>
      <point x="162" y="540"/>
      <point x="152" y="551"/>
      <point x="109" y="554" type="curve" smooth="yes"/>
      <point x="91" y="556"/>
      <point x="81" y="567"/>
    </contour>
  </outline>
</glyph>
<glyph name="Y" format="1">
  <advance width="566"/>
  <unicode hex="0059"/>
  <outline>
    <contour>
      <point x="18" y="579" type="curve" smooth="yes"/>
      <point x="17" y="587"/>
      <point x="29" y="598"/>
      <point x="45" y="596" type="curve" smooth="yes"/>
      <point x="102" y="590"/>
      <point x="157" y="592"/>
      <point x="206" y="594" type="curve"/>
      <point x="217" y="596"/>
      <point x="226" y="594"/>
      <point x="230" y="588" type="curve" smooth="yes"/>
      <point x="233" y="582"/>
      <point x="231" y="568"/>
      <point x="221" y="559" type="curve"/>
      <point x="210" y="545"/>
      <point x="209" y="535"/>
      <point x="215" y="517" type="curve"/>
      <point x="207" y="523"/>
      <point x="300" y="374"/>
      <point x="304" y="370" type="curve" smooth="yes"/>
      <point x="311" y="363"/>
      <point x="317" y="362"/>
      <point x="330" y="374" type="curve" smooth="yes"/>
      <point x="355" y="397"/>
      <point x="400" y="476"/>
      <point x="405" y="508" type="curve" smooth="yes"/>
      <point x="410" y="536"/>
      <point x="399" y="551"/>
      <point x="381" y="562" type="curve" smooth="yes"/>
      <point x="368" y="571"/>
      <point x="367" y="579"/>
      <point x="371" y="588" type="curve" smooth="yes"/>
      <point x="374" y="593"/>
      <point x="387" y="596"/>
      <point x="394" y="594" type="curve"/>
      <point x="424" y="590"/>
      <point x="513" y="592"/>
      <point x="525" y="593" type="curve"/>
      <point x="540" y="596"/>
      <point x="555" y="593"/>
      <point x="555" y="580" type="curve" smooth="yes"/>
      <point x="555" y="568"/>
      <point x="545" y="563"/>
      <point x="522" y="550" type="curve"/>
      <point x="502" y="536"/>
      <point x="475" y="502"/>
      <point x="455" y="479" type="curve"/>
      <point x="425" y="439"/>
      <point x="386" y="385"/>
      <point x="357" y="344" type="curve" smooth="yes"/>
      <point x="337" y="316"/>
      <point x="332" y="298"/>
      <point x="331" y="272" type="curve"/>
      <point x="329" y="253"/>
      <point x="329" y="150"/>
      <point x="329" y="118" type="curve" smooth="yes"/>
      <point x="330" y="70"/>
      <point x="351" y="50"/>
      <point x="397" y="35" type="curve"/>
      <point x="410" y="32"/>
      <point x="418" y="23"/>
      <point x="418" y="16" type="curve" smooth="yes"/>
      <point x="418" y="2"/>
      <point x="396" y="-5"/>
      <point x="386" y="-4" type="curve" smooth="yes"/>
      <point x="354" y="2"/>
      <point x="222" y="7"/>
      <point x="169" y="-2" type="curve" smooth="yes"/>
      <point x="154" y="-5"/>
      <point x="133" y="-1"/>
      <point x="131" y="9" type="curve"/>
      <point x="130" y="21"/>
      <point x="133" y="31"/>
      <point x="154" y="35" type="curve" smooth="yes"/>
      <point x="204" y="43"/>
      <point x="227" y="72"/>
      <point x="229" y="109" type="curve" smooth="yes"/>
      <point x="230" y="125"/>
      <point x="233" y="232"/>
      <point x="231" y="282" type="curve"/>
      <point x="229" y="304"/>
      <point x="230" y="301"/>
      <point x="225" y="318" type="curve"/>
      <point x="208" y="362"/>
      <point x="129" y="474"/>
      <point x="104" y="507" type="curve"/>
      <point x="85" y="530"/>
      <point x="68" y="551"/>
      <point x="45" y="558" type="curve" smooth="yes"/>
      <point x="29" y="563"/>
      <point x="19" y="571"/>
    </contour>
  </outline>
</glyph>
<glyph name="Z" format="1">
  <advance width="572"/>
  <unicode hex="005A"/>
  <outline>
    <contour>
      <point x="528" y="194" type="curve" smooth="yes"/>
      <point x="538" y="194"/>
      <point x="544" y="180"/>
      <point x="541" y="151" type="curve" smooth="yes"/>
      <point x="538" y="122"/>
      <point x="515" y="33"/>
      <point x="465" y="4" type="curve"/>
      <point x="451" y="-2"/>
      <point x="433" y="-5"/>
      <point x="408" y="-4" type="curve" smooth="yes"/>
      <point x="280" y="4"/>
      <point x="191" y="13"/>
      <point x="56" y="-2" type="curve" smooth="yes"/>
      <point x="26" y="-5"/>
      <point x="5" y="14"/>
      <point x="23" y="39" type="curve"/>
      <point x="162" y="217"/>
      <point x="290" y="412"/>
      <point x="360" y="530" type="curve" smooth="yes"/>
      <point x="372" y="551"/>
      <point x="370" y="554"/>
      <point x="348" y="554" type="curve" smooth="yes"/>
      <point x="279" y="556"/>
      <point x="267" y="556"/>
      <point x="225" y="553" type="curve" smooth="yes"/>
      <point x="165" y="550"/>
      <point x="148" y="510"/>
      <point x="129" y="471" type="curve" smooth="yes"/>
      <point x="120" y="451"/>
      <point x="114" y="430"/>
      <point x="98" y="431" type="curve" smooth="yes"/>
      <point x="84" y="432"/>
      <point x="80" y="443"/>
      <point x="81" y="460" type="curve" smooth="yes"/>
      <point x="84" y="491"/>
      <point x="92" y="537"/>
      <point x="101" y="586" type="curve" smooth="yes"/>
      <point x="104" y="600"/>
      <point x="111" y="611"/>
      <point x="123" y="611" type="curve" smooth="yes"/>
      <point x="127" y="611"/>
      <point x="139" y="606"/>
      <point x="145" y="604" type="curve"/>
      <point x="237" y="593"/>
      <point x="379" y="593"/>
      <point x="485" y="598" type="curve" smooth="yes"/>
      <point x="518" y="600"/>
      <point x="513" y="572"/>
      <point x="508" y="563" type="curve"/>
      <point x="372" y="378"/>
      <point x="295" y="263"/>
      <point x="193" y="86" type="curve" smooth="yes"/>
      <point x="187" y="76"/>
      <point x="192" y="61"/>
      <point x="203" y="58" type="curve" smooth="yes"/>
      <point x="225" y="52"/>
      <point x="279" y="51"/>
      <point x="311" y="51" type="curve" smooth="yes"/>
      <point x="465" y="51"/>
      <point x="485" y="106"/>
      <point x="502" y="169" type="curve" smooth="yes"/>
      <point x="506" y="187"/>
      <point x="515" y="195"/>
    </contour>
  </outline>
</glyph>
<glyph name="bracketleft" format="1">
  <advance width="293"/>
  <unicode hex="005B"/>
  <outline>
    <contour>
      <point x="215" y="633" type="curve" smooth="yes"/>
      <point x="230" y="633"/>
      <point x="240" y="626"/>
      <point x="240" y="618" type="curve" smooth="yes"/>
      <point x="240" y="607"/>
      <point x="228" y="599"/>
      <point x="218" y="598" type="curve" smooth="yes"/>
      <point x="208" y="598"/>
      <point x="167" y="598"/>
      <point x="151" y="596" type="curve" smooth="yes"/>
      <point x="135" y="594"/>
      <point x="135" y="590"/>
      <point x="134" y="571" type="curve" smooth="yes"/>
      <point x="132" y="518"/>
      <point x="131" y="99"/>
      <point x="132" y="19" type="curve" smooth="yes"/>
      <point x="132" y="5"/>
      <point x="133" y="0"/>
      <point x="146" y="0" type="curve" smooth="yes"/>
      <point x="152" y="0"/>
      <point x="214" y="-3"/>
      <point x="226" y="-3" type="curve" smooth="yes"/>
      <point x="238" y="-3"/>
      <point x="242" y="-14"/>
      <point x="242" y="-20" type="curve" smooth="yes"/>
      <point x="242" y="-26"/>
      <point x="233" y="-36"/>
      <point x="224" y="-36" type="curve" smooth="yes"/>
      <point x="213" y="-36"/>
      <point x="88" y="-34"/>
      <point x="72" y="-34" type="curve" smooth="yes"/>
      <point x="56" y="-34"/>
      <point x="51" y="-29"/>
      <point x="51" y="-13" type="curve" smooth="yes"/>
      <point x="54" y="178"/>
      <point x="55" y="348"/>
      <point x="54" y="608" type="curve" smooth="yes"/>
      <point x="54" y="630"/>
      <point x="59" y="630"/>
      <point x="77" y="630" type="curve" smooth="yes"/>
      <point x="87" y="630"/>
      <point x="207" y="633"/>
    </contour>
  </outline>
</glyph>
<glyph name="backslash" format="1">
  <advance width="449"/>
  <unicode hex="005C"/>
  <outline>
    <contour>
      <point x="44" y="610" type="curve" smooth="yes"/>
      <point x="56" y="612"/>
      <point x="72" y="607"/>
      <point x="94" y="570" type="curve" smooth="yes"/>
      <point x="152" y="475"/>
      <point x="333" y="161"/>
      <point x="367" y="109" type="curve" smooth="yes"/>
      <point x="382" y="86"/>
      <point x="409" y="60"/>
      <point x="413" y="33" type="curve"/>
      <point x="418" y="13"/>
      <point x="407" y="-11"/>
      <point x="397" y="-21" type="curve" smooth="yes"/>
      <point x="390" y="-29"/>
      <point x="382" y="-27"/>
      <point x="374" y="-16" type="curve" smooth="yes"/>
      <point x="360" y="4"/>
      <point x="344" y="35"/>
      <point x="332" y="56" type="curve" smooth="yes"/>
      <point x="293" y="130"/>
      <point x="108" y="471"/>
      <point x="61" y="547" type="curve" smooth="yes"/>
      <point x="32" y="592"/>
      <point x="24" y="607"/>
    </contour>
  </outline>
</glyph>
<glyph name="bracketright" format="1">
  <advance width="293"/>
  <unicode hex="005D"/>
  <outline>
    <contour>
      <point x="77" y="633" type="curve" smooth="yes"/>
      <point x="86" y="633"/>
      <point x="206" y="630"/>
      <point x="216" y="630" type="curve" smooth="yes"/>
      <point x="234" y="630"/>
      <point x="239" y="630"/>
      <point x="239" y="608" type="curve" smooth="yes"/>
      <point x="238" y="348"/>
      <point x="239" y="178"/>
      <point x="242" y="-13" type="curve" smooth="yes"/>
      <point x="242" y="-29"/>
      <point x="237" y="-34"/>
      <point x="221" y="-34" type="curve" smooth="yes"/>
      <point x="205" y="-34"/>
      <point x="80" y="-36"/>
      <point x="69" y="-36" type="curve" smooth="yes"/>
      <point x="60" y="-36"/>
      <point x="51" y="-26"/>
      <point x="51" y="-20" type="curve" smooth="yes"/>
      <point x="51" y="-14"/>
      <point x="55" y="-3"/>
      <point x="67" y="-3" type="curve" smooth="yes"/>
      <point x="79" y="-3"/>
      <point x="141" y="0"/>
      <point x="146" y="0" type="curve" smooth="yes"/>
      <point x="160" y="0"/>
      <point x="161" y="5"/>
      <point x="161" y="19" type="curve" smooth="yes"/>
      <point x="162" y="99"/>
      <point x="161" y="518"/>
      <point x="159" y="571" type="curve" smooth="yes"/>
      <point x="158" y="590"/>
      <point x="158" y="594"/>
      <point x="142" y="596" type="curve" smooth="yes"/>
      <point x="126" y="598"/>
      <point x="85" y="598"/>
      <point x="75" y="598" type="curve" smooth="yes"/>
      <point x="65" y="599"/>
      <point x="53" y="607"/>
      <point x="53" y="618" type="curve" smooth="yes"/>
      <point x="53" y="626"/>
      <point x="63" y="633"/>
    </contour>
  </outline>
</glyph>
<glyph name="asciicircum" format="1">
  <advance width="402"/>
  <unicode hex="005E"/>
  <outline>
    <contour>
      <point x="194" y="537" type="curve" smooth="yes"/>
      <point x="184" y="525"/>
      <point x="103" y="386"/>
      <point x="88" y="359" type="curve" smooth="yes"/>
      <point x="79" y="344"/>
      <point x="69" y="339"/>
      <point x="51" y="339" type="curve" smooth="yes"/>
      <point x="40" y="339"/>
      <point x="35" y="343"/>
      <point x="53" y="374" type="curve"/>
      <point x="66" y="393"/>
      <point x="149" y="532"/>
      <point x="178" y="585" type="curve" smooth="yes"/>
      <point x="182" y="593"/>
      <point x="189" y="601"/>
      <point x="205" y="605" type="curve" smooth="yes"/>
      <point x="220" y="609"/>
      <point x="222" y="601"/>
      <point x="231" y="583" type="curve" smooth="yes"/>
      <point x="265" y="521"/>
      <point x="309" y="455"/>
      <point x="321" y="437" type="curve" smooth="yes"/>
      <point x="332" y="419"/>
      <point x="354" y="395"/>
      <point x="358" y="375" type="curve"/>
      <point x="360" y="358"/>
      <point x="348" y="346"/>
      <point x="343" y="339" type="curve" smooth="yes"/>
      <point x="338" y="332"/>
      <point x="329" y="331"/>
      <point x="322" y="340" type="curve" smooth="yes"/>
      <point x="312" y="355"/>
      <point x="298" y="380"/>
      <point x="291" y="395" type="curve" smooth="yes"/>
      <point x="278" y="423"/>
      <point x="250" y="475"/>
      <point x="212" y="537" type="curve" smooth="yes"/>
      <point x="207" y="545"/>
      <point x="200" y="545"/>
    </contour>
  </outline>
</glyph>
<glyph name="underscore" format="1">
  <advance width="441"/>
  <unicode hex="005F"/>
  <outline>
    <contour>
      <point x="41" y="-71" type="curve" smooth="yes"/>
      <point x="20" y="-71"/>
      <point x="12" y="-60"/>
      <point x="18" y="-47" type="curve" smooth="yes"/>
      <point x="24" y="-33"/>
      <point x="37" y="-30"/>
      <point x="58" y="-30" type="curve" smooth="yes"/>
      <point x="186" y="-29"/>
      <point x="279" y="-24"/>
      <point x="374" y="-16" type="curve" smooth="yes"/>
      <point x="399" y="-13"/>
      <point x="418" y="-7"/>
      <point x="418" y="-24" type="curve" smooth="yes"/>
      <point x="418" y="-33"/>
      <point x="407" y="-53"/>
      <point x="391" y="-61" type="curve" smooth="yes"/>
      <point x="379" y="-68"/>
      <point x="366" y="-68"/>
      <point x="354" y="-68" type="curve" smooth="yes"/>
      <point x="306" y="-69"/>
      <point x="87" y="-71"/>
    </contour>
  </outline>
</glyph>
<glyph name="grave" format="1">
  <advance width="477"/>
  <unicode hex="0060"/>
  <outline>
    <contour>
      <point x="319" y="513" type="curve" smooth="yes"/>
      <point x="326" y="507"/>
      <point x="322" y="494"/>
      <point x="318" y="491" type="curve"/>
      <point x="313" y="485"/>
      <point x="297" y="491"/>
      <point x="279" y="503" type="curve"/>
      <point x="254" y="517"/>
      <point x="186" y="551"/>
      <point x="157" y="565" type="curve" smooth="yes"/>
      <point x="151" y="568"/>
      <point x="149" y="583"/>
      <point x="164" y="588" type="curve" smooth="yes"/>
      <point x="178" y="593"/>
      <point x="183" y="597"/>
      <point x="200" y="599" type="curve" smooth="yes"/>
      <point x="229" y="604"/>
      <point x="239" y="604"/>
      <point x="254" y="586" type="curve"/>
      <point x="269" y="565"/>
      <point x="290" y="543"/>
    </contour>
  </outline>
</glyph>
<glyph name="b" format="1">
  <advance width="510"/>
  <unicode hex="0062"/>
  <outline>
    <contour>
      <point x="71" y="-80" type="curve" smooth="yes"/>
      <point x="63" y="-78"/>
      <point x="59" y="-71"/>
      <point x="60" y="-64" type="curve" smooth="yes"/>
      <point x="65" y="-19"/>
      <point x="72" y="36"/>
      <point x="73" y="70" type="curve" smooth="yes"/>
      <point x="77" y="210"/>
      <point x="80" y="460"/>
      <point x="80" y="577" type="curve" smooth="yes"/>
      <point x="80" y="599"/>
      <point x="80" y="618"/>
      <point x="72" y="627" type="curve"/>
      <point x="62" y="636"/>
      <point x="35" y="641"/>
      <point x="8" y="636" type="curve" smooth="yes"/>
      <point x="-5" y="634"/>
      <point x="-13" y="641"/>
      <point x="-13" y="649" type="curve" smooth="yes"/>
      <point x="-13" y="658"/>
      <point x="-5" y="665"/>
      <point x="4" y="667" type="curve" smooth="yes"/>
      <point x="28" y="672"/>
      <point x="96" y="684"/>
      <point x="126" y="689" type="curve" smooth="yes"/>
      <point x="140" y="691"/>
      <point x="157" y="691"/>
      <point x="162" y="691" type="curve" smooth="yes"/>
      <point x="168" y="691"/>
      <point x="174" y="684"/>
      <point x="173" y="663" type="curve" smooth="yes"/>
      <point x="168" y="577"/>
      <point x="171" y="437"/>
      <point x="168" y="347" type="curve" smooth="yes"/>
      <point x="168" y="334"/>
      <point x="173" y="318"/>
      <point x="188" y="338" type="curve" smooth="yes"/>
      <point x="226" y="392"/>
      <point x="279" y="444"/>
      <point x="331" y="444" type="curve" smooth="yes"/>
      <point x="433" y="444"/>
      <point x="481" y="380"/>
      <point x="481" y="264" type="curve" smooth="yes"/>
      <point x="481" y="131"/>
      <point x="386" y="-13"/>
      <point x="234" y="-13" type="curve" smooth="yes"/>
      <point x="204" y="-13"/>
      <point x="169" y="-4"/>
      <point x="154" y="4" type="curve" smooth="yes"/>
      <point x="133" y="15"/>
      <point x="130" y="19"/>
      <point x="123" y="6" type="curve" smooth="yes"/>
      <point x="114" y="-10"/>
      <point x="96" y="-52"/>
      <point x="88" y="-69" type="curve" smooth="yes"/>
      <point x="85" y="-74"/>
      <point x="78" y="-81"/>
    </contour>
    <contour>
      <point x="306" y="370" type="curve" smooth="yes"/>
      <point x="259" y="370"/>
      <point x="221" y="334"/>
      <point x="190" y="270" type="curve"/>
      <point x="162" y="209"/>
      <point x="162" y="166"/>
      <point x="164" y="103" type="curve" smooth="yes"/>
      <point x="165" y="76"/>
      <point x="167" y="74"/>
      <point x="178" y="63" type="curve" smooth="yes"/>
      <point x="195" y="45"/>
      <point x="213" y="35"/>
      <point x="247" y="35" type="curve" smooth="yes"/>
      <point x="338" y="35"/>
      <point x="386" y="121"/>
      <point x="386" y="259" type="curve" smooth="yes"/>
      <point x="386" y="317"/>
      <point x="363" y="370"/>
    </contour>
  </outline>
</glyph>
<glyph name="f" format="1">
  <advance width="365"/>
  <unicode hex="0066"/>
  <outline>
    <contour>
      <point x="204" y="96" type="curve" smooth="yes"/>
      <point x="206" y="59"/>
      <point x="226" y="40"/>
      <point x="303" y="29" type="curve" smooth="yes"/>
      <point x="307" y="29"/>
      <point x="313" y="21"/>
      <point x="313" y="16" type="curve" smooth="yes"/>
      <point x="313" y="10"/>
      <point x="308" y="-2"/>
      <point x="299" y="-1" type="curve" smooth="yes"/>
      <point x="205" y="4"/>
      <point x="129" y="7"/>
      <point x="39" y="-2" type="curve" smooth="yes"/>
      <point x="27" y="-3"/>
      <point x="20" y="6"/>
      <point x="20" y="14" type="curve" smooth="yes"/>
      <point x="20" y="21"/>
      <point x="24" y="29"/>
      <point x="38" y="31" type="curve" smooth="yes"/>
      <point x="77" y="38"/>
      <point x="109" y="64"/>
      <point x="109" y="98" type="curve" smooth="yes"/>
      <point x="109" y="157"/>
      <point x="112" y="274"/>
      <point x="111" y="356" type="curve" smooth="yes"/>
      <point x="111" y="380"/>
      <point x="107" y="382"/>
      <point x="96" y="382" type="curve" smooth="yes"/>
      <point x="78" y="382"/>
      <point x="56" y="381"/>
      <point x="51" y="381" type="curve" smooth="yes"/>
      <point x="39" y="381"/>
      <point x="42" y="393"/>
      <point x="46" y="402" type="curve" smooth="yes"/>
      <point x="51" y="412"/>
      <point x="58" y="422"/>
      <point x="64" y="423" type="curve"/>
      <point x="75" y="428"/>
      <point x="86" y="428"/>
      <point x="97" y="428" type="curve" smooth="yes"/>
      <point x="110" y="428"/>
      <point x="113" y="429"/>
      <point x="114" y="442" type="curve" smooth="yes"/>
      <point x="136" y="625"/>
      <point x="240" y="695"/>
      <point x="305" y="695" type="curve" smooth="yes"/>
      <point x="364" y="695"/>
      <point x="382" y="668"/>
      <point x="382" y="617" type="curve" smooth="yes"/>
      <point x="382" y="591"/>
      <point x="358" y="560"/>
      <point x="341" y="542" type="curve" smooth="yes"/>
      <point x="334" y="535"/>
      <point x="319" y="531"/>
      <point x="315" y="534" type="curve" smooth="yes"/>
      <point x="309" y="537"/>
      <point x="301" y="544"/>
      <point x="306" y="552" type="curve" smooth="yes"/>
      <point x="326" y="593"/>
      <point x="314" y="632"/>
      <point x="279" y="632" type="curve" smooth="yes"/>
      <point x="245" y="632"/>
      <point x="200" y="609"/>
      <point x="200" y="439" type="curve" smooth="yes"/>
      <point x="200" y="429"/>
      <point x="205" y="428"/>
      <point x="215" y="428" type="curve" smooth="yes"/>
      <point x="258" y="428"/>
      <point x="285" y="436"/>
      <point x="338" y="434" type="curve" smooth="yes"/>
      <point x="346" y="434"/>
      <point x="348" y="424"/>
      <point x="346" y="418" type="curve" smooth="yes"/>
      <point x="343" y="403"/>
      <point x="337" y="393"/>
      <point x="322" y="380" type="curve" smooth="yes"/>
      <point x="316" y="374"/>
      <point x="306" y="372"/>
      <point x="300" y="372" type="curve" smooth="yes"/>
      <point x="282" y="372"/>
      <point x="242" y="381"/>
      <point x="219" y="381" type="curve" smooth="yes"/>
      <point x="204" y="381"/>
      <point x="200" y="375"/>
      <point x="200" y="358" type="curve" smooth="yes"/>
      <point x="200" y="274"/>
      <point x="199" y="173"/>
    </contour>
  </outline>
</glyph>
<glyph name="g" format="1">
  <advance width="469"/>
  <unicode hex="0067"/>
  <outline>
    <contour>
      <point x="435" y="476" type="curve" smooth="yes"/>
      <point x="439" y="479"/>
      <point x="449" y="484"/>
      <point x="458" y="479" type="curve"/>
      <point x="468" y="471"/>
      <point x="459" y="454"/>
      <point x="452" y="445" type="curve" smooth="yes"/>
      <point x="434" y="420"/>
      <point x="403" y="401"/>
      <point x="382" y="386" type="curve"/>
      <point x="365" y="376"/>
      <point x="371" y="375"/>
      <point x="380" y="361" type="curve"/>
      <point x="381" y="355"/>
      <point x="387" y="332"/>
      <point x="387" y="320" type="curve" smooth="yes"/>
      <point x="387" y="248"/>
      <point x="302" y="194"/>
      <point x="225" y="187" type="curve" smooth="yes"/>
      <point x="198" y="184"/>
      <point x="177" y="151"/>
      <point x="177" y="133" type="curve" smooth="yes"/>
      <point x="177" y="116"/>
      <point x="184" y="106"/>
      <point x="212" y="92" type="curve" smooth="yes"/>
      <point x="265" y="64"/>
      <point x="322" y="45"/>
      <point x="375" y="15" type="curve" smooth="yes"/>
      <point x="423" y="-13"/>
      <point x="455" y="-41"/>
      <point x="455" y="-92" type="curve" smooth="yes"/>
      <point x="455" y="-218"/>
      <point x="297" y="-276"/>
      <point x="191" y="-276" type="curve" smooth="yes"/>
      <point x="48" y="-276"/>
      <point x="-17" y="-235"/>
      <point x="-17" y="-176" type="curve" smooth="yes"/>
      <point x="-17" y="-103"/>
      <point x="39" y="-81"/>
      <point x="72" y="-64" type="curve" smooth="yes"/>
      <point x="81" y="-60"/>
      <point x="105" y="-52"/>
      <point x="113" y="-61" type="curve" smooth="yes"/>
      <point x="117" y="-66"/>
      <point x="115" y="-77"/>
      <point x="105" y="-85" type="curve" smooth="yes"/>
      <point x="93" y="-94"/>
      <point x="75" y="-112"/>
      <point x="76" y="-152" type="curve" smooth="yes"/>
      <point x="77" y="-199"/>
      <point x="114" y="-229"/>
      <point x="192" y="-229" type="curve" smooth="yes"/>
      <point x="301" y="-229"/>
      <point x="365" y="-185"/>
      <point x="365" y="-134" type="curve" smooth="yes"/>
      <point x="365" y="-103"/>
      <point x="344" y="-79"/>
      <point x="318" y="-62" type="curve" smooth="yes"/>
      <point x="258" y="-24"/>
      <point x="209" y="-13"/>
      <point x="147" y="16" type="curve" smooth="yes"/>
      <point x="114" y="32"/>
      <point x="87" y="52"/>
      <point x="87" y="86" type="curve" smooth="yes"/>
      <point x="87" y="114"/>
      <point x="112" y="136"/>
      <point x="126" y="146" type="curve" smooth="yes"/>
      <point x="140" y="156"/>
      <point x="168" y="184"/>
      <point x="140" y="185" type="curve" smooth="yes"/>
      <point x="90" y="187"/>
      <point x="23" y="218"/>
      <point x="23" y="291" type="curve" smooth="yes"/>
      <point x="23" y="401"/>
      <point x="157" y="442"/>
      <point x="209" y="442" type="curve" smooth="yes"/>
      <point x="235" y="442"/>
      <point x="267" y="440"/>
      <point x="283" y="435" type="curve"/>
      <point x="304" y="430"/>
      <point x="317" y="425"/>
      <point x="338" y="425" type="curve" smooth="yes"/>
      <point x="379" y="425"/>
      <point x="412" y="455"/>
    </contour>
    <contour>
      <point x="123" y="297" type="curve" smooth="yes"/>
      <point x="123" y="258"/>
      <point x="149" y="226"/>
      <point x="190" y="226" type="curve" smooth="yes"/>
      <point x="256" y="226"/>
      <point x="287" y="257"/>
      <point x="287" y="320" type="curve" smooth="yes"/>
      <point x="287" y="378"/>
      <point x="253" y="399"/>
      <point x="199" y="399" type="curve" smooth="yes"/>
      <point x="166" y="399"/>
      <point x="123" y="374"/>
    </contour>
  </outline>
</glyph>
<glyph name="h" format="1">
  <advance width="634"/>
  <unicode hex="0068"/>
  <outline>
    <contour>
      <point x="43" y="668" type="curve" smooth="yes"/>
      <point x="65" y="670"/>
      <point x="152" y="684"/>
      <point x="172" y="689" type="curve" smooth="yes"/>
      <point x="206" y="698"/>
      <point x="208" y="686"/>
      <point x="208" y="653" type="curve" smooth="yes"/>
      <point x="205" y="473"/>
      <point x="199" y="478"/>
      <point x="199" y="327" type="curve" smooth="yes"/>
      <point x="199" y="312"/>
      <point x="206" y="307"/>
      <point x="221" y="330" type="curve" smooth="yes"/>
      <point x="240" y="361"/>
      <point x="307" y="446"/>
      <point x="380" y="446" type="curve" smooth="yes"/>
      <point x="459" y="446"/>
      <point x="524" y="403"/>
      <point x="523" y="323" type="curve" smooth="yes"/>
      <point x="523" y="288"/>
      <point x="520" y="158"/>
      <point x="521" y="127" type="curve" smooth="yes"/>
      <point x="523" y="54"/>
      <point x="529" y="33"/>
      <point x="574" y="28" type="curve" smooth="yes"/>
      <point x="584" y="27"/>
      <point x="614" y="26"/>
      <point x="614" y="10" type="curve" smooth="yes"/>
      <point x="614" y="-1"/>
      <point x="610" y="-4"/>
      <point x="594" y="-4" type="curve"/>
      <point x="574" y="-2"/>
      <point x="521" y="3"/>
      <point x="501" y="3" type="curve" smooth="yes"/>
      <point x="459" y="4"/>
      <point x="417" y="3"/>
      <point x="389" y="-2" type="curve" smooth="yes"/>
      <point x="383" y="-3"/>
      <point x="375" y="2"/>
      <point x="375" y="10" type="curve" smooth="yes"/>
      <point x="375" y="24"/>
      <point x="388" y="29"/>
      <point x="393" y="31" type="curve" smooth="yes"/>
      <point x="420" y="38"/>
      <point x="424" y="64"/>
      <point x="424" y="77" type="curve" smooth="yes"/>
      <point x="428" y="133"/>
      <point x="424" y="268"/>
      <point x="423" y="304" type="curve" smooth="yes"/>
      <point x="422" y="362"/>
      <point x="388" y="375"/>
      <point x="351" y="375" type="curve" smooth="yes"/>
      <point x="272" y="375"/>
      <point x="206" y="263"/>
      <point x="200" y="190" type="curve"/>
      <point x="198" y="153"/>
      <point x="197" y="122"/>
      <point x="199" y="93" type="curve" smooth="yes"/>
      <point x="201" y="48"/>
      <point x="247" y="39"/>
      <point x="285" y="34" type="curve" smooth="yes"/>
      <point x="301" y="31"/>
      <point x="304" y="20"/>
      <point x="304" y="14" type="curve" smooth="yes"/>
      <point x="304" y="3"/>
      <point x="293" y="-4"/>
      <point x="287" y="-3" type="curve" smooth="yes"/>
      <point x="221" y="4"/>
      <point x="113" y="3"/>
      <point x="41" y="-4" type="curve"/>
      <point x="24" y="-4"/>
      <point x="19" y="6"/>
      <point x="19" y="14" type="curve" smooth="yes"/>
      <point x="19" y="19"/>
      <point x="28" y="29"/>
      <point x="36" y="30" type="curve" smooth="yes"/>
      <point x="94" y="40"/>
      <point x="100" y="45"/>
      <point x="104" y="105" type="curve"/>
      <point x="109" y="161"/>
      <point x="111" y="500"/>
      <point x="111" y="572" type="curve" smooth="yes"/>
      <point x="111" y="626"/>
      <point x="115" y="643"/>
      <point x="58" y="636" type="curve" smooth="yes"/>
      <point x="45" y="634"/>
      <point x="29" y="638"/>
      <point x="28" y="647" type="curve" smooth="yes"/>
      <point x="26" y="658"/>
      <point x="33" y="668"/>
    </contour>
  </outline>
</glyph>
<glyph name="l" format="1">
  <advance width="296"/>
  <unicode hex="006C"/>
  <outline>
    <contour>
      <point x="249" y="-4" type="curve" smooth="yes"/>
      <point x="184" y="2"/>
      <point x="106" y="4"/>
      <point x="43" y="-3" type="curve"/>
      <point x="24" y="-4"/>
      <point x="19" y="8"/>
      <point x="19" y="15" type="curve" smooth="yes"/>
      <point x="19" y="27"/>
      <point x="31" y="33"/>
      <point x="47" y="35" type="curve" smooth="yes"/>
      <point x="87" y="40"/>
      <point x="98" y="45"/>
      <point x="101" y="98" type="curve" smooth="yes"/>
      <point x="109" y="254"/>
      <point x="111" y="525"/>
      <point x="107" y="583" type="curve" smooth="yes"/>
      <point x="105" y="610"/>
      <point x="100" y="636"/>
      <point x="64" y="634" type="curve" smooth="yes"/>
      <point x="51" y="633"/>
      <point x="24" y="621"/>
      <point x="23" y="646" type="curve" smooth="yes"/>
      <point x="22" y="654"/>
      <point x="27" y="664"/>
      <point x="35" y="665" type="curve" smooth="yes"/>
      <point x="77" y="670"/>
      <point x="140" y="678"/>
      <point x="169" y="694" type="curve" smooth="yes"/>
      <point x="198" y="710"/>
      <point x="215" y="699"/>
      <point x="212" y="668" type="curve" smooth="yes"/>
      <point x="198" y="484"/>
      <point x="200" y="236"/>
      <point x="202" y="99" type="curve" smooth="yes"/>
      <point x="203" y="50"/>
      <point x="213" y="39"/>
      <point x="252" y="35" type="curve" smooth="yes"/>
      <point x="273" y="33"/>
      <point x="277" y="20"/>
      <point x="277" y="14" type="curve" smooth="yes"/>
      <point x="277" y="2"/>
      <point x="268" y="-5"/>
    </contour>
  </outline>
</glyph>
<glyph name="m" format="1">
  <advance width="854"/>
  <unicode hex="006D"/>
  <outline>
    <contour>
      <point x="610" y="10" type="curve" smooth="yes"/>
      <point x="610" y="17"/>
      <point x="615" y="22"/>
      <point x="625" y="24" type="curve" smooth="yes"/>
      <point x="641" y="27"/>
      <point x="662" y="33"/>
      <point x="663" y="70" type="curve"/>
      <point x="668" y="139"/>
      <point x="668" y="232"/>
      <point x="666" y="287" type="curve"/>
      <point x="663" y="339"/>
      <point x="643" y="359"/>
      <point x="609" y="359" type="curve" smooth="yes"/>
      <point x="573" y="359"/>
      <point x="510" y="299"/>
      <point x="488" y="227" type="curve" smooth="yes"/>
      <point x="480" y="199"/>
      <point x="479" y="141"/>
      <point x="479" y="85" type="curve" smooth="yes"/>
      <point x="479" y="42"/>
      <point x="515" y="35"/>
      <point x="535" y="29" type="curve" smooth="yes"/>
      <point x="545" y="26"/>
      <point x="559" y="19"/>
      <point x="559" y="13" type="curve" smooth="yes"/>
      <point x="559" y="3"/>
      <point x="549" y="-3"/>
      <point x="535" y="-3" type="curve" smooth="yes"/>
      <point x="508" y="-3"/>
      <point x="481" y="4"/>
      <point x="440" y="4" type="curve" smooth="yes"/>
      <point x="426" y="4"/>
      <point x="382" y="-2"/>
      <point x="355" y="-2" type="curve" smooth="yes"/>
      <point x="343" y="-2"/>
      <point x="339" y="6"/>
      <point x="339" y="12" type="curve" smooth="yes"/>
      <point x="338" y="21"/>
      <point x="350" y="29"/>
      <point x="363" y="35" type="curve" smooth="yes"/>
      <point x="376" y="41"/>
      <point x="382" y="51"/>
      <point x="386" y="92" type="curve" smooth="yes"/>
      <point x="391" y="135"/>
      <point x="391" y="197"/>
      <point x="386" y="290" type="curve" smooth="yes"/>
      <point x="384" y="319"/>
      <point x="369" y="358"/>
      <point x="335" y="358" type="curve" smooth="yes"/>
      <point x="297" y="358"/>
      <point x="247" y="314"/>
      <point x="212" y="224" type="curve" smooth="yes"/>
      <point x="203" y="199"/>
      <point x="200" y="138"/>
      <point x="200" y="92" type="curve" smooth="yes"/>
      <point x="200" y="45"/>
      <point x="215" y="35"/>
      <point x="261" y="29" type="curve" smooth="yes"/>
      <point x="274" y="28"/>
      <point x="284" y="19"/>
      <point x="282" y="11" type="curve"/>
      <point x="281" y="2"/>
      <point x="275" y="-5"/>
      <point x="258" y="-4" type="curve" smooth="yes"/>
      <point x="237" y="-2"/>
      <point x="181" y="3"/>
      <point x="155" y="3" type="curve" smooth="yes"/>
      <point x="130" y="3"/>
      <point x="55" y="-3"/>
      <point x="42" y="-3" type="curve" smooth="yes"/>
      <point x="35" y="-3"/>
      <point x="20" y="3"/>
      <point x="19" y="12" type="curve"/>
      <point x="19" y="24"/>
      <point x="35" y="29"/>
      <point x="50" y="31" type="curve" smooth="yes"/>
      <point x="88" y="35"/>
      <point x="104" y="60"/>
      <point x="107" y="92" type="curve"/>
      <point x="109" y="167"/>
      <point x="111" y="307"/>
      <point x="109" y="355" type="curve" smooth="yes"/>
      <point x="108" y="402"/>
      <point x="86" y="391"/>
      <point x="47" y="386" type="curve" smooth="yes"/>
      <point x="35" y="384"/>
      <point x="24" y="393"/>
      <point x="24" y="402" type="curve" smooth="yes"/>
      <point x="24" y="407"/>
      <point x="35" y="418"/>
      <point x="50" y="420" type="curve" smooth="yes"/>
      <point x="98" y="429"/>
      <point x="140" y="437"/>
      <point x="183" y="437" type="curve" smooth="yes"/>
      <point x="197" y="437"/>
      <point x="203" y="430"/>
      <point x="201" y="364" type="curve" smooth="yes"/>
      <point x="200" y="330"/>
      <point x="197" y="319"/>
      <point x="198" y="311" type="curve" smooth="yes"/>
      <point x="199" y="297"/>
      <point x="211" y="299"/>
      <point x="217" y="308" type="curve" smooth="yes"/>
      <point x="258" y="376"/>
      <point x="314" y="443"/>
      <point x="375" y="443" type="curve" smooth="yes"/>
      <point x="437" y="443"/>
      <point x="473" y="370"/>
      <point x="471" y="315" type="curve" smooth="yes"/>
      <point x="470" y="299"/>
      <point x="482" y="295"/>
      <point x="492" y="312" type="curve" smooth="yes"/>
      <point x="527" y="371"/>
      <point x="588" y="443"/>
      <point x="642" y="443" type="curve" smooth="yes"/>
      <point x="725" y="443"/>
      <point x="758" y="371"/>
      <point x="758" y="295" type="curve" smooth="yes"/>
      <point x="758" y="270"/>
      <point x="757" y="111"/>
      <point x="758" y="80" type="curve" smooth="yes"/>
      <point x="758" y="55"/>
      <point x="777" y="36"/>
      <point x="809" y="29" type="curve" smooth="yes"/>
      <point x="823" y="26"/>
      <point x="833" y="21"/>
      <point x="833" y="13" type="curve" smooth="yes"/>
      <point x="833" y="5"/>
      <point x="824" y="-4"/>
      <point x="810" y="-4" type="curve" smooth="yes"/>
      <point x="785" y="-4"/>
      <point x="767" y="4"/>
      <point x="723" y="4" type="curve" smooth="yes"/>
      <point x="699" y="4"/>
      <point x="654" y="-4"/>
      <point x="632" y="-4" type="curve" smooth="yes"/>
      <point x="614" y="-4"/>
      <point x="610" y="5"/>
    </contour>
  </outline>
</glyph>
<glyph name="o" format="1">
  <advance width="492"/>
  <unicode hex="006F"/>
  <outline>
    <contour>
      <point x="222" y="-15" type="curve" smooth="yes"/>
      <point x="83" y="-15"/>
      <point x="23" y="73"/>
      <point x="23" y="203" type="curve" smooth="yes"/>
      <point x="23" y="303"/>
      <point x="108" y="444"/>
      <point x="269" y="444" type="curve" smooth="yes"/>
      <point x="402" y="444"/>
      <point x="464" y="349"/>
      <point x="464" y="254" type="curve" smooth="yes"/>
      <point x="464" y="68"/>
      <point x="339" y="-15"/>
    </contour>
    <contour>
      <point x="253" y="395" type="curve" smooth="yes"/>
      <point x="162" y="395"/>
      <point x="119" y="315"/>
      <point x="119" y="221" type="curve" smooth="yes"/>
      <point x="119" y="87"/>
      <point x="175" y="32"/>
      <point x="237" y="32" type="curve" smooth="yes"/>
      <point x="301" y="32"/>
      <point x="364" y="74"/>
      <point x="364" y="238" type="curve" smooth="yes"/>
      <point x="364" y="320"/>
      <point x="336" y="395"/>
    </contour>
  </outline>
</glyph>
<glyph name="p" format="1">
  <advance width="545"/>
  <unicode hex="0070"/>
  <outline>
    <contour>
      <point x="210" y="4" type="curve"/>
      <point x="190" y="8"/>
      <point x="183" y="8"/>
      <point x="182" y="-7" type="curve" smooth="yes"/>
      <point x="181" y="-16"/>
      <point x="180" y="-26"/>
      <point x="180" y="-37" type="curve" smooth="yes"/>
      <point x="180" y="-88"/>
      <point x="185" y="-125"/>
      <point x="189" y="-163" type="curve" smooth="yes"/>
      <point x="191" y="-178"/>
      <point x="200" y="-204"/>
      <point x="204" y="-220" type="curve" smooth="yes"/>
      <point x="208" y="-235"/>
      <point x="206" y="-247"/>
      <point x="194" y="-254" type="curve"/>
      <point x="173" y="-263"/>
      <point x="117" y="-271"/>
      <point x="103" y="-271" type="curve" smooth="yes"/>
      <point x="90" y="-271"/>
      <point x="85" y="-267"/>
      <point x="82" y="-259" type="curve" smooth="yes"/>
      <point x="71" y="-237"/>
      <point x="73" y="-191"/>
      <point x="77" y="-162" type="curve" smooth="yes"/>
      <point x="82" y="-116"/>
      <point x="87" y="-66"/>
      <point x="88" y="-17" type="curve" smooth="yes"/>
      <point x="91" y="77"/>
      <point x="95" y="210"/>
      <point x="89" y="326" type="curve" smooth="yes"/>
      <point x="87" y="375"/>
      <point x="91" y="388"/>
      <point x="25" y="384" type="curve" smooth="yes"/>
      <point x="12" y="383"/>
      <point x="7" y="392"/>
      <point x="6" y="396" type="curve" smooth="yes"/>
      <point x="5" y="402"/>
      <point x="9" y="415"/>
      <point x="24" y="418" type="curve" smooth="yes"/>
      <point x="66" y="427"/>
      <point x="123" y="430"/>
      <point x="163" y="439" type="curve"/>
      <point x="201" y="439"/>
      <point x="194" y="420"/>
      <point x="191" y="388" type="curve" smooth="yes"/>
      <point x="189" y="368"/>
      <point x="184" y="341"/>
      <point x="184" y="331" type="curve" smooth="yes"/>
      <point x="184" y="311"/>
      <point x="196" y="314"/>
      <point x="208" y="331" type="curve" smooth="yes"/>
      <point x="242" y="380"/>
      <point x="306" y="448"/>
      <point x="370" y="448" type="curve" smooth="yes"/>
      <point x="448" y="448"/>
      <point x="503" y="408"/>
      <point x="503" y="261" type="curve" smooth="yes"/>
      <point x="503" y="111"/>
      <point x="385" y="-7"/>
      <point x="273" y="-7" type="curve" smooth="yes"/>
      <point x="238" y="-7"/>
      <point x="237" y="-3"/>
    </contour>
    <contour>
      <point x="339" y="375" type="curve" smooth="yes"/>
      <point x="289" y="375"/>
      <point x="246" y="318"/>
      <point x="228" y="293" type="curve" smooth="yes"/>
      <point x="197" y="247"/>
      <point x="179" y="198"/>
      <point x="179" y="152" type="curve" smooth="yes"/>
      <point x="179" y="125"/>
      <point x="180" y="106"/>
      <point x="180" y="94" type="curve" smooth="yes"/>
      <point x="180" y="77"/>
      <point x="184" y="75"/>
      <point x="195" y="70" type="curve" smooth="yes"/>
      <point x="223" y="56"/>
      <point x="240" y="43"/>
      <point x="279" y="43" type="curve" smooth="yes"/>
      <point x="391" y="43"/>
      <point x="411" y="160"/>
      <point x="411" y="250" type="curve" smooth="yes"/>
      <point x="411" y="351"/>
      <point x="380" y="375"/>
    </contour>
  </outline>
</glyph>
<glyph name="q" format="1">
  <advance width="519"/>
  <unicode hex="0071"/>
  <outline>
    <contour>
      <point x="357" y="-271" type="curve" smooth="yes"/>
      <point x="346" y="-271"/>
      <point x="340" y="-269"/>
      <point x="336" y="-261" type="curve" smooth="yes"/>
      <point x="326" y="-239"/>
      <point x="332" y="-191"/>
      <point x="335" y="-162" type="curve" smooth="yes"/>
      <point x="343" y="-94"/>
      <point x="349" y="-19"/>
      <point x="346" y="60" type="curve" smooth="yes"/>
      <point x="346" y="72"/>
      <point x="343" y="80"/>
      <point x="342" y="80" type="curve"/>
      <point x="342" y="84"/>
      <point x="336" y="84"/>
      <point x="326" y="71" type="curve" smooth="yes"/>
      <point x="301" y="41"/>
      <point x="251" y="-13"/>
      <point x="192" y="-13" type="curve" smooth="yes"/>
      <point x="56" y="-13"/>
      <point x="28" y="104"/>
      <point x="28" y="150" type="curve"/>
      <point x="20" y="321"/>
      <point x="155" y="440"/>
      <point x="285" y="440" type="curve" smooth="yes"/>
      <point x="325" y="440"/>
      <point x="346" y="429"/>
      <point x="359" y="423" type="curve" smooth="yes"/>
      <point x="379" y="415"/>
      <point x="376" y="419"/>
      <point x="385" y="432" type="curve" smooth="yes"/>
      <point x="396" y="449"/>
      <point x="413" y="471"/>
      <point x="424" y="498" type="curve" smooth="yes"/>
      <point x="430" y="513"/>
      <point x="438" y="520"/>
      <point x="447" y="520" type="curve" smooth="yes"/>
      <point x="458" y="520"/>
      <point x="458" y="507"/>
      <point x="458" y="500" type="curve" smooth="yes"/>
      <point x="458" y="491"/>
      <point x="449" y="458"/>
      <point x="447" y="444" type="curve" smooth="yes"/>
      <point x="428" y="258"/>
      <point x="436" y="-29"/>
      <point x="442" y="-172" type="curve" smooth="yes"/>
      <point x="442" y="-186"/>
      <point x="451" y="-204"/>
      <point x="455" y="-220" type="curve" smooth="yes"/>
      <point x="459" y="-235"/>
      <point x="456" y="-247"/>
      <point x="444" y="-254" type="curve"/>
      <point x="424" y="-263"/>
      <point x="371" y="-271"/>
    </contour>
    <contour>
      <point x="215" y="54" type="curve" smooth="yes"/>
      <point x="269" y="54"/>
      <point x="309" y="109"/>
      <point x="328" y="159" type="curve" smooth="yes"/>
      <point x="345" y="204"/>
      <point x="357" y="301"/>
      <point x="350" y="350" type="curve" smooth="yes"/>
      <point x="346" y="380"/>
      <point x="295" y="395"/>
      <point x="262" y="394" type="curve" smooth="yes"/>
      <point x="184" y="392"/>
      <point x="123" y="312"/>
      <point x="123" y="176" type="curve" smooth="yes"/>
      <point x="123" y="87"/>
      <point x="163" y="54"/>
    </contour>
  </outline>
</glyph>
<glyph name="v" format="1">
  <advance width="500"/>
  <unicode hex="0076"/>
  <outline>
    <contour>
      <point x="207" y="-8" type="curve" smooth="yes"/>
      <point x="190" y="-8"/>
      <point x="186" y="34"/>
      <point x="178" y="58" type="curve" smooth="yes"/>
      <point x="151" y="146"/>
      <point x="113" y="261"/>
      <point x="77" y="338" type="curve" smooth="yes"/>
      <point x="54" y="386"/>
      <point x="45" y="385"/>
      <point x="1" y="400" type="curve"/>
      <point x="-12" y="403"/>
      <point x="-18" y="412"/>
      <point x="-17" y="419" type="curve" smooth="yes"/>
      <point x="-16" y="428"/>
      <point x="-7" y="434"/>
      <point x="8" y="433" type="curve" smooth="yes"/>
      <point x="26" y="432"/>
      <point x="78" y="428"/>
      <point x="113" y="428" type="curve" smooth="yes"/>
      <point x="141" y="428"/>
      <point x="177" y="432"/>
      <point x="202" y="432" type="curve" smooth="yes"/>
      <point x="221" y="432"/>
      <point x="225" y="428"/>
      <point x="226" y="419" type="curve" smooth="yes"/>
      <point x="226" y="412"/>
      <point x="220" y="406"/>
      <point x="205" y="400" type="curve" smooth="yes"/>
      <point x="176" y="388"/>
      <point x="178" y="353"/>
      <point x="181" y="335" type="curve" smooth="yes"/>
      <point x="186" y="310"/>
      <point x="246" y="142"/>
      <point x="261" y="108" type="curve" smooth="yes"/>
      <point x="265" y="99"/>
      <point x="279" y="99"/>
      <point x="283" y="108" type="curve" smooth="yes"/>
      <point x="324" y="197"/>
      <point x="357" y="279"/>
      <point x="370" y="354" type="curve" smooth="yes"/>
      <point x="374" y="376"/>
      <point x="358" y="392"/>
      <point x="333" y="398" type="curve" smooth="yes"/>
      <point x="316" y="402"/>
      <point x="308" y="412"/>
      <point x="311" y="420" type="curve" smooth="yes"/>
      <point x="313" y="428"/>
      <point x="319" y="435"/>
      <point x="332" y="434" type="curve"/>
      <point x="359" y="428"/>
      <point x="386" y="428"/>
      <point x="417" y="428" type="curve" smooth="yes"/>
      <point x="439" y="428"/>
      <point x="461" y="432"/>
      <point x="467" y="433" type="curve" smooth="yes"/>
      <point x="476" y="434"/>
      <point x="487" y="427"/>
      <point x="487" y="418" type="curve" smooth="yes"/>
      <point x="487" y="408"/>
      <point x="481" y="401"/>
      <point x="471" y="393" type="curve" smooth="yes"/>
      <point x="451" y="377"/>
      <point x="437" y="354"/>
      <point x="428" y="338" type="curve" smooth="yes"/>
      <point x="399" y="286"/>
      <point x="342" y="157"/>
      <point x="311" y="69" type="curve" smooth="yes"/>
      <point x="308" y="61"/>
      <point x="301" y="45"/>
      <point x="303" y="30" type="curve" smooth="yes"/>
      <point x="305" y="6"/>
      <point x="227" y="-8"/>
    </contour>
  </outline>
</glyph>
<glyph name="x" format="1">
  <advance width="562"/>
  <unicode hex="0078"/>
  <outline>
    <contour>
      <point x="32" y="416" type="curve" smooth="yes"/>
      <point x="32" y="428"/>
      <point x="45" y="432"/>
      <point x="65" y="431" type="curve" smooth="yes"/>
      <point x="112" y="428"/>
      <point x="178" y="428"/>
      <point x="230" y="433" type="curve" smooth="yes"/>
      <point x="238" y="434"/>
      <point x="252" y="430"/>
      <point x="252" y="421" type="curve" smooth="yes"/>
      <point x="252" y="413"/>
      <point x="249" y="411"/>
      <point x="237" y="398" type="curve"/>
      <point x="229" y="391"/>
      <point x="231" y="378"/>
      <point x="243" y="360" type="curve" smooth="yes"/>
      <point x="262" y="333"/>
      <point x="283" y="300"/>
      <point x="295" y="285" type="curve" smooth="yes"/>
      <point x="301" y="278"/>
      <point x="308" y="279"/>
      <point x="314" y="284" type="curve" smooth="yes"/>
      <point x="334" y="301"/>
      <point x="370" y="338"/>
      <point x="379" y="357" type="curve" smooth="yes"/>
      <point x="387" y="375"/>
      <point x="393" y="396"/>
      <point x="375" y="403" type="curve" smooth="yes"/>
      <point x="364" y="408"/>
      <point x="355" y="411"/>
      <point x="355" y="419" type="curve" smooth="yes"/>
      <point x="355" y="425"/>
      <point x="360" y="433"/>
      <point x="375" y="432" type="curve" smooth="yes"/>
      <point x="412" y="428"/>
      <point x="460" y="428"/>
      <point x="495" y="431" type="curve" smooth="yes"/>
      <point x="506" y="432"/>
      <point x="514" y="426"/>
      <point x="514" y="420" type="curve" smooth="yes"/>
      <point x="514" y="415"/>
      <point x="508" y="406"/>
      <point x="497" y="399" type="curve"/>
      <point x="489" y="396"/>
      <point x="468" y="379"/>
      <point x="464" y="375" type="curve" smooth="yes"/>
      <point x="414" y="333"/>
      <point x="374" y="295"/>
      <point x="335" y="252" type="curve" smooth="yes"/>
      <point x="327" y="242"/>
      <point x="327" y="240"/>
      <point x="332" y="231" type="curve" smooth="yes"/>
      <point x="371" y="172"/>
      <point x="401" y="131"/>
      <point x="449" y="76" type="curve" smooth="yes"/>
      <point x="466" y="56"/>
      <point x="492" y="40"/>
      <point x="514" y="33" type="curve" smooth="yes"/>
      <point x="537" y="25"/>
      <point x="543" y="21"/>
      <point x="543" y="9" type="curve" smooth="yes"/>
      <point x="543" y="1"/>
      <point x="537" y="-5"/>
      <point x="517" y="-4" type="curve"/>
      <point x="475" y="1"/>
      <point x="410" y="4"/>
      <point x="353" y="-4" type="curve" smooth="yes"/>
      <point x="332" y="-6"/>
      <point x="328" y="0"/>
      <point x="328" y="8" type="curve" smooth="yes"/>
      <point x="328" y="12"/>
      <point x="332" y="19"/>
      <point x="341" y="28" type="curve" smooth="yes"/>
      <point x="348" y="36"/>
      <point x="343" y="54"/>
      <point x="336" y="66" type="curve" smooth="yes"/>
      <point x="325" y="83"/>
      <point x="285" y="148"/>
      <point x="267" y="168" type="curve" smooth="yes"/>
      <point x="262" y="174"/>
      <point x="251" y="173"/>
      <point x="245" y="169" type="curve" smooth="yes"/>
      <point x="223" y="151"/>
      <point x="194" y="113"/>
      <point x="182" y="93" type="curve"/>
      <point x="170" y="76"/>
      <point x="164" y="68"/>
      <point x="164" y="56" type="curve"/>
      <point x="166" y="45"/>
      <point x="176" y="41"/>
      <point x="194" y="33" type="curve"/>
      <point x="199" y="32"/>
      <point x="223" y="23"/>
      <point x="223" y="14" type="curve" smooth="yes"/>
      <point x="223" y="7"/>
      <point x="209" y="-3"/>
      <point x="196" y="-1" type="curve" smooth="yes"/>
      <point x="161" y="3"/>
      <point x="82" y="2"/>
      <point x="36" y="-3" type="curve" smooth="yes"/>
      <point x="27" y="-3"/>
      <point x="19" y="0"/>
      <point x="19" y="10" type="curve" smooth="yes"/>
      <point x="19" y="24"/>
      <point x="30" y="31"/>
      <point x="42" y="35" type="curve"/>
      <point x="72" y="42"/>
      <point x="92" y="64"/>
      <point x="125" y="94" type="curve"/>
      <point x="141" y="111"/>
      <point x="205" y="183"/>
      <point x="220" y="204" type="curve" smooth="yes"/>
      <point x="226" y="211"/>
      <point x="226" y="224"/>
      <point x="220" y="232" type="curve" smooth="yes"/>
      <point x="194" y="268"/>
      <point x="156" y="336"/>
      <point x="115" y="370" type="curve"/>
      <point x="102" y="383"/>
      <point x="68" y="390"/>
      <point x="49" y="397" type="curve" smooth="yes"/>
      <point x="35" y="402"/>
      <point x="32" y="410"/>
    </contour>
  </outline>
</glyph>
<glyph name="y" format="1">
  <advance width="482"/>
  <unicode hex="0079"/>
  <outline>
    <contour>
      <point x="69" y="-274" type="curve" smooth="yes"/>
      <point x="30" y="-274"/>
      <point x="4" y="-240"/>
      <point x="4" y="-205" type="curve" smooth="yes"/>
      <point x="4" y="-165"/>
      <point x="23" y="-138"/>
      <point x="40" y="-122" type="curve" smooth="yes"/>
      <point x="57" y="-107"/>
      <point x="75" y="-104"/>
      <point x="81" y="-109" type="curve" smooth="yes"/>
      <point x="85" y="-113"/>
      <point x="88" y="-125"/>
      <point x="79" y="-132" type="curve" smooth="yes"/>
      <point x="57" y="-151"/>
      <point x="68" y="-190"/>
      <point x="92" y="-190" type="curve" smooth="yes"/>
      <point x="155" y="-190"/>
      <point x="196" y="-70"/>
      <point x="206" y="-25" type="curve" smooth="yes"/>
      <point x="211" y="-4"/>
      <point x="205" y="13"/>
      <point x="200" y="29" type="curve"/>
      <point x="196" y="50"/>
      <point x="99" y="318"/>
      <point x="78" y="355" type="curve" smooth="yes"/>
      <point x="63" y="382"/>
      <point x="45" y="397"/>
      <point x="10" y="402" type="curve" smooth="yes"/>
      <point x="-6" y="405"/>
      <point x="-10" y="412"/>
      <point x="-10" y="423" type="curve" smooth="yes"/>
      <point x="-10" y="434"/>
      <point x="12" y="436"/>
      <point x="34" y="433" type="curve" smooth="yes"/>
      <point x="90" y="424"/>
      <point x="157" y="433"/>
      <point x="201" y="433" type="curve" smooth="yes"/>
      <point x="220" y="433"/>
      <point x="211" y="412"/>
      <point x="191" y="396" type="curve" smooth="yes"/>
      <point x="180" y="386"/>
      <point x="181" y="359"/>
      <point x="185" y="344" type="curve" smooth="yes"/>
      <point x="212" y="251"/>
      <point x="231" y="193"/>
      <point x="258" y="132" type="curve" smooth="yes"/>
      <point x="264" y="117"/>
      <point x="277" y="114"/>
      <point x="283" y="125" type="curve" smooth="yes"/>
      <point x="317" y="187"/>
      <point x="339" y="250"/>
      <point x="354" y="327" type="curve" smooth="yes"/>
      <point x="360" y="356"/>
      <point x="357" y="390"/>
      <point x="337" y="396" type="curve" smooth="yes"/>
      <point x="319" y="401"/>
      <point x="303" y="407"/>
      <point x="303" y="417" type="curve" smooth="yes"/>
      <point x="303" y="431"/>
      <point x="325" y="433"/>
      <point x="341" y="431" type="curve" smooth="yes"/>
      <point x="380" y="427"/>
      <point x="423" y="425"/>
      <point x="464" y="431" type="curve" smooth="yes"/>
      <point x="477" y="433"/>
      <point x="482" y="424"/>
      <point x="482" y="423" type="curve" smooth="yes"/>
      <point x="482" y="413"/>
      <point x="480" y="407"/>
      <point x="468" y="398" type="curve" smooth="yes"/>
      <point x="450" y="384"/>
      <point x="432" y="352"/>
      <point x="422" y="334" type="curve" smooth="yes"/>
      <point x="378" y="254"/>
      <point x="290" y="35"/>
      <point x="244" y="-48" type="curve"/>
      <point x="226" y="-85"/>
      <point x="183" y="-191"/>
      <point x="162" y="-218" type="curve"/>
      <point x="141" y="-242"/>
      <point x="120" y="-274"/>
    </contour>
  </outline>
</glyph>
<glyph name="braceleft" format="1">
  <advance width="279"/>
  <unicode hex="007B"/>
  <outline>
    <contour>
      <point x="194" y="631" type="curve" smooth="yes"/>
      <point x="217" y="631"/>
      <point x="219" y="620"/>
      <point x="219" y="613" type="curve" smooth="yes"/>
      <point x="219" y="607"/>
      <point x="214" y="597"/>
      <point x="190" y="593" type="curve" smooth="yes"/>
      <point x="165" y="588"/>
      <point x="152" y="566"/>
      <point x="152" y="513" type="curve"/>
      <point x="153" y="467"/>
      <point x="206" y="418"/>
      <point x="206" y="355" type="curve" smooth="yes"/>
      <point x="206" y="320"/>
      <point x="176" y="313"/>
      <point x="176" y="300" type="curve" smooth="yes"/>
      <point x="176" y="286"/>
      <point x="205" y="288"/>
      <point x="205" y="249" type="curve" smooth="yes"/>
      <point x="205" y="202"/>
      <point x="151" y="134"/>
      <point x="151" y="83" type="curve" smooth="yes"/>
      <point x="151" y="31"/>
      <point x="174" y="9"/>
      <point x="192" y="7" type="curve"/>
      <point x="207" y="3"/>
      <point x="219" y="-3"/>
      <point x="219" y="-14" type="curve" smooth="yes"/>
      <point x="219" y="-25"/>
      <point x="209" y="-34"/>
      <point x="180" y="-34" type="curve" smooth="yes"/>
      <point x="119" y="-34"/>
      <point x="62" y="1"/>
      <point x="62" y="63" type="curve" smooth="yes"/>
      <point x="62" y="130"/>
      <point x="152" y="191"/>
      <point x="152" y="258" type="curve" smooth="yes"/>
      <point x="152" y="278"/>
      <point x="119" y="280"/>
      <point x="93" y="280" type="curve" smooth="yes"/>
      <point x="78" y="280"/>
      <point x="59" y="272"/>
      <point x="47" y="272" type="curve" smooth="yes"/>
      <point x="35" y="272"/>
      <point x="32" y="291"/>
      <point x="34" y="303" type="curve" smooth="yes"/>
      <point x="36" y="314"/>
      <point x="43" y="329"/>
      <point x="55" y="329" type="curve" smooth="yes"/>
      <point x="67" y="329"/>
      <point x="79" y="320"/>
      <point x="98" y="320" type="curve" smooth="yes"/>
      <point x="118" y="320"/>
      <point x="166" y="316"/>
      <point x="166" y="357" type="curve" smooth="yes"/>
      <point x="166" y="407"/>
      <point x="66" y="464"/>
      <point x="66" y="536" type="curve" smooth="yes"/>
      <point x="66" y="594"/>
      <point x="146" y="631"/>
    </contour>
  </outline>
</glyph>
<glyph name="bar" format="1">
  <advance width="302"/>
  <unicode hex="007C"/>
  <outline>
    <contour>
      <point x="128" y="-24" type="curve" smooth="yes"/>
      <point x="128" y="20"/>
      <point x="127" y="502"/>
      <point x="128" y="549" type="curve" smooth="yes"/>
      <point x="128" y="561"/>
      <point x="128" y="575"/>
      <point x="135" y="586" type="curve"/>
      <point x="143" y="602"/>
      <point x="168" y="614"/>
      <point x="176" y="614" type="curve" smooth="yes"/>
      <point x="194" y="614"/>
      <point x="188" y="594"/>
      <point x="185" y="569" type="curve" smooth="yes"/>
      <point x="177" y="475"/>
      <point x="175" y="148"/>
      <point x="173" y="-8" type="curve" smooth="yes"/>
      <point x="173" y="-29"/>
      <point x="166" y="-42"/>
      <point x="152" y="-49" type="curve" smooth="yes"/>
      <point x="138" y="-55"/>
      <point x="128" y="-47"/>
    </contour>
  </outline>
</glyph>
<glyph name="braceright" format="1">
  <advance width="285"/>
  <unicode hex="007D"/>
  <outline>
    <contour>
      <point x="83" y="-34" type="curve" smooth="yes"/>
      <point x="61" y="-34"/>
      <point x="59" y="-22"/>
      <point x="59" y="-15" type="curve" smooth="yes"/>
      <point x="59" y="-9"/>
      <point x="64" y="-1"/>
      <point x="88" y="5" type="curve" smooth="yes"/>
      <point x="113" y="11"/>
      <point x="133" y="28"/>
      <point x="132" y="80" type="curve" smooth="yes"/>
      <point x="131" y="126"/>
      <point x="78" y="186"/>
      <point x="78" y="248" type="curve" smooth="yes"/>
      <point x="78" y="284"/>
      <point x="109" y="290"/>
      <point x="109" y="304" type="curve" smooth="yes"/>
      <point x="109" y="317"/>
      <point x="80" y="316"/>
      <point x="80" y="354" type="curve" smooth="yes"/>
      <point x="80" y="402"/>
      <point x="134" y="464"/>
      <point x="134" y="514" type="curve" smooth="yes"/>
      <point x="134" y="566"/>
      <point x="110" y="588"/>
      <point x="93" y="591" type="curve" smooth="yes"/>
      <point x="77" y="594"/>
      <point x="66" y="601"/>
      <point x="66" y="612" type="curve" smooth="yes"/>
      <point x="66" y="623"/>
      <point x="76" y="631"/>
      <point x="104" y="631" type="curve" smooth="yes"/>
      <point x="166" y="631"/>
      <point x="222" y="597"/>
      <point x="222" y="535" type="curve" smooth="yes"/>
      <point x="222" y="467"/>
      <point x="125" y="412"/>
      <point x="125" y="346" type="curve" smooth="yes"/>
      <point x="125" y="326"/>
      <point x="166" y="323"/>
      <point x="192" y="323" type="curve" smooth="yes"/>
      <point x="206" y="323"/>
      <point x="226" y="332"/>
      <point x="237" y="332" type="curve" smooth="yes"/>
      <point x="249" y="332"/>
      <point x="253" y="312"/>
      <point x="251" y="301" type="curve" smooth="yes"/>
      <point x="248" y="290"/>
      <point x="242" y="274"/>
      <point x="230" y="274" type="curve" smooth="yes"/>
      <point x="217" y="274"/>
      <point x="205" y="284"/>
      <point x="186" y="284" type="curve" smooth="yes"/>
      <point x="167" y="284"/>
      <point x="128" y="288"/>
      <point x="128" y="247" type="curve" smooth="yes"/>
      <point x="128" y="197"/>
      <point x="222" y="134"/>
      <point x="222" y="61" type="curve" smooth="yes"/>
      <point x="222" y="3"/>
      <point x="132" y="-34"/>
    </contour>
  </outline>
</glyph>
<glyph name="asciitilde" format="1">
  <advance width="436"/>
  <unicode hex="007E"/>
  <outline>
    <contour>
      <point x="34" y="214" type="curve" smooth="yes"/>
      <point x="28" y="218"/>
      <point x="36" y="239"/>
      <point x="45" y="249" type="curve" smooth="yes"/>
      <point x="85" y="290"/>
      <point x="120" y="309"/>
      <point x="145" y="309" type="curve" smooth="yes"/>
      <point x="171" y="309"/>
      <point x="201" y="298"/>
      <point x="223" y="290" type="curve" smooth="yes"/>
      <point x="253" y="280"/>
      <point x="284" y="279"/>
      <point x="298" y="279" type="curve" smooth="yes"/>
      <point x="325" y="279"/>
      <point x="348" y="287"/>
      <point x="364" y="301" type="curve" smooth="yes"/>
      <point x="376" y="311"/>
      <point x="382" y="319"/>
      <point x="392" y="316" type="curve" smooth="yes"/>
      <point x="401" y="313"/>
      <point x="405" y="295"/>
      <point x="394" y="279" type="curve" smooth="yes"/>
      <point x="370" y="240"/>
      <point x="320" y="207"/>
      <point x="285" y="207" type="curve" smooth="yes"/>
      <point x="267" y="207"/>
      <point x="235" y="209"/>
      <point x="204" y="220" type="curve"/>
      <point x="174" y="229"/>
      <point x="148" y="238"/>
      <point x="133" y="238" type="curve" smooth="yes"/>
      <point x="104" y="238"/>
      <point x="88" y="230"/>
      <point x="66" y="215" type="curve" smooth="yes"/>
      <point x="56" y="209"/>
      <point x="45" y="207"/>
    </contour>
  </outline>
</glyph>
<glyph name="exclamdown" format="1">
  <advance width="251"/>
  <unicode hex="00A1"/>
  <outline>
    <contour>
      <point x="182" y="-128" type="curve" smooth="yes"/>
      <point x="182" y="-152"/>
      <point x="174" y="-157"/>
      <point x="159" y="-162" type="curve" smooth="yes"/>
      <point x="131" y="-170"/>
      <point x="104" y="-172"/>
      <point x="84" y="-172" type="curve" smooth="yes"/>
      <point x="67" y="-172"/>
      <point x="60" y="-175"/>
      <point x="60" y="-152" type="curve" smooth="yes"/>
      <point x="60" y="-128"/>
      <point x="86" y="-9"/>
      <point x="88" y="7" type="curve" smooth="yes"/>
      <point x="96" y="72"/>
      <point x="106" y="185"/>
      <point x="109" y="231" type="curve" smooth="yes"/>
      <point x="110" y="252"/>
      <point x="114" y="256"/>
      <point x="128" y="261" type="curve" smooth="yes"/>
      <point x="139" y="265"/>
      <point x="145" y="253"/>
      <point x="144" y="229" type="curve" smooth="yes"/>
      <point x="143" y="195"/>
      <point x="151" y="81"/>
      <point x="157" y="14" type="curve"/>
      <point x="160" y="-4"/>
      <point x="182" y="-114"/>
    </contour>
    <contour>
      <point x="128" y="338" type="curve" smooth="yes"/>
      <point x="97" y="338"/>
      <point x="70" y="354"/>
      <point x="70" y="380" type="curve" smooth="yes"/>
      <point x="70" y="421"/>
      <point x="108" y="439"/>
      <point x="138" y="439" type="curve" smooth="yes"/>
      <point x="188" y="439"/>
      <point x="196" y="413"/>
      <point x="196" y="391" type="curve" smooth="yes"/>
      <point x="196" y="356"/>
      <point x="152" y="338"/>
    </contour>
  </outline>
</glyph>
<glyph name="cent" format="1">
  <advance width="423"/>
  <unicode hex="00A2"/>
  <outline>
    <contour>
      <point x="377" y="393" type="curve" smooth="yes"/>
      <point x="383" y="358"/>
      <point x="345" y="316"/>
      <point x="311" y="302" type="curve"/>
      <point x="302" y="297"/>
      <point x="294" y="301"/>
      <point x="290" y="306" type="curve" smooth="yes"/>
      <point x="286" y="313"/>
      <point x="288" y="316"/>
      <point x="295" y="326" type="curve" smooth="yes"/>
      <point x="303" y="336"/>
      <point x="304" y="354"/>
      <point x="304" y="363" type="curve" smooth="yes"/>
      <point x="304" y="379"/>
      <point x="292" y="397"/>
      <point x="247" y="397" type="curve" smooth="yes"/>
      <point x="184" y="397"/>
      <point x="124" y="330"/>
      <point x="124" y="205" type="curve" smooth="yes"/>
      <point x="124" y="122"/>
      <point x="150" y="56"/>
      <point x="241" y="56" type="curve" smooth="yes"/>
      <point x="293" y="56"/>
      <point x="332" y="67"/>
      <point x="364" y="103" type="curve" smooth="yes"/>
      <point x="369" y="108"/>
      <point x="380" y="112"/>
      <point x="384" y="112" type="curve" smooth="yes"/>
      <point x="391" y="111"/>
      <point x="396" y="104"/>
      <point x="394" y="95" type="curve" smooth="yes"/>
      <point x="393" y="86"/>
      <point x="369" y="52"/>
      <point x="351" y="33" type="curve" smooth="yes"/>
      <point x="334" y="15"/>
      <point x="320" y="6"/>
      <point x="298" y="3" type="curve"/>
      <point x="285" y="0"/>
      <point x="286" y="-1"/>
      <point x="271" y="-1" type="curve" smooth="yes"/>
      <point x="265" y="-1"/>
      <point x="260" y="-8"/>
      <point x="260" y="-19" type="curve" smooth="yes"/>
      <point x="259" y="-34"/>
      <point x="259" y="-65"/>
      <point x="258" y="-74" type="curve" smooth="yes"/>
      <point x="257" y="-82"/>
      <point x="256" y="-84"/>
      <point x="247" y="-88" type="curve" smooth="yes"/>
      <point x="241" y="-91"/>
      <point x="223" y="-93"/>
      <point x="218" y="-93" type="curve" smooth="yes"/>
      <point x="211" y="-93"/>
      <point x="210" y="-88"/>
      <point x="210" y="-79" type="curve" smooth="yes"/>
      <point x="210" y="-16" type="line" smooth="yes"/>
      <point x="210" y="-4"/>
      <point x="202" y="-3"/>
      <point x="193" y="-1" type="curve" smooth="yes"/>
      <point x="92" y="13"/>
      <point x="28" y="71"/>
      <point x="33" y="198" type="curve" smooth="yes"/>
      <point x="38" y="327"/>
      <point x="130" y="409"/>
      <point x="207" y="435" type="curve" smooth="yes"/>
      <point x="214" y="438"/>
      <point x="218" y="445"/>
      <point x="218" y="453" type="curve" smooth="yes"/>
      <point x="218" y="468"/>
      <point x="218" y="502"/>
      <point x="220" y="512" type="curve" smooth="yes"/>
      <point x="221" y="519"/>
      <point x="221" y="520"/>
      <point x="231" y="525" type="curve" smooth="yes"/>
      <point x="237" y="529"/>
      <point x="253" y="529"/>
      <point x="258" y="529" type="curve" smooth="yes"/>
      <point x="265" y="529"/>
      <point x="266" y="525"/>
      <point x="266" y="516" type="curve" smooth="yes"/>
      <point x="267" y="502"/>
      <point x="267" y="469"/>
      <point x="267" y="457" type="curve" smooth="yes"/>
      <point x="267" y="450"/>
      <point x="269" y="447"/>
      <point x="272" y="445" type="curve"/>
      <point x="329" y="445"/>
      <point x="369" y="435"/>
    </contour>
  </outline>
</glyph>
<glyph name="sterling" format="1">
  <advance width="566"/>
  <unicode hex="00A3"/>
  <outline>
    <contour>
      <point x="364" y="449" type="curve" smooth="yes"/>
      <point x="353" y="460"/>
      <point x="366" y="473"/>
      <point x="375" y="479" type="curve"/>
      <point x="396" y="501"/>
      <point x="393" y="560"/>
      <point x="346" y="560" type="curve" smooth="yes"/>
      <point x="290" y="560"/>
      <point x="226" y="529"/>
      <point x="225" y="467" type="curve" smooth="yes"/>
      <point x="225" y="443"/>
      <point x="239" y="418"/>
      <point x="261" y="395" type="curve" smooth="yes"/>
      <point x="272" y="384"/>
      <point x="290" y="348"/>
      <point x="295" y="337" type="curve"/>
      <point x="299" y="322"/>
      <point x="304" y="311"/>
      <point x="318" y="311" type="curve" smooth="yes"/>
      <point x="364" y="311"/>
      <point x="387" y="312"/>
      <point x="407" y="320" type="curve"/>
      <point x="418" y="323"/>
      <point x="423" y="325"/>
      <point x="428" y="325" type="curve" smooth="yes"/>
      <point x="434" y="325"/>
      <point x="437" y="316"/>
      <point x="432" y="302" type="curve"/>
      <point x="425" y="288"/>
      <point x="423" y="279"/>
      <point x="418" y="269" type="curve"/>
      <point x="408" y="258"/>
      <point x="402" y="257"/>
      <point x="391" y="257" type="curve" smooth="yes"/>
      <point x="382" y="257"/>
      <point x="340" y="258"/>
      <point x="322" y="258" type="curve" smooth="yes"/>
      <point x="303" y="257"/>
      <point x="300" y="253"/>
      <point x="299" y="242" type="curve" smooth="yes"/>
      <point x="296" y="193"/>
      <point x="256" y="166"/>
      <point x="222" y="129" type="curve" smooth="yes"/>
      <point x="217" y="125"/>
      <point x="215" y="120"/>
      <point x="210" y="116" type="curve"/>
      <point x="205" y="104"/>
      <point x="217" y="107"/>
      <point x="228" y="109" type="curve" smooth="yes"/>
      <point x="246" y="112"/>
      <point x="259" y="112"/>
      <point x="272" y="112" type="curve" smooth="yes"/>
      <point x="291" y="112"/>
      <point x="311" y="108"/>
      <point x="333" y="98" type="curve"/>
      <point x="364" y="88"/>
      <point x="391" y="84"/>
      <point x="409" y="84" type="curve" smooth="yes"/>
      <point x="455" y="84"/>
      <point x="488" y="109"/>
      <point x="493" y="161" type="curve" smooth="yes"/>
      <point x="496" y="188"/>
      <point x="510" y="194"/>
      <point x="523" y="194" type="curve" smooth="yes"/>
      <point x="531" y="194"/>
      <point x="535" y="187"/>
      <point x="535" y="165" type="curve" smooth="yes"/>
      <point x="535" y="111"/>
      <point x="509" y="60"/>
      <point x="481" y="28" type="curve" smooth="yes"/>
      <point x="458" y="1"/>
      <point x="449" y="0"/>
      <point x="425" y="-4" type="curve"/>
      <point x="408" y="-8"/>
      <point x="396" y="-7"/>
      <point x="386" y="-7" type="curve" smooth="yes"/>
      <point x="361" y="-7"/>
      <point x="321" y="4"/>
      <point x="300" y="10" type="curve" smooth="yes"/>
      <point x="270" y="19"/>
      <point x="255" y="23"/>
      <point x="209" y="22" type="curve" smooth="yes"/>
      <point x="175" y="22"/>
      <point x="142" y="19"/>
      <point x="98" y="0" type="curve"/>
      <point x="68" y="-10"/>
      <point x="54" y="-19"/>
      <point x="51" y="10" type="curve" smooth="yes"/>
      <point x="50" y="24"/>
      <point x="56" y="60"/>
      <point x="64" y="77" type="curve"/>
      <point x="73" y="93"/>
      <point x="79" y="97"/>
      <point x="98" y="98" type="curve" smooth="yes"/>
      <point x="127" y="99"/>
      <point x="144" y="111"/>
      <point x="171" y="141" type="curve" smooth="yes"/>
      <point x="199" y="173"/>
      <point x="210" y="196"/>
      <point x="210" y="242" type="curve" smooth="yes"/>
      <point x="210" y="252"/>
      <point x="202" y="255"/>
      <point x="194" y="256" type="curve" smooth="yes"/>
      <point x="175" y="258"/>
      <point x="157" y="256"/>
      <point x="144" y="257" type="curve"/>
      <point x="128" y="257"/>
      <point x="125" y="266"/>
      <point x="131" y="282" type="curve" smooth="yes"/>
      <point x="137" y="297"/>
      <point x="160" y="300"/>
      <point x="178" y="302" type="curve" smooth="yes"/>
      <point x="203" y="306"/>
      <point x="204" y="322"/>
      <point x="181" y="348" type="curve" smooth="yes"/>
      <point x="153" y="380"/>
      <point x="134" y="415"/>
      <point x="134" y="455" type="curve" smooth="yes"/>
      <point x="134" y="545"/>
      <point x="275" y="604"/>
      <point x="354" y="604" type="curve" smooth="yes"/>
      <point x="413" y="604"/>
      <point x="480" y="597"/>
      <point x="480" y="545" type="curve" smooth="yes"/>
      <point x="480" y="513"/>
      <point x="447" y="472"/>
      <point x="396" y="454" type="curve" smooth="yes"/>
      <point x="386" y="450"/>
      <point x="370" y="442"/>
    </contour>
  </outline>
</glyph>
<glyph name="currency" format="1">
  <advance width="428"/>
  <unicode hex="00A4"/>
  <outline>
    <contour>
      <point x="66" y="443" type="curve"/>
      <point x="75" y="436"/>
      <point x="88" y="430"/>
      <point x="98" y="424" type="curve" smooth="yes"/>
      <point x="103" y="421"/>
      <point x="108" y="419"/>
      <point x="114" y="424" type="curve" smooth="yes"/>
      <point x="132" y="440"/>
      <point x="180" y="446"/>
      <point x="211" y="446" type="curve" smooth="yes"/>
      <point x="253" y="446"/>
      <point x="293" y="443"/>
      <point x="313" y="425" type="curve" smooth="yes"/>
      <point x="319" y="420"/>
      <point x="324" y="423"/>
      <point x="332" y="425" type="curve" smooth="yes"/>
      <point x="341" y="428"/>
      <point x="351" y="436"/>
      <point x="361" y="442" type="curve" smooth="yes"/>
      <point x="376" y="450"/>
      <point x="392" y="447"/>
      <point x="397" y="440" type="curve" smooth="yes"/>
      <point x="402" y="433"/>
      <point x="396" y="422"/>
      <point x="390" y="416" type="curve"/>
      <point x="359" y="393" type="line"/>
      <point x="353" y="390"/>
      <point x="353" y="385"/>
      <point x="359" y="380" type="curve"/>
      <point x="377" y="356"/>
      <point x="384" y="339"/>
      <point x="384" y="307" type="curve" smooth="yes"/>
      <point x="384" y="275"/>
      <point x="371" y="251"/>
      <point x="349" y="227" type="curve" smooth="yes"/>
      <point x="348" y="226"/>
      <point x="345" y="220"/>
      <point x="348" y="216" type="curve"/>
      <point x="361" y="205"/>
      <point x="377" y="194"/>
      <point x="386" y="185" type="curve"/>
      <point x="393" y="180"/>
      <point x="398" y="169"/>
      <point x="392" y="162" type="curve"/>
      <point x="388" y="155"/>
      <point x="375" y="152"/>
      <point x="360" y="162" type="curve" smooth="yes"/>
      <point x="348" y="169"/>
      <point x="337" y="177"/>
      <point x="326" y="182" type="curve" smooth="yes"/>
      <point x="316" y="186"/>
      <point x="316" y="188"/>
      <point x="307" y="183" type="curve" smooth="yes"/>
      <point x="284" y="169"/>
      <point x="246" y="161"/>
      <point x="211" y="161" type="curve" smooth="yes"/>
      <point x="164" y="161"/>
      <point x="130" y="170"/>
      <point x="110" y="182" type="curve" smooth="yes"/>
      <point x="104" y="185"/>
      <point x="98" y="184"/>
      <point x="92" y="181" type="curve" smooth="yes"/>
      <point x="82" y="177"/>
      <point x="70" y="169"/>
      <point x="59" y="162" type="curve" smooth="yes"/>
      <point x="45" y="153"/>
      <point x="30" y="155"/>
      <point x="25" y="162" type="curve" smooth="yes"/>
      <point x="20" y="169"/>
      <point x="24" y="182"/>
      <point x="31" y="187" type="curve" smooth="yes"/>
      <point x="40" y="195"/>
      <point x="53" y="204"/>
      <point x="65" y="213" type="curve" smooth="yes"/>
      <point x="71" y="218"/>
      <point x="71" y="221"/>
      <point x="66" y="228" type="curve"/>
      <point x="56" y="247"/>
      <point x="42" y="267"/>
      <point x="42" y="299" type="curve" smooth="yes"/>
      <point x="42" y="333"/>
      <point x="50" y="358"/>
      <point x="66" y="377" type="curve"/>
      <point x="72" y="386"/>
      <point x="71" y="390"/>
      <point x="66" y="393" type="curve" smooth="yes"/>
      <point x="36" y="416" type="line" smooth="yes"/>
      <point x="29" y="422"/>
      <point x="25" y="432"/>
      <point x="30" y="439" type="curve" smooth="yes"/>
      <point x="35" y="446"/>
      <point x="51" y="451"/>
    </contour>
    <contour>
      <point x="92" y="303" type="curve" smooth="yes"/>
      <point x="92" y="251"/>
      <point x="141" y="200"/>
      <point x="212" y="200" type="curve" smooth="yes"/>
      <point x="279" y="200"/>
      <point x="334" y="247"/>
      <point x="334" y="303" type="curve" smooth="yes"/>
      <point x="334" y="359"/>
      <point x="285" y="404"/>
      <point x="212" y="404" type="curve" smooth="yes"/>
      <point x="145" y="404"/>
      <point x="92" y="357"/>
    </contour>
  </outline>
</glyph>
<glyph name="yen" format="1">
  <advance width="566"/>
  <unicode hex="00A5"/>
  <outline>
    <contour>
      <point x="18" y="579" type="curve" smooth="yes"/>
      <point x="17" y="587"/>
      <point x="29" y="598"/>
      <point x="45" y="596" type="curve" smooth="yes"/>
      <point x="102" y="590"/>
      <point x="152" y="592"/>
      <point x="201" y="594" type="curve"/>
      <point x="212" y="596"/>
      <point x="219" y="594"/>
      <point x="222" y="588" type="curve" smooth="yes"/>
      <point x="226" y="582"/>
      <point x="226" y="568"/>
      <point x="216" y="559" type="curve"/>
      <point x="205" y="545"/>
      <point x="204" y="535"/>
      <point x="210" y="517" type="curve"/>
      <point x="202" y="523"/>
      <point x="295" y="374"/>
      <point x="299" y="370" type="curve" smooth="yes"/>
      <point x="306" y="363"/>
      <point x="312" y="362"/>
      <point x="325" y="374" type="curve" smooth="yes"/>
      <point x="350" y="397"/>
      <point x="400" y="476"/>
      <point x="405" y="508" type="curve" smooth="yes"/>
      <point x="410" y="536"/>
      <point x="399" y="551"/>
      <point x="381" y="562" type="curve" smooth="yes"/>
      <point x="368" y="571"/>
      <point x="367" y="579"/>
      <point x="371" y="588" type="curve" smooth="yes"/>
      <point x="374" y="593"/>
      <point x="387" y="596"/>
      <point x="394" y="594" type="curve"/>
      <point x="424" y="590"/>
      <point x="513" y="592"/>
      <point x="525" y="593" type="curve"/>
      <point x="540" y="596"/>
      <point x="555" y="593"/>
      <point x="555" y="580" type="curve" smooth="yes"/>
      <point x="555" y="568"/>
      <point x="545" y="563"/>
      <point x="522" y="550" type="curve"/>
      <point x="502" y="536"/>
      <point x="475" y="502"/>
      <point x="455" y="479" type="curve"/>
      <point x="425" y="439"/>
      <point x="380" y="385"/>
      <point x="352" y="344" type="curve"/>
      <point x="338" y="322" type="line"/>
      <point x="336" y="316"/>
      <point x="338" y="311"/>
      <point x="349" y="311" type="curve" smooth="yes"/>
      <point x="371" y="312"/>
      <point x="394" y="314"/>
      <point x="419" y="316" type="curve" smooth="yes"/>
      <point x="444" y="319"/>
      <point x="464" y="326"/>
      <point x="464" y="306" type="curve" smooth="yes"/>
      <point x="464" y="301"/>
      <point x="452" y="277"/>
      <point x="435" y="268" type="curve"/>
      <point x="425" y="261"/>
      <point x="412" y="261"/>
      <point x="399" y="261" type="curve" smooth="yes"/>
      <point x="386" y="260"/>
      <point x="367" y="260"/>
      <point x="340" y="259" type="curve" smooth="yes"/>
      <point x="329" y="259"/>
      <point x="325" y="255"/>
      <point x="325" y="244" type="curve" smooth="yes"/>
      <point x="324" y="231"/>
      <point x="324" y="223"/>
      <point x="324" y="206" type="curve" smooth="yes"/>
      <point x="324" y="198"/>
      <point x="331" y="194"/>
      <point x="338" y="194" type="curve" smooth="yes"/>
      <point x="364" y="195"/>
      <point x="388" y="198"/>
      <point x="419" y="200" type="curve"/>
      <point x="444" y="203"/>
      <point x="464" y="210"/>
      <point x="464" y="190" type="curve" smooth="yes"/>
      <point x="464" y="184"/>
      <point x="452" y="161"/>
      <point x="435" y="152" type="curve"/>
      <point x="425" y="145"/>
      <point x="412" y="145"/>
      <point x="399" y="145" type="curve" smooth="yes"/>
      <point x="386" y="144"/>
      <point x="363" y="144"/>
      <point x="335" y="143" type="curve" smooth="yes"/>
      <point x="332" y="143"/>
      <point x="324" y="143"/>
      <point x="324" y="118" type="curve" smooth="yes"/>
      <point x="324" y="70"/>
      <point x="351" y="50"/>
      <point x="397" y="35" type="curve"/>
      <point x="410" y="32"/>
      <point x="418" y="23"/>
      <point x="418" y="16" type="curve" smooth="yes"/>
      <point x="418" y="2"/>
      <point x="396" y="-5"/>
      <point x="386" y="-4" type="curve" smooth="yes"/>
      <point x="354" y="2"/>
      <point x="222" y="7"/>
      <point x="169" y="-2" type="curve" smooth="yes"/>
      <point x="154" y="-5"/>
      <point x="133" y="-1"/>
      <point x="131" y="9" type="curve"/>
      <point x="130" y="21"/>
      <point x="133" y="31"/>
      <point x="154" y="35" type="curve" smooth="yes"/>
      <point x="204" y="43"/>
      <point x="229" y="72"/>
      <point x="229" y="109" type="curve" smooth="yes"/>
      <point x="229" y="127"/>
      <point x="230" y="142"/>
      <point x="215" y="142" type="curve" smooth="yes"/>
      <point x="120" y="142" type="line" smooth="yes"/>
      <point x="99" y="142"/>
      <point x="91" y="152"/>
      <point x="97" y="166" type="curve" smooth="yes"/>
      <point x="104" y="180"/>
      <point x="116" y="186"/>
      <point x="137" y="186" type="curve" smooth="yes"/>
      <point x="168" y="186"/>
      <point x="194" y="187"/>
      <point x="217" y="188" type="curve" smooth="yes"/>
      <point x="222" y="188"/>
      <point x="231" y="191"/>
      <point x="231" y="203" type="curve" smooth="yes"/>
      <point x="231" y="244" type="line" smooth="yes"/>
      <point x="231" y="253"/>
      <point x="222" y="258"/>
      <point x="216" y="258" type="curve" smooth="yes"/>
      <point x="120" y="258" type="line" smooth="yes"/>
      <point x="99" y="258"/>
      <point x="91" y="269"/>
      <point x="97" y="282" type="curve" smooth="yes"/>
      <point x="104" y="296"/>
      <point x="116" y="302"/>
      <point x="137" y="302" type="curve" smooth="yes"/>
      <point x="168" y="302"/>
      <point x="194" y="302"/>
      <point x="218" y="304" type="curve" smooth="yes"/>
      <point x="225" y="305"/>
      <point x="229" y="307"/>
      <point x="222" y="322" type="curve" smooth="yes"/>
      <point x="202" y="366"/>
      <point x="129" y="474"/>
      <point x="104" y="507" type="curve"/>
      <point x="85" y="530"/>
      <point x="68" y="551"/>
      <point x="45" y="558" type="curve" smooth="yes"/>
      <point x="29" y="563"/>
      <point x="19" y="571"/>
    </contour>
  </outline>
</glyph>
<glyph name="brokenbar" format="1">
  <advance width="301"/>
  <unicode hex="00A6"/>
  <outline>
    <contour>
      <point x="125" y="320" type="curve" smooth="yes"/>
      <point x="125" y="341"/>
      <point x="124" y="551"/>
      <point x="125" y="572" type="curve" smooth="yes"/>
      <point x="125" y="577"/>
      <point x="126" y="582"/>
      <point x="131" y="588" type="curve" smooth="yes"/>
      <point x="140" y="598"/>
      <point x="159" y="609"/>
      <point x="167" y="609" type="curve" smooth="yes"/>
      <point x="179" y="609"/>
      <point x="179" y="605"/>
      <point x="176" y="588" type="curve" smooth="yes"/>
      <point x="168" y="545"/>
      <point x="167" y="405"/>
      <point x="165" y="333" type="curve" smooth="yes"/>
      <point x="165" y="324"/>
      <point x="157" y="312"/>
      <point x="142" y="311" type="curve"/>
      <point x="129" y="306"/>
      <point x="125" y="311"/>
    </contour>
    <contour>
      <point x="125" y="-38" type="curve" smooth="yes"/>
      <point x="125" y="-17"/>
      <point x="124" y="194"/>
      <point x="125" y="215" type="curve" smooth="yes"/>
      <point x="125" y="221"/>
      <point x="125" y="226"/>
      <point x="131" y="232" type="curve" smooth="yes"/>
      <point x="140" y="242"/>
      <point x="159" y="251"/>
      <point x="167" y="251" type="curve" smooth="yes"/>
      <point x="178" y="251"/>
      <point x="179" y="248"/>
      <point x="176" y="231" type="curve" smooth="yes"/>
      <point x="168" y="188"/>
      <point x="167" y="47"/>
      <point x="165" y="-24" type="curve" smooth="yes"/>
      <point x="165" y="-33"/>
      <point x="157" y="-45"/>
      <point x="142" y="-48" type="curve" smooth="yes"/>
      <point x="129" y="-51"/>
      <point x="125" y="-47"/>
    </contour>
  </outline>
</glyph>
<glyph name="section" format="1">
  <advance width="367"/>
  <unicode hex="00A7"/>
  <outline>
    <contour>
      <point x="47" y="476" type="curve" smooth="yes"/>
      <point x="46" y="572"/>
      <point x="149" y="603"/>
      <point x="211" y="603" type="curve" smooth="yes"/>
      <point x="270" y="603"/>
      <point x="298" y="583"/>
      <point x="301" y="551" type="curve"/>
      <point x="301" y="529"/>
      <point x="283" y="508"/>
      <point x="261" y="490" type="curve"/>
      <point x="246" y="476"/>
      <point x="226" y="485"/>
      <point x="231" y="503" type="curve" smooth="yes"/>
      <point x="240" y="537"/>
      <point x="226" y="562"/>
      <point x="191" y="562" type="curve" smooth="yes"/>
      <point x="137" y="562"/>
      <point x="111" y="537"/>
      <point x="112" y="508" type="curve" smooth="yes"/>
      <point x="113" y="482"/>
      <point x="130" y="470"/>
      <point x="163" y="453" type="curve" smooth="yes"/>
      <point x="175" y="447"/>
      <point x="221" y="431"/>
      <point x="238" y="424" type="curve" smooth="yes"/>
      <point x="295" y="402"/>
      <point x="329" y="359"/>
      <point x="329" y="311" type="curve" smooth="yes"/>
      <point x="329" y="279"/>
      <point x="312" y="236"/>
      <point x="296" y="207" type="curve"/>
      <point x="294" y="201"/>
      <point x="294" y="196"/>
      <point x="297" y="191" type="curve" smooth="yes"/>
      <point x="311" y="173"/>
      <point x="320" y="148"/>
      <point x="320" y="122" type="curve" smooth="yes"/>
      <point x="321" y="73"/>
      <point x="295" y="-8"/>
      <point x="157" y="-8" type="curve" smooth="yes"/>
      <point x="98" y="-8"/>
      <point x="58" y="11"/>
      <point x="56" y="43" type="curve" smooth="yes"/>
      <point x="55" y="66"/>
      <point x="72" y="89"/>
      <point x="95" y="104" type="curve" smooth="yes"/>
      <point x="112" y="115"/>
      <point x="130" y="109"/>
      <point x="125" y="91" type="curve" smooth="yes"/>
      <point x="116" y="57"/>
      <point x="142" y="32"/>
      <point x="177" y="32" type="curve" smooth="yes"/>
      <point x="255" y="32"/>
      <point x="256" y="69"/>
      <point x="255" y="90" type="curve" smooth="yes"/>
      <point x="254" y="116"/>
      <point x="237" y="133"/>
      <point x="204" y="150" type="curve" smooth="yes"/>
      <point x="192" y="156"/>
      <point x="146" y="172"/>
      <point x="129" y="178" type="curve" smooth="yes"/>
      <point x="72" y="200"/>
      <point x="38" y="243"/>
      <point x="38" y="291" type="curve" smooth="yes"/>
      <point x="38" y="325"/>
      <point x="56" y="364"/>
      <point x="74" y="390" type="curve" smooth="yes"/>
      <point x="82" y="400"/>
      <point x="79" y="399"/>
      <point x="72" y="408" type="curve" smooth="yes"/>
      <point x="56" y="426"/>
      <point x="47" y="449"/>
    </contour>
    <contour>
      <point x="268" y="268" type="curve" smooth="yes"/>
      <point x="268" y="301"/>
      <point x="246" y="319"/>
      <point x="211" y="335" type="curve"/>
      <point x="187" y="348"/>
      <point x="158" y="361"/>
      <point x="136" y="370" type="curve"/>
      <point x="120" y="378"/>
      <point x="116" y="377"/>
      <point x="107" y="359" type="curve" smooth="yes"/>
      <point x="103" y="350"/>
      <point x="99" y="341"/>
      <point x="99" y="335" type="curve" smooth="yes"/>
      <point x="99" y="302"/>
      <point x="121" y="284"/>
      <point x="156" y="268" type="curve"/>
      <point x="182" y="254"/>
      <point x="214" y="240"/>
      <point x="236" y="231" type="curve"/>
      <point x="255" y="221"/>
      <point x="256" y="225"/>
      <point x="260" y="237" type="curve" smooth="yes"/>
      <point x="264" y="248"/>
      <point x="268" y="261"/>
    </contour>
  </outline>
</glyph>
